<svg xmlns="http://www.w3.org/2000/svg" viewBox="0 0 27.42 18.17">
  <path d="M26.42,15.87a1,1,0,0,1-.58-.19L17.75,9.9a1,1,0,0,1-.42-.81,1,1,0,0,1,.42-.81L25.84,2.5a1,1,0,0,1,1.58.81V14.87a1,1,0,0,1-.54.89A1.11,1.11,0,0,1,26.42,15.87ZM20.05,9.09l5.37,3.83V5.25Zm-4,9.08H3.31A3.31,3.31,0,0,1,0,14.87V3.31A3.31,3.31,0,0,1,3.31,0H16a3.31,3.31,0,0,1,3.31,3.31V14.87A3.31,3.31,0,0,1,16,18.17ZM3.31,2A1.31,1.31,0,0,0,2,3.31V14.87a1.31,1.31,0,0,0,1.31,1.3H16a1.31,1.31,0,0,0,1.31-1.3V3.31A1.31,1.31,0,0,0,16,2Z" fill="#0038b9"/>
</svg>
