<svg xmlns="http://www.w3.org/2000/svg" viewBox="0 0 18.99 18.99">
  <path d="M13.27,19H2.89A2.89,2.89,0,0,1,0,16.1V5.72A2.9,2.9,0,0,1,2.89,2.83H8.55a1,1,0,0,1,0,2H2.89A.89.89,0,0,0,2,5.72V16.1a.89.89,0,0,0,.89.89H13.27a.89.89,0,0,0,.89-.89V10.44a1,1,0,0,1,2,0V16.1A2.89,2.89,0,0,1,13.27,19Z"/>
  <path d="M18,7.66a1,1,0,0,1-1-1V2H12.33a1,1,0,0,1,0-2H18a1,1,0,0,1,1,1V6.66A1,1,0,0,1,18,7.66Z"/>
  <path d="M7.61,12.38a1,1,0,0,1-.71-.29,1,1,0,0,1,0-1.41L17.29.29a1,1,0,0,1,1.41,0,1,1,0,0,1,0,1.42L8.31,12.09A1,1,0,0,1,7.61,12.38Z"/>
</svg>
