<svg id="a9bd3592-2588-4e3f-ad9e-5bbe31918049" data-name="Layer 1" xmlns="http://www.w3.org/2000/svg" viewBox="0 0 14.6 14.6">
  <defs>
    <style>
      .b73fc0ec-b5b8-4890-8923-714258c4a140 {
        fill: #9f9f9f;
      }
    </style>
  </defs>
  <g>
    <path class="b73fc0ec-b5b8-4890-8923-714258c4a140" d="M12.39,14.6H2.21A2.21,2.21,0,0,1,0,12.39V9.48a.76.76,0,0,1,.75-.75.76.76,0,0,1,.75.75v2.91a.71.71,0,0,0,.71.71H12.39a.71.71,0,0,0,.71-.71V9.48a.75.75,0,0,1,1.5,0v2.91A2.21,2.21,0,0,1,12.39,14.6Z"/>
    <path class="b73fc0ec-b5b8-4890-8923-714258c4a140" d="M7.3,10.23A.75.75,0,0,1,6.77,10L3.13,6.37A.75.75,0,0,1,4.19,5.31L7.3,8.42l3.11-3.11a.75.75,0,1,1,1.06,1.06L7.83,10A.75.75,0,0,1,7.3,10.23Z"/>
    <path class="b73fc0ec-b5b8-4890-8923-714258c4a140" d="M7.3,10.23a.75.75,0,0,1-.75-.75V.75a.75.75,0,0,1,1.5,0V9.48A.75.75,0,0,1,7.3,10.23Z"/>
  </g>
</svg>
