<svg xmlns="http://www.w3.org/2000/svg" viewBox="0 0 26.5 26.35"><title>facebook-o</title><path d="M15.2,26.35a.75.75,0,0,1-.75-.75V16.86a.75.75,0,0,1,.75-.75h2.27L17.79,14H15.2a.75.75,0,0,1-.75-.75V10.9a2.55,2.55,0,0,1,2.79-2.7h.83V6.53a17,17,0,0,0-2-.15c-2.52,0-4,1.5-4,4.11v2.75a.75.75,0,0,1-.75.75H8.87v2.11H11.3a.75.75,0,0,1,.75.75V25.6a.75.75,0,0,1-.87.74A13.25,13.25,0,1,1,26.5,13.25,13.18,13.18,0,0,1,15.32,26.34ZM16,17.61v7.07A11.75,11.75,0,1,0,1.5,13.25a11.68,11.68,0,0,0,9,11.44V17.61H8.12a.75.75,0,0,1-.75-.75V13.25a.75.75,0,0,1,.75-.75h2.42v-2c0-3.46,2.1-5.61,5.47-5.61a19.78,19.78,0,0,1,2.92.26.75.75,0,0,1,.62.74V9a.75.75,0,0,1-.75.75H17.24c-.89,0-1.29.37-1.29,1.2v1.6h2.72a.75.75,0,0,1,.74.86L18.86,17a.75.75,0,0,1-.74.64Z"/></svg>