<svg id="b52ce130-6dbc-4443-96b5-475f8405dc47" data-name="Слой 1" xmlns="http://www.w3.org/2000/svg" viewBox="0 0 14.93 10.62"><path id="a25fdc97-f16b-4bac-b70f-efc4ba85c018" data-name="Icon feather-list" d="M13.93,2H4.59a1,1,0,0,1,0-2h9.34a1,1,0,0,1,0,2Zm1,3.31a1,1,0,0,0-1-1H4.59a1,1,0,0,0,0,2h9.34A1,1,0,0,0,14.93,5.31Zm0,4.31a1,1,0,0,0-1-1H4.59a1,1,0,0,0,0,2h9.34A1,1,0,0,0,14.93,9.62ZM1.71,1.71A1.05,1.05,0,0,0,2,1,1.05,1.05,0,0,0,1.71.29,1,1,0,0,0,1.38.08,1,1,0,0,0,.29.29,1.05,1.05,0,0,0,0,1a1,1,0,0,0,.08.38,1.15,1.15,0,0,0,.21.33A1.05,1.05,0,0,0,1,2,1.05,1.05,0,0,0,1.71,1.71ZM1.71,6a1,1,0,0,0,0-1.42,1,1,0,0,0-1.42,0A1,1,0,0,0,.29,6,1.05,1.05,0,0,0,1,6.31,1.05,1.05,0,0,0,1.71,6Zm0,4.3A1,1,0,0,0,2,9.62a1.05,1.05,0,0,0-.29-.71,1,1,0,0,0-1.42,0A1.05,1.05,0,0,0,0,9.62a1,1,0,0,0,.29.7,1,1,0,0,0,.71.3A1,1,0,0,0,1.71,10.32Z" style="fill:#070707"/></svg>