<svg id="a9dc1132-333f-474f-bb35-3edb22f701b5" data-name="Layer 1" xmlns="http://www.w3.org/2000/svg" viewBox="0 0 13.1 14.39">
  <defs>
    <style>
      .bc60da4a-1aa8-465c-8020-e660fb39020a {
        fill: #9f9f9f;
      }
    </style>
  </defs>
  <g>
    <path class="bc60da4a-1aa8-465c-8020-e660fb39020a" d="M6.55,14.39A6.55,6.55,0,0,1,1.92,3.21.75.75,0,1,1,3,4.27a5,5,0,1,0,7.14,0,.75.75,0,1,1,1.06-1.06A6.55,6.55,0,0,1,6.55,14.39Z"/>
    <path class="bc60da4a-1aa8-465c-8020-e660fb39020a" d="M6.55,8A.76.76,0,0,1,5.8,7.2V.75a.75.75,0,0,1,1.5,0V7.2A.75.75,0,0,1,6.55,8Z"/>
  </g>
</svg>
