<svg xmlns="http://www.w3.org/2000/svg" viewBox="0 0 22.23 22.22">
  <path d="M22.11,21.45V13.81a.63.63,0,1,0-1.26,0v6.12l-5.31-5.29a.62.62,0,0,0-.89,0,.63.63,0,0,0,0,.85L20,20.83H13.83a.63.63,0,0,0,0,1.26h7.65a.63.63,0,0,0,.63-.63Z" fill="#0038b9"/>
  <path d="M8.41,20.83H2.27l5.31-5.3a.63.63,0,0,0-.89-.9l-5.31,5.3h0V13.81a.62.62,0,0,0-.62-.63.63.63,0,0,0-.63.63h0v7.65a.63.63,0,0,0,.62.63H8.41a.63.63,0,1,0,0-1.26Z" fill="none" stroke="#0038b9" stroke-miterlimit="20" stroke-width="0.25"/>
  <path d="M8.41,20.83H2.27l5.31-5.3a.63.63,0,0,0-.89-.9l-5.31,5.3V13.81a.62.62,0,0,0-.62-.63.63.63,0,0,0-.63.63h0v7.65a.63.63,0,0,0,.62.63H8.41a.63.63,0,1,0,0-1.26Z" fill="#0038b9"/>
  <path d="M13.82,1.38H20L14.65,6.69a.64.64,0,0,0,0,.89.63.63,0,0,0,.85,0l5.31-5.3V8.41a.63.63,0,0,0,1.26,0V.75a.63.63,0,0,0-.63-.62H13.83a.63.63,0,0,0-.64.62.63.63,0,0,0,.63.63Z" fill="#0038b9"/>
  <path d="M8.41.13H.76A.63.63,0,0,0,.13.75V8.41A.63.63,0,0,0,.76,9a.63.63,0,0,0,.63-.63h0V2.28h0l5.3,5.3a.62.62,0,0,0,.89,0h0a.62.62,0,0,0,0-.89L2.27,1.38H8.41A.62.62,0,0,0,9,.76.63.63,0,0,0,8.41.13Z" fill="none" stroke="#0038b9" stroke-miterlimit="20" stroke-width="0.25"/>
  <path d="M8.41.13H.76A.63.63,0,0,0,.13.75V8.41A.63.63,0,0,0,.76,9a.63.63,0,0,0,.63-.63h0V2.28l5.3,5.3a.62.62,0,0,0,.89,0h0a.62.62,0,0,0,0-.89L2.27,1.38H8.41A.62.62,0,0,0,9,.76.63.63,0,0,0,8.41.13Z" fill="#0038b9"/>
  <path d="M13.82,1.38H20L14.65,6.69a.64.64,0,0,0,0,.89.63.63,0,0,0,.85,0l5.31-5.3V8.41a.63.63,0,0,0,1.26,0V.76h0a.63.63,0,0,0-.63-.62H13.83a.63.63,0,0,0-.64.62.63.63,0,0,0,.63.63Z" fill="none" stroke="#0038b9" stroke-miterlimit="20" stroke-width="0.25"/>
  <path d="M21.48,22.22H13.82a.76.76,0,0,1,0-1.51h5.84l-5.1-5.09a.76.76,0,0,1,0-1,.73.73,0,0,1,.52-.24h0a.78.78,0,0,1,.51.19l5.09,5.09V13.81a.76.76,0,0,1,1.51,0v7.64A.76.76,0,0,1,21.48,22.22ZM13.82,21a.5.5,0,0,0-.5.5.51.51,0,0,0,.5.51h7.66a.5.5,0,0,0,.5-.51V13.81a.5.5,0,0,0-.5-.5.5.5,0,0,0-.51.5v6.42l-5.52-5.5a.52.52,0,0,0-.36-.13.48.48,0,0,0-.35.16.5.5,0,0,0,0,.68L20.27,21Z" fill="#0038b9"/>
</svg>
