<svg xmlns="http://www.w3.org/2000/svg" viewBox="0 0 36.11 36.26">
  <path d="M18.05,0A18.12,18.12,0,0,1,36.11,16.62H33.84a15.84,15.84,0,0,0-9-12.81l-2,2L17.06.05c.33,0,.65,0,1,0ZM25,18.44v-.62a4.63,4.63,0,0,0-.85-3,3,3,0,0,0-2.48-1H20.15v8.71h1.37a3.68,3.68,0,0,0,1.5-.28,2.78,2.78,0,0,0,1.08-.8,3.61,3.61,0,0,0,.64-1.27,6,6,0,0,0,.22-1.7Zm.59-4.79a5.21,5.21,0,0,1,1.11,1.81,6.62,6.62,0,0,1,.4,2.37v.6a6.55,6.55,0,0,1-.39,2.37,5,5,0,0,1-1.12,1.81,4.89,4.89,0,0,1-1.75,1.15,6.17,6.17,0,0,1-2.28.41H18.05V12.08h3.58a5.87,5.87,0,0,1,2.21.41A4.9,4.9,0,0,1,25.55,13.65Zm-12.93,9a2,2,0,0,0,1.43-.48,1.81,1.81,0,0,0,.53-1.4,2.24,2.24,0,0,0-.15-.86,1.63,1.63,0,0,0-1.12-1,3.42,3.42,0,0,0-.9-.12H11.25V17.24h1.16a2.62,2.62,0,0,0,.88-.14,1.83,1.83,0,0,0,.62-.37,1.7,1.7,0,0,0,.37-.57,2.11,2.11,0,0,0,.12-.73A1.85,1.85,0,0,0,14,14.12a1.78,1.78,0,0,0-1.35-.46,2.08,2.08,0,0,0-.71.12,1.68,1.68,0,0,0-.58.33,1.62,1.62,0,0,0-.38.51,1.65,1.65,0,0,0-.13.68h-2A3,3,0,0,1,9.12,14a3.26,3.26,0,0,1,.78-1,3.42,3.42,0,0,1,1.19-.67,4.6,4.6,0,0,1,1.51-.25,5.25,5.25,0,0,1,1.56.22,3.49,3.49,0,0,1,1.19.64,2.86,2.86,0,0,1,.77,1,3.64,3.64,0,0,1,.27,1.45,2.57,2.57,0,0,1-.11.72,2.77,2.77,0,0,1-.34.69A3.18,3.18,0,0,1,14.58,18a3.55,3.55,0,0,1,.91.48,2.34,2.34,0,0,1,.61.65,2.66,2.66,0,0,1,.34.77,3.34,3.34,0,0,1,.11.84,3.6,3.6,0,0,1-.3,1.47,3.2,3.2,0,0,1-.83,1.09,3.54,3.54,0,0,1-1.26.67,5.21,5.21,0,0,1-3,0,3.68,3.68,0,0,1-1.23-.63,3,3,0,0,1-1.16-2.47h2a1.8,1.8,0,0,0,.14.71,1.68,1.68,0,0,0,.38.56,1.74,1.74,0,0,0,.61.35,2.22,2.22,0,0,0,.79.13Zm-1.34,9.86,2-2,5.76,5.76c-.33,0-.66.06-1,.06A18.12,18.12,0,0,1,0,19.64H2.27A15.86,15.86,0,0,0,11.28,32.46Z" fill="#0038b9"/>
</svg>
