<svg id="a8cfcc02-85e2-4265-bba8-d20962798d25" data-name="Слой 1" xmlns="http://www.w3.org/2000/svg" viewBox="0 0 15.75 15.75"><path d="M7.87,10.57a2.7,2.7,0,1,1,2.7-2.7A2.7,2.7,0,0,1,7.87,10.57Zm0-3.89a1.2,1.2,0,1,0,1.2,1.19A1.19,1.19,0,0,0,7.87,6.68Zm.06,9.19a2.06,2.06,0,0,1-2-1.87,2.16,2.16,0,0,1,0-.36.39.39,0,0,0-.39-.31.37.37,0,0,0-.23.1,2,2,0,0,1-1.37.69,2,2,0,0,1-1.5-.48,2.06,2.06,0,0,1-.24-2.89,2.83,2.83,0,0,1,.25-.24.35.35,0,0,0,.07-.22.3.3,0,0,0-.1-.23A.31.31,0,0,0,2.15,10h-.1A2.07,2.07,0,0,1,.59,9.24,2,2,0,0,1,.12,7.75,2.05,2.05,0,0,1,2,5.88h.13a.39.39,0,0,0,.21-.12.38.38,0,0,0,.09-.27.36.36,0,0,0-.09-.23A2,2,0,0,1,5,2.15a1.88,1.88,0,0,1,.24.25.36.36,0,0,0,.35.05L5.7,2.4a.31.31,0,0,0,.13-.25v-.1A2,2,0,0,1,6.3.62,2.05,2.05,0,0,1,7.69-.11a2,2,0,0,1,1.5.48,2,2,0,0,1,.73,1.39,2.16,2.16,0,0,1,0,.36.32.32,0,0,0,.33.31.37.37,0,0,0,.22-.1,2.1,2.1,0,0,1,1.39-.7A2.06,2.06,0,0,1,13.58,5l-.23.23a.32.32,0,0,0,0,.34.56.56,0,0,1,0,.12.31.31,0,0,0,.25.13h.11a2,2,0,0,1,1.69,3.36,2.08,2.08,0,0,1-1.4.73h-.36a.31.31,0,0,0-.28.19h0a.31.31,0,0,0,.07.35,2.05,2.05,0,0,1-2.68,3.11l-.22-.22c-.08-.08-.18-.12-.23-.08a.32.32,0,0,0-.23.09.32.32,0,0,0-.09.23v.1a2,2,0,0,1-.47,1.43,2.07,2.07,0,0,1-1.39.73Zm-2.42-4A1.87,1.87,0,0,1,7.38,13.6v.17a.17.17,0,0,0,0,.1.54.54,0,0,0,.59.49.56.56,0,0,0,.38-.19.53.53,0,0,0,.12-.4v-.18A1.8,1.8,0,0,1,9,12.33a1.75,1.75,0,0,1,1.28-.55,1.79,1.79,0,0,1,1.3.51l.08.09a.57.57,0,0,0,.84,0,.55.55,0,0,0-.06-.78l-.08-.07a1.83,1.83,0,0,1,1.29-3.11h.13a.61.61,0,0,0,.47-.19.56.56,0,0,0,.12-.41.52.52,0,0,0-.59-.49h-.18a1.82,1.82,0,0,1-1.67-1.11.84.84,0,0,1-.05-.17,1.82,1.82,0,0,1,.42-1.87l.09-.08a.57.57,0,0,0,0-.84.54.54,0,0,0-.4-.13.56.56,0,0,0-.38.19.3.3,0,0,1-.08.08,1.82,1.82,0,0,1-1.26.53h0A1.83,1.83,0,0,1,8.42,2.12V2a.61.61,0,0,0-.19-.47.59.59,0,0,0-.4-.12.56.56,0,0,0-.38.19.54.54,0,0,0-.12.4v.17a1.82,1.82,0,0,1-1.1,1.67A.45.45,0,0,1,6,3.87a1.78,1.78,0,0,1-1.86-.42.38.38,0,0,1-.09-.09.6.6,0,0,0-.47-.19.54.54,0,0,0-.37.19.55.55,0,0,0,.06.78l.09.08A1.87,1.87,0,0,1,2.15,7.38h-.1a.54.54,0,0,0-.43.5.53.53,0,0,0,.12.4.56.56,0,0,0,.38.19h0A1.82,1.82,0,0,1,3.42,9,1.79,1.79,0,0,1,4,10.27a1.81,1.81,0,0,1-.51,1.3l-.1.09a.57.57,0,0,0,0,.84.6.6,0,0,0,.4.13.57.57,0,0,0,.38-.2l.08-.08a1.92,1.92,0,0,1,1.19-.52Zm7.16-2Z"/></svg>