<svg xmlns="http://www.w3.org/2000/svg" viewBox="0 0 26.5 21.8"><title>twitter-o</title><path d="M8.62,21.8A15.26,15.26,0,0,1,.34,19.39.75.75,0,0,1,0,18.5.74.74,0,0,1,.83,18,11.35,11.35,0,0,0,2,18.07,9.5,9.5,0,0,0,6.38,17a5.88,5.88,0,0,1-3.54-3.7.75.75,0,0,1,.28-.84A5.88,5.88,0,0,1,1,8a.8.8,0,0,1,.37-.68.85.85,0,0,1,.41-.12A5.87,5.87,0,0,1,1,4.27a5.81,5.81,0,0,1,.8-3A.75.75,0,0,1,2.44.94a.74.74,0,0,1,.64.27,13.84,13.84,0,0,0,9.12,5c0-.11,0-.23,0-.34A5.88,5.88,0,0,1,22,1.55,9.31,9.31,0,0,0,24.67.49a.75.75,0,0,1,1.1.87,5.86,5.86,0,0,1-.55,1.21l.23-.1a.75.75,0,0,1,.92,1.11,11.72,11.72,0,0,1-2.42,2.58c0,.1,0,.2,0,.31A15.18,15.18,0,0,1,8.62,21.8ZM3.76,19.43a13.86,13.86,0,0,0,4.86.88A13.7,13.7,0,0,0,22.45,6.48c0-.2,0-.41,0-.61a.75.75,0,0,1,.3-.66q.38-.28.73-.59l-.58.08a.74.74,0,0,1-.8-.51.75.75,0,0,1,.33-.88,4.42,4.42,0,0,0,.67-.49,10.89,10.89,0,0,1-1.14.29.75.75,0,0,1-.69-.22,4.38,4.38,0,0,0-7.57,3,5.09,5.09,0,0,0,.11,1,.75.75,0,0,1-.77.9A15.34,15.34,0,0,1,2.71,3.07,4.39,4.39,0,0,0,4.5,7.91a.75.75,0,0,1,.3.85.74.74,0,0,1-.74.52,5.94,5.94,0,0,1-1.38-.22A4.38,4.38,0,0,0,6,12.25a.75.75,0,0,1,0,1.46,6.21,6.21,0,0,1-1.28.19,4.38,4.38,0,0,0,3.58,2,.75.75,0,0,1,.45,1.34A10.92,10.92,0,0,1,3.76,19.43Z"/></svg>