<svg xmlns="http://www.w3.org/2000/svg" viewBox="0 0 51 51">
  <path d="M25.54,48.05c-3.66,0-6.86-4.58-8.76-11.08a47.64,47.64,0,0,0,8.76.78A47.64,47.64,0,0,0,34.3,37C32.41,43.47,29.2,48.05,25.54,48.05ZM50.71,25.17c0-7-11.05-12.59-25.17-12.59l1.83-1.37A1.14,1.14,0,0,0,26,9.38h0l-4.58,3.43-.23.28a1.08,1.08,0,0,0,0,1l.23.27L26,17.75a1,1,0,0,0,.69.23,1.13,1.13,0,0,0,1.14-1.14,1.16,1.16,0,0,0-.46-.92l-1.83-1.05c12.4,0,22.88,4.71,22.88,10.3,0,3.66-4.57,6.86-11.07,8.76a49.45,49.45,0,0,0,.78-8.76L39.52,27a1.14,1.14,0,0,0,2-1.14.76.76,0,0,0-.17-.23L37.9,21.05l-.28-.23h-.11a1.08,1.08,0,0,0-1,0h-.12l-.27.23-3.43,4.58A1.14,1.14,0,1,0,34.56,27h0l1.37-1.83A46.73,46.73,0,0,1,35,34.53a46.1,46.1,0,0,1-9.45.93,46.72,46.72,0,0,1-9.36-.93,46.72,46.72,0,0,1-.93-9.36c0-12.4,4.71-22.88,10.29-22.88,2.57,0,5,2.29,7,6.22a1.14,1.14,0,1,0,2.06-1C32.22,2.68,29,0,25.54,0,18.49,0,13,11.05,13,25.17a47.64,47.64,0,0,0,.78,8.76C7.24,32,2.66,28.83,2.66,25.17c0-2.59,2.29-5.06,6.23-6.87a1.15,1.15,0,0,0-1-2.06h0C3.05,18.44.37,21.65.37,25.17c0,5,5.61,9.15,13.89,11.28,2.13,8.28,6.27,13.89,11.28,13.89s9.15-5.61,11.28-13.89c8.28-2.13,13.89-6.27,13.89-11.28Z"/>
</svg>
