<svg xmlns="http://www.w3.org/2000/svg" width="1180" height="679" viewBox="0 0 1180 679"><g><g><g><path fill="#0038b9" d="M62.241 173h14.864v27.527h157.983v-27.526h14.862v71.203h-14.862V214.29H77.105v29.914H62.241z"/></g><g><path fill="#0038b9" d="M261.522 192.142h13.963v52.062h-13.963zm-.211-19.141h14.366v12.56h-14.366z"/></g><g><path fill="#0038b9" d="M296.015 227.66c.469 3.052 1.699 5.04 3.694 5.972 1.988.941 4.385 1.403 7.184 1.403 3.32 0 5.691-.419 7.13-1.246 1.42-.829 2.137-2.18 2.137-4.044 0-1.325-.445-2.485-1.343-3.479-.898-1.01-2.608-1.708-5.136-2.109l-7.182-1.186c-6.319-1.002-11.018-2.719-14.11-5.133-3.096-2.442-4.638-6.11-4.638-11.035 0-2.528.547-4.777 1.639-6.772 1.107-2.005 2.648-3.697 4.643-5.091 1.99-1.403 4.369-2.475 7.13-3.234 2.757-.784 5.806-1.16 9.129-1.16 4.12 0 7.583.428 10.373 1.256 2.795.828 5.063 1.944 6.833 3.338 1.762 1.395 3.093 3.051 3.982 4.995a24.727 24.727 0 0 1 1.944 6.171l-12.464 1.604c-.594-2.406-1.65-4.158-3.137-5.291-1.5-1.133-3.906-1.69-7.236-1.69-1.864 0-3.407.147-4.637.443-1.228.296-2.186.68-2.887 1.151-.703.462-1.202.993-1.497 1.587-.305.6-.451 1.167-.451 1.7 0 1.656.51 2.876 1.54 3.651 1.038.75 3.042 1.404 6.04 1.935l6.582 1.09c3.653.602 6.683 1.377 9.072 2.3 2.398.934 4.307 2.084 5.735 3.444a10.91 10.91 0 0 1 2.993 4.837c.565 1.857.843 4.028.843 6.486 0 4.925-1.854 8.855-5.577 11.81-3.72 2.954-9.476 4.445-17.259 4.445-3.123 0-6.103-.278-8.927-.845-2.823-.567-5.351-1.552-7.572-2.946-2.233-1.405-4.062-3.26-5.494-5.588-1.426-2.336-2.238-5.246-2.438-8.768z"/></g><g><path fill="#0038b9" d="M342.288 203.02h-8.174v-10.877h8.174v-13.86h13.964v13.86h11.979v10.877h-11.979v24.031c0 2.737.579 4.585 1.702 5.536 1.13.967 2.598 1.455 4.384 1.455.933 0 1.884-.061 2.851-.157.958-.095 1.91-.287 2.842-.55l1.988 10.277c-1.928.593-3.801 1.02-5.632 1.255a42.57 42.57 0 0 1-5.24.34c-5.719 0-9.955-1.36-12.717-4.096-2.753-2.72-4.142-7.313-4.142-13.763z"/></g><g><path fill="#0038b9" d="M388.487 230.39c-1.936-2.825-2.894-6.922-2.894-12.317 0-5.317.977-9.37 2.938-12.168 1.959-2.789 4.933-4.184 8.932-4.184 3.986 0 6.966 1.395 8.918 4.184 1.963 2.798 2.947 6.85 2.947 12.168 0 5.326-.984 9.422-2.947 12.272-1.952 2.85-4.932 4.297-8.918 4.297-4.062 0-7.06-1.42-8.976-4.253zm8.976 15.418c3.986 0 7.611-.636 10.873-1.9 3.247-1.264 6.029-3.086 8.321-5.482 2.293-2.388 4.055-5.3 5.292-8.734 1.22-3.417 1.839-7.287 1.839-11.619 0-4.245-.601-8.098-1.798-11.514-1.192-3.417-2.936-6.311-5.236-8.673-2.293-2.37-5.074-4.167-8.324-5.447-3.258-1.256-6.911-1.892-10.967-1.892-3.999 0-7.618.636-10.877 1.892-3.26 1.28-6.03 3.076-8.324 5.447-2.3 2.362-4.06 5.256-5.29 8.673-1.23 3.416-1.84 7.27-1.84 11.514 0 8.925 2.283 15.76 6.878 20.544 4.584 4.794 11.071 7.191 19.453 7.191z"/></g><g><path fill="#0038b9" d="M431.355 192.142h13.563v7.278c1.726-2.719 3.825-4.758 6.284-6.127 2.466-1.36 5.054-2.04 7.784-2.04 1.33 0 2.42.053 3.285.148.862.096 1.64.21 2.303.35l-1.702 12.664c-1.594-.4-3.556-.601-5.883-.601-1.534 0-2.99.191-4.395.557-1.392.357-2.65 1.038-3.78 2.031-1.196 1.064-2.083 2.275-2.652 3.6a10.536 10.536 0 0 0-.844 4.097v30.105h-13.963z"/></g><g><path fill="#0038b9" d="M475.841 251.588c1.928.531 3.887.802 5.883.802 1.869 0 3.36-.445 4.492-1.343 1.131-.907 2.092-2.493 2.893-4.742l1.596-4.401-21.643-49.762h16.152l12.176 34.211 11.368-34.211h15.252l-21.04 53.562a131.747 131.747 0 0 1-3.391 7.827c-1.065 2.222-2.276 4.088-3.645 5.587a12.663 12.663 0 0 1-4.88 3.347c-1.9.723-4.236 1.098-7.034 1.098-1.728 0-3.434-.122-5.136-.357a30.638 30.638 0 0 1-5.332-1.255z"/></g></g><g><g><path fill="#0038b9" d="M72.815 107.534c.33 4.384 1.755 7.583 4.245 9.57 2.495 1.987 6.164 2.981 11.017 2.981 2.327 0 4.288-.235 5.892-.732 1.589-.497 2.886-1.16 3.89-1.996.992-.828 1.709-1.813 2.135-2.947.436-1.124.654-2.361.654-3.695 0-1.848-.7-3.6-2.091-5.23-1.406-1.639-3.966-2.807-7.681-3.539l-9.283-1.69c-3.651-.663-6.877-1.543-9.677-2.607-2.785-1.063-5.133-2.44-7.021-4.14-1.902-1.682-3.349-3.765-4.344-6.223-1.004-2.467-1.499-5.387-1.499-8.786 0-3.382.681-6.38 2.05-8.97 1.36-2.606 3.258-4.759 5.681-6.485 2.425-1.726 5.336-3.041 8.728-3.94 3.388-.888 7.119-1.333 11.173-1.333 5.186 0 9.509.584 12.961 1.787 3.461 1.194 6.25 2.78 8.377 4.742a18.46 18.46 0 0 1 4.741 6.816 32.227 32.227 0 0 1 2.041 8.098l-14.053 1.786c-.74-3.922-2.152-6.746-4.245-8.49-2.098-1.726-5.265-2.58-9.525-2.58-2.529 0-4.602.218-6.232.645-1.63.436-2.94.994-3.942 1.7-.993.688-1.69 1.517-2.09 2.441a7.224 7.224 0 0 0-.603 2.885c0 2.676.75 4.663 2.249 5.987 1.491 1.326 4.037 2.372 7.627 3.103l9.772 1.892c7.713 1.526 13.362 4.001 16.954 7.435 3.59 3.417 5.386 8.351 5.386 14.8 0 3.13-.574 5.997-1.733 8.63-1.17 2.623-2.895 4.924-5.196 6.886-2.293 1.96-5.169 3.478-8.628 4.584-3.452 1.099-7.514 1.64-12.163 1.64-9.707 0-17.144-2.084-22.294-6.224-5.153-4.166-7.934-10.425-8.325-18.801z"/></g><g><path fill="#0038b9" d="M123.479 59.558h13.964v25.74c2.066-2.799 4.463-4.856 7.182-6.189a19.186 19.186 0 0 1 8.58-2.005c5.918 0 10.31 1.552 13.17 4.637 2.859 3.104 4.287 7.967 4.287 14.617v34.404h-13.964V98.25c0-3.652-.695-6.136-2.101-7.479-1.392-1.333-3.26-1.996-5.578-1.996-1.796 0-3.347.27-4.645.802-1.29.532-2.502 1.299-3.635 2.293-.934.923-1.708 2.039-2.346 3.338-.635 1.307-.95 2.711-.95 4.236v31.318h-13.964z"/></g><g><path fill="#0038b9" d="M211.14 110.218c0 2.126-.401 3.905-1.203 5.35-.795 1.422-1.823 2.599-3.086 3.522-2.256 1.674-5.184 2.502-8.778 2.502-2.126 0-3.79-.496-4.985-1.508-1.195-.994-1.796-2.345-1.796-4.079 0-1.125.165-2.17.497-3.094.33-.916.977-1.744 1.942-2.432.969-.715 2.355-1.281 4.144-1.752 1.793-.47 4.157-.759 7.085-.898l6.18-.296zm.294 20.544h13.173V97.858c0-3.19-.393-6.076-1.15-8.639-.768-2.553-1.997-4.732-3.689-6.527-1.7-1.796-3.94-3.174-6.736-4.141-2.789-.959-6.18-1.447-10.172-1.447-6.521 0-11.697 1.22-15.562 3.644-3.86 2.432-6.246 6.371-7.172 11.81l12.761 1.212c.802-4.192 3.957-6.285 9.473-6.285 2.398 0 4.476.602 6.234 1.787 1.77 1.203 2.65 3.39 2.65 6.59v2.588l-6.686.297c-3.329.13-6.596.462-9.825 1.01-3.222.515-6.133 1.422-8.732 2.685-2.589 1.265-4.68 3.016-6.286 5.291-1.585 2.258-2.386 5.178-2.386 8.778 0 2.72.461 5.064 1.394 7.034.93 1.96 2.181 3.573 3.74 4.828 1.567 1.265 3.388 2.196 5.49 2.79 2.092.6 4.3.898 6.634.898 4.052 0 7.358-.733 9.92-2.197 2.553-1.456 4.873-3.356 6.927-5.683z"/></g><g><path fill="#0038b9" d="M235.082 78.7h13.563v7.277c1.725-2.719 3.828-4.75 6.283-6.127 2.459-1.36 5.059-2.031 7.785-2.031 1.326 0 2.425.043 3.287.14.863.095 1.638.209 2.3.357l-1.698 12.655c-1.596-.4-3.557-.6-5.886-.6-1.532 0-2.997.191-4.39.558-1.398.356-2.66 1.036-3.783 2.03-1.193 1.072-2.085 2.274-2.65 3.6a10.476 10.476 0 0 0-.848 4.096v30.107h-13.963z"/></g><g><path fill="#0038b9" d="M283.853 98.947c.07-1.594.367-3.077.9-4.436.537-1.36 1.28-2.554 2.245-3.583.96-1.046 2.136-1.847 3.54-2.45 1.395-.6 3.026-.888 4.881-.888 3.732 0 6.467.994 8.239 2.98 1.756 1.988 2.639 4.786 2.639 8.377zm21.747 15.568c-1.002 4.645-4.263 6.964-9.772 6.964-3.99 0-6.979-1.168-8.978-3.521-1.995-2.372-3.058-5.631-3.201-9.824h36.115v-5.587c0-7.783-2.016-13.963-6.042-18.557-4.027-4.593-10.022-6.886-17.999-6.886-3.86 0-7.382.62-10.57 1.848-3.19 1.229-5.937 3.05-8.232 5.44-2.29 2.396-4.068 5.307-5.33 8.724-1.266 3.417-1.892 7.322-1.892 11.732 0 8.769 2.178 15.55 6.529 20.326 4.356 4.795 10.849 7.2 19.495 7.2 7.185 0 12.651-1.516 16.403-4.55 3.757-3.024 6.105-7.47 7.037-13.31z"/></g><g><path fill="#0038b9" d="M364.043 105.93c0 2.998-.315 5.447-.95 7.338-.63 1.892-1.614 3.504-2.937 4.83-2.127 1.925-4.855 2.884-8.178 2.884-1.533 0-2.964-.279-4.287-.836-1.335-.559-2.495-1.5-3.495-2.79-1.004-1.29-1.778-2.999-2.349-5.09-.564-2.1-.84-4.698-.84-7.827 0-2.86.293-5.326.896-7.383.592-2.057 1.412-3.713 2.44-4.994 1.027-1.256 2.232-2.189 3.59-2.79a10.774 10.774 0 0 1 4.34-.898c1.397 0 2.808.184 4.247.55 1.421.366 2.738 1.15 3.931 2.344 1.263 1.263 2.178 2.903 2.746 4.89.56 1.988.846 4.664.846 7.976zm.303 24.832h13.563V59.558h-13.97v24.336c-2.258-2.658-4.666-4.453-7.228-5.395-2.555-.924-5.133-1.395-7.732-1.395-3.522 0-6.677.663-9.465 2.005-2.8 1.333-5.16 3.199-7.084 5.63-1.928 2.424-3.411 5.31-4.438 8.674-1.029 3.364-1.544 7.077-1.544 11.121 0 8.708 1.79 15.533 5.38 20.449 3.59 4.925 9.046 7.391 16.359 7.391 6.782 0 12.168-2.842 16.159-8.49z"/></g><g><path fill="#0038b9" d="M393.011 111.619V97.856h131.003v13.763z"/></g></g><g><path fill="#0038b9" d="M13.074 336.545V13.075h523.294l328.887 328.892v323.462h-523.29zm865.255 0L541.78 0H0v341.967l336.542 336.536H878.33z"/></g><g><g><path fill="#0038b9" d="M910.78 502.152l-5.9 3.564-1.412-2.416 7.65-4.748h3.001v25.655h-3.34z"/></g><g><path fill="#0038b9" d="M926.56 524.207a133.087 133.087 0 0 1 4.046-11.679 108.375 108.375 0 0 1 5.164-11.047h-13.852v-2.93h17.488v2.747a110.924 110.924 0 0 0-5.253 11.139 105.939 105.939 0 0 0-3.956 11.77z"/></g><g><path fill="#0038b9" d="M948.943 521.255c-.766-.484-1.377-1.177-1.836-2.08-.46-.905-.788-2.012-1-3.325-.214-1.309-.317-2.794-.317-4.455 0-1.657.103-3.142.316-4.455.213-1.312.542-2.427 1-3.344.46-.913 1.07-1.613 1.837-2.097.766-.48 1.71-.722 2.824-.722 1.114 0 2.05.242 2.806.722.753.484 1.36 1.184 1.817 2.097.458.917.792 2.032 1.002 3.344.213 1.313.314 2.798.314 4.455 0 1.661-.101 3.146-.314 4.455-.21 1.313-.544 2.42-1.002 3.326-.458.902-1.064 1.595-1.817 2.079-.757.48-1.692.722-2.806.722-1.115 0-2.058-.242-2.824-.722zm6.74 2.82c1.177-.532 2.175-1.35 2.992-2.454.815-1.096 1.433-2.496 1.854-4.19.423-1.698.631-3.707.631-6.036 0-2.324-.208-4.341-.63-6.05-.422-1.708-1.033-3.12-1.837-4.23-.807-1.12-1.785-1.94-2.933-2.472-1.156-.536-2.457-.8-3.92-.8-1.459 0-2.767.264-3.934.8-1.161.531-2.16 1.353-2.989 2.471-.832 1.111-1.466 2.523-1.913 4.231-.443 1.709-.668 3.726-.668 6.05 0 4.653.822 8.067 2.472 10.226 1.647 2.167 3.942 3.253 6.882 3.253 1.49 0 2.82-.268 3.993-.8z"/></g><g><path fill="#0038b9" d="M969.441 521.255c-.766-.484-1.379-1.177-1.837-2.08-.458-.905-.793-2.012-1-3.325-.214-1.309-.316-2.794-.316-4.455 0-1.657.102-3.142.316-4.455.207-1.312.542-2.427 1-3.344.458-.913 1.071-1.613 1.837-2.097.768-.48 1.708-.722 2.823-.722s2.046.242 2.802.722c.758.484 1.364 1.184 1.821 2.097.46.917.788 2.032 1.002 3.344.213 1.313.316 2.798.316 4.455 0 1.661-.103 3.146-.316 4.455-.214 1.313-.542 2.42-1.002 3.326-.457.902-1.063 1.595-1.821 2.079-.756.48-1.687.722-2.802.722s-2.055-.242-2.823-.722zm6.74 2.82c1.173-.532 2.174-1.35 2.99-2.454.816-1.096 1.435-2.496 1.853-4.19.425-1.698.633-3.707.633-6.036 0-2.324-.208-4.341-.633-6.05-.418-1.708-1.03-3.12-1.837-4.23-.802-1.12-1.782-1.94-2.93-2.472-1.155-.536-2.456-.8-3.919-.8-1.46 0-2.772.264-3.935.8-1.162.531-2.16 1.353-2.988 2.471-.831 1.111-1.467 2.523-1.913 4.231-.444 1.709-.669 3.726-.669 6.05 0 4.653.822 8.067 2.468 10.226 1.65 2.167 3.946 3.253 6.886 3.253 1.489 0 2.82-.268 3.993-.8z"/></g><g><path fill="#0038b9" d="M998.29 512.954l-9.244-15.257h3.934l7.018 12.25 7.201-12.25h3.605l-9.06 15.257v11.253h-3.454z"/></g><g><path fill="#0038b9" d="M1010.394 512.994c.173-1.98.733-3.49 1.685-4.529.954-1.044 2.285-1.561 3.994-1.561.942 0 1.745.15 2.412.447.671.293 1.214.708 1.636 1.243.42.532.73 1.17.928 1.91.197.741.296 1.573.296 2.49zm10.768 5.83c-.276 1.038-.781 1.863-1.526 2.468-.739.608-1.917.909-3.526.909-.939 0-1.772-.172-2.486-.52a5.148 5.148 0 0 1-1.801-1.43 6.514 6.514 0 0 1-1.115-2.153 8.937 8.937 0 0 1-.387-2.691h14.255v-1.635c0-1.361-.166-2.611-.5-3.752-.336-1.136-.846-2.122-1.524-2.948-.68-.832-1.55-1.48-2.617-1.95-1.066-.47-2.341-.708-3.825-.708-1.313 0-2.526.231-3.638.69a8.007 8.007 0 0 0-2.878 1.987c-.804.865-1.426 1.943-1.875 3.226-.444 1.291-.67 2.762-.67 4.422 0 3.168.782 5.636 2.344 7.407 1.557 1.767 3.797 2.655 6.717 2.655 2.48 0 4.373-.536 5.702-1.6 1.324-1.062 2.143-2.522 2.468-4.377z"/></g><g><path fill="#0038b9" d="M1039.238 516.741c0 1.636-.532 2.923-1.594 3.861-1.064.943-2.55 1.412-4.456 1.412-1.338 0-2.298-.29-2.878-.87-.58-.586-.872-1.356-.872-2.32 0-.645.105-1.213.319-1.709.203-.498.564-.909 1.07-1.246.51-.334 1.198-.598 2.064-.8.865-.194 1.954-.322 3.267-.366l3.08-.114zm.073 7.466h3.12v-12.478c0-1.136-.132-2.167-.388-3.084-.26-.913-.686-1.683-1.284-2.299-.593-.615-1.368-1.092-2.317-1.43-.954-.333-2.123-.502-3.508-.502-2.256 0-4.037.404-5.346 1.207-1.317.806-2.142 2.09-2.491 3.846l2.935.333c.218-.89.692-1.59 1.407-2.097.722-.51 1.845-.763 3.38-.763 1.558 0 2.688.36 3.378 1.079.696.718 1.041 1.892 1.041 3.523v.748l-3.303.11c-1.24.051-2.439.173-3.601.367-1.167.202-2.21.535-3.14 1.005-.927.472-1.671 1.114-2.225 1.932-.56.817-.836 1.88-.836 3.19 0 .968.157 1.81.481 2.526a4.913 4.913 0 0 0 1.356 1.8c.58.484 1.277.844 2.08 1.078.803.235 1.69.352 2.653.352 1.585 0 2.908-.3 3.972-.91 1.064-.604 1.943-1.33 2.636-2.17z"/></g><g><path fill="#0038b9" d="M1045.849 505.008h3.19v2.974c.723-1.063 1.562-1.88 2.53-2.453a5.993 5.993 0 0 1 3.08-.854c.668 0 1.236.05 1.705.146l-.406 3.01a13.41 13.41 0 0 0-.74-.128 5.568 5.568 0 0 0-.819-.058c-.595 0-1.203.106-1.823.319-.616.208-1.199.56-1.741 1.055a5.32 5.32 0 0 0-1.284 1.632c-.307.62-.46 1.342-.46 2.156v11.4h-3.232z"/></g><g><path fill="#0038b9" d="M1059.662 518.597c.221 1.342.787 2.273 1.688 2.805.904.531 2.135.799 3.697.799 1.631 0 2.786-.279 3.469-.836.678-.557 1.019-1.29 1.019-2.208 0-.373-.045-.726-.129-1.059a1.98 1.98 0 0 0-.502-.895c-.246-.256-.595-.484-1.038-.682-.447-.201-1.026-.36-1.745-.484l-2.449-.374c-1.088-.168-2.042-.392-2.861-.663-.813-.272-1.509-.627-2.078-1.06a4.14 4.14 0 0 1-1.283-1.599c-.283-.63-.425-1.393-.425-2.284 0-.887.193-1.683.575-2.372a5.288 5.288 0 0 1 1.598-1.768c.68-.48 1.487-.85 2.412-1.11.929-.26 1.937-.393 3.026-.393 1.387 0 2.545.136 3.47.407.93.279 1.689.645 2.287 1.119a4.91 4.91 0 0 1 1.375 1.668c.316.645.567 1.327.741 2.042l-2.934.484a7.973 7.973 0 0 0-.595-1.371c-.222-.4-.52-.73-.89-.986a4.136 4.136 0 0 0-1.357-.594c-.532-.136-1.195-.206-1.987-.206-.89 0-1.632.08-2.226.242-.593.162-1.07.378-1.43.653-.359.271-.615.572-.763.91-.145.33-.218.685-.218 1.055 0 .396.05.748.146 1.06.098.308.285.58.556.814.273.238.642.44 1.116.612.47.173 1.078.323 1.818.444l2.787.45c2.251.367 3.863 1.013 4.844 1.93.978.916 1.463 2.25 1.463 4.01 0 .815-.16 1.563-.477 2.245a4.984 4.984 0 0 1-1.451 1.782c-.646.51-1.445.901-2.414 1.187-.964.287-2.09.43-3.377.43-1.162 0-2.247-.114-3.252-.334-1-.228-1.885-.576-2.653-1.06a5.638 5.638 0 0 1-1.853-1.914c-.474-.788-.745-1.756-.822-2.896z"/></g><g><path fill="#0038b9" d="M1088.25 521.57a4.794 4.794 0 0 1-1.82-1.562c-.469-.667-.817-1.455-1.04-2.372-.224-.917-.334-1.932-.334-3.047 0-1.115.11-2.13.333-3.047.224-.913.577-1.697 1.056-2.354a5.125 5.125 0 0 1 1.823-1.544c.729-.37 1.612-.553 2.654-.553 1.038 0 1.93.183 2.673.553a5.042 5.042 0 0 1 1.838 1.544c.48.657.835 1.441 1.058 2.354.22.917.334 1.922.334 3.01 0 1.111-.114 2.135-.334 3.066-.223.927-.578 1.723-1.058 2.39a4.956 4.956 0 0 1-1.838 1.563c-.744.366-1.635.553-2.673.553-1.042 0-1.932-.187-2.672-.553zm2.631 3.23c1.438 0 2.735-.241 3.902-.725a8.064 8.064 0 0 0 2.951-2.061c.804-.891 1.423-1.966 1.856-3.23.436-1.261.649-2.684.649-4.268 0-1.562-.21-2.96-.63-4.199-.422-1.235-1.034-2.295-1.838-3.175a8.063 8.063 0 0 0-2.915-2.02c-1.136-.47-2.427-.708-3.861-.708-1.411 0-2.69.246-3.841.726a8.291 8.291 0 0 0-2.953 2.06c-.818.892-1.444 1.97-1.891 3.231-.447 1.262-.672 2.673-.672 4.231 0 1.562.214 2.974.635 4.232.418 1.264 1.023 2.328 1.819 3.193a7.953 7.953 0 0 0 2.896 2.006c1.133.47 2.435.708 3.893.708z"/></g><g><path fill="#0038b9" d="M1104.25 507.571h-3.006v-2.562h3.006v-1.669c0-1.041.153-1.928.466-2.673.309-.74.73-1.352 1.261-1.837a5.147 5.147 0 0 1 1.856-1.078 7.094 7.094 0 0 1 2.247-.352c.568 0 1.11.03 1.632.092.52.062 1.063.18 1.636.352l-.522 2.526a5.756 5.756 0 0 0-1.132-.242 9.412 9.412 0 0 0-1.056-.055c-.865 0-1.61.228-2.23.686-.616.458-.927 1.294-.927 2.508v1.742h4.865v2.562h-4.865v16.636h-3.231z"/></g><g><path fill="#0038b9" d="M904.985 558.094c.103.813.272 1.569.52 2.265a5.085 5.085 0 0 0 1.06 1.779c.46.498 1.038.883 1.742 1.173.708.282 1.58.425 2.619.425 2.082 0 3.55-.579 4.403-1.745.85-1.163 1.28-2.808 1.28-4.936V539.53h3.417v17.783c0 3.142-.807 5.497-2.412 7.055-1.614 1.558-3.814 2.34-6.612 2.34-2.772 0-4.976-.694-6.61-2.08-1.633-1.386-2.586-3.564-2.857-6.533z"/></g><g><path fill="#0038b9" d="M926.409 554.826c.173-1.98.733-3.49 1.687-4.528.953-1.041 2.284-1.562 3.993-1.562.943 0 1.741.15 2.412.448a4.12 4.12 0 0 1 1.633 1.243c.424.531.733 1.17.93 1.91.198.744.294 1.573.294 2.49zm10.765 5.83c-.274 1.038-.777 1.863-1.524 2.468-.74.609-1.915.91-3.524.91-.94 0-1.772-.173-2.485-.521a5.055 5.055 0 0 1-1.8-1.426 6.535 6.535 0 0 1-1.117-2.157 8.973 8.973 0 0 1-.392-2.69h14.26v-1.636c0-1.36-.169-2.61-.502-3.747-.333-1.14-.844-2.127-1.526-2.952-.678-.832-1.547-1.478-2.615-1.95-1.066-.47-2.338-.709-3.823-.709-1.313 0-2.526.232-3.642.69a8.037 8.037 0 0 0-2.874 1.987c-.806.866-1.426 1.944-1.876 3.23-.445 1.287-.668 2.762-.668 4.419 0 3.168.78 5.636 2.343 7.406 1.554 1.771 3.797 2.655 6.717 2.655 2.475 0 4.373-.535 5.697-1.598 1.328-1.064 2.148-2.524 2.471-4.378z"/></g><g><path fill="#0038b9" d="M940.814 546.84h3.528l3.857 15.297 4.418-15.183h3.27l4.31 15.183 3.823-15.297h3.41l-5.6 19.199h-3.42l-4.305-15.297-4.343 15.297h-3.381z"/></g><g><path fill="#0038b9" d="M968.805 546.84h3.234v19.199h-3.234zm-.11-7.31h3.458v3.75h-3.457z"/></g><g><path fill="#0038b9" d="M977.68 560.43c.226 1.341.788 2.276 1.69 2.804.902.536 2.134.8 3.696.8 1.63 0 2.79-.28 3.469-.837.682-.557 1.023-1.29 1.023-2.207a4.34 4.34 0 0 0-.129-1.06 2.046 2.046 0 0 0-.502-.89c-.25-.26-.594-.488-1.04-.686-.446-.202-1.028-.36-1.742-.484l-2.454-.37c-1.09-.173-2.043-.396-2.856-.668-.818-.271-1.511-.627-2.083-1.06a4.113 4.113 0 0 1-1.28-1.598c-.283-.627-.424-1.39-.424-2.284 0-.888.19-1.684.576-2.373a5.256 5.256 0 0 1 1.594-1.767c.68-.477 1.488-.85 2.417-1.111.927-.26 1.933-.393 3.024-.393 1.386 0 2.54.136 3.47.411.93.276 1.689.642 2.284 1.115a4.957 4.957 0 0 1 1.374 1.668c.32.646.568 1.328.74 2.043l-2.932.484a7.493 7.493 0 0 0-.595-1.372 2.87 2.87 0 0 0-.89-.986c-.37-.26-.822-.458-1.354-.594-.532-.136-1.195-.202-1.987-.202-.892 0-1.632.077-2.226.239-.594.16-1.07.377-1.43.652-.362.272-.615.572-.763.91a2.607 2.607 0 0 0-.223 1.056c0 .396.052.747.146 1.06.103.307.29.579.562.817.271.235.64.44 1.114.612.467.169 1.075.32 1.819.444l2.783.447c2.254.367 3.868 1.012 4.846 1.929.976.916 1.465 2.251 1.465 4.01 0 .815-.163 1.567-.482 2.245-.32.682-.803 1.276-1.448 1.782-.645.51-1.449.906-2.412 1.191-.965.283-2.093.426-3.377.426-1.167 0-2.25-.11-3.253-.334-1.005-.223-1.888-.575-2.654-1.06a5.647 5.647 0 0 1-1.855-1.91c-.47-.792-.744-1.76-.818-2.9z"/></g><g><path fill="#0038b9" d="M993.497 539.53h3.23v10.174c.939-1.213 1.973-2.094 3.098-2.64a8.146 8.146 0 0 1 3.583-.818c2.177 0 3.79.595 4.843 1.786 1.053 1.188 1.58 2.93 1.58 5.232v12.775h-3.267v-12.144c0-1.778-.318-3.036-.946-3.766-.63-.73-1.616-1.096-2.95-1.096-.72 0-1.432.125-2.135.374a5.228 5.228 0 0 0-1.914 1.188c-.62.543-1.093 1.118-1.408 1.727-.323.605-.484 1.39-.484 2.354v11.363h-3.23z"/></g><g><path fill="#0038b9" d="M1020.414 539.53h3.415v23.465h13.737l-.52 3.044h-16.632z"/></g><g><path fill="#0038b9" d="M1039.421 546.84h3.234v19.199h-3.234zm-.11-7.31h3.455v3.75h-3.454z"/></g><g><path fill="#0038b9" d="M1047.367 549.408h-3.007v-2.567h3.007v-1.668c0-1.042.154-1.93.466-2.674.307-.74.73-1.352 1.26-1.837a5.124 5.124 0 0 1 1.86-1.077 7.057 7.057 0 0 1 2.244-.353c.568 0 1.115.03 1.63.096.521.059 1.066.176 1.64.349l-.524 2.526a5.973 5.973 0 0 0-1.133-.243 10.403 10.403 0 0 0-1.057-.054c-.865 0-1.61.227-2.228.685-.616.459-.926 1.295-.926 2.508v1.742h4.863v2.567h-4.863v16.631h-3.232z"/></g><g><path fill="#0038b9" d="M1059.1 554.826c.172-1.98.736-3.49 1.684-4.528.955-1.041 2.285-1.562 3.994-1.562.943 0 1.746.15 2.413.448.671.293 1.217.707 1.635 1.243.423.531.73 1.17.93 1.91.195.744.296 1.573.296 2.49zm10.768 5.83c-.275 1.038-.782 1.863-1.525 2.468-.74.609-1.918.91-3.528.91-.939 0-1.767-.173-2.485-.521a5.086 5.086 0 0 1-1.8-1.426c-.485-.61-.855-1.328-1.115-2.157a8.888 8.888 0 0 1-.39-2.69h14.26v-1.636c0-1.36-.169-2.61-.501-3.747-.338-1.14-.849-2.127-1.526-2.952-.682-.832-1.551-1.478-2.619-1.95-1.064-.47-2.339-.709-3.824-.709-1.308 0-2.523.232-3.637.69a7.987 7.987 0 0 0-2.875 1.987c-.806.866-1.43 1.944-1.877 3.23-.443 1.287-.67 2.762-.67 4.419 0 3.168.78 5.636 2.342 7.406 1.558 1.771 3.798 2.655 6.717 2.655 2.48 0 4.374-.535 5.701-1.598 1.324-1.064 2.15-2.524 2.472-4.378z"/></g><g><path fill="#0038b9" d="M1082.933 546.84h3.234v19.199h-3.234zm-.11-7.31h3.458v3.75h-3.458z"/></g><g><path fill="#0038b9" d="M1089.731 546.84h3.191v2.934c.942-1.261 1.98-2.163 3.12-2.71a8.259 8.259 0 0 1 3.601-.818c2.177 0 3.791.595 4.843 1.786 1.052 1.188 1.58 2.93 1.58 5.233v12.774h-3.23v-12.144c0-1.778-.322-3.036-.967-3.765-.639-.73-1.632-1.097-2.968-1.097-.717 0-1.428.125-2.132.374a5.229 5.229 0 0 0-1.915 1.188c-.62.543-1.089 1.119-1.406 1.727-.324.605-.486 1.39-.486 2.354v11.363h-3.231z"/></g><g><path fill="#0038b9" d="M915.088 594.25h9.91v10.618a11.898 11.898 0 0 1-2.207 1.614 15.516 15.516 0 0 1-5.236 1.837c-.927.15-1.836.227-2.728.227-1.954 0-3.695-.315-5.217-.95-1.523-.63-2.809-1.54-3.86-2.728-1.053-1.191-1.853-2.643-2.395-4.363-.547-1.723-.818-3.67-.818-5.848 0-2.226.297-4.206.891-5.94.594-1.73 1.414-3.194 2.467-4.381a10.398 10.398 0 0 1 3.773-2.71c1.46-.62 3.055-.928 4.784-.928 1.486 0 2.799.18 3.936.535 1.14.363 2.116.877 2.915 1.544a8.35 8.35 0 0 1 1.986 2.394c.521.928.918 1.962 1.194 3.099l-3.309.56a9.885 9.885 0 0 0-.8-2.118 5.586 5.586 0 0 0-1.278-1.654c-.521-.459-1.16-.807-1.915-1.057-.751-.245-1.664-.37-2.729-.37-1.384 0-2.595.265-3.636.796a7.285 7.285 0 0 0-2.599 2.248c-.69.964-1.217 2.122-1.577 3.472-.36 1.349-.54 2.838-.54 4.473 0 1.635.176 3.124.522 4.474.345 1.352.886 2.507 1.617 3.471a7.281 7.281 0 0 0 2.728 2.227c1.088.524 2.376.78 3.86.78 1.335 0 2.593-.161 3.766-.484a9.414 9.414 0 0 0 3.176-1.521v-6.347h-6.681z"/></g><g><path fill="#0038b9" d="M930.828 596.662c.171-1.98.733-3.49 1.686-4.527.954-1.042 2.285-1.563 3.994-1.563.941 0 1.74.15 2.412.448a4.155 4.155 0 0 1 1.631 1.243c.426.535.734 1.17.933 1.914.197.74.291 1.569.291 2.485zm10.768 5.83c-.279 1.038-.78 1.863-1.525 2.468-.744.609-1.917.91-3.527.91-.938 0-1.772-.173-2.487-.521a5.098 5.098 0 0 1-1.8-1.427 6.555 6.555 0 0 1-1.114-2.156 8.933 8.933 0 0 1-.389-2.687h14.255v-1.64c0-1.36-.168-2.61-.502-3.746-.334-1.14-.843-2.123-1.525-2.952-.678-.829-1.547-1.478-2.613-1.95-1.065-.47-2.34-.709-3.825-.709-1.313 0-2.526.232-3.641.69a8.079 8.079 0 0 0-2.875 1.988c-.802.865-1.426 1.942-1.874 3.23-.447 1.286-.67 2.76-.67 4.418 0 3.168.782 5.636 2.343 7.406 1.554 1.771 3.798 2.655 6.717 2.655 2.473 0 4.374-.532 5.698-1.599 1.327-1.063 2.149-2.522 2.47-4.378z"/></g><g><path fill="#0038b9" d="M947.796 588.68h3.19v2.97c.718-1.063 1.56-1.881 2.53-2.453.96-.565 1.99-.85 3.075-.85.671 0 1.24.047 1.71.146l-.407 3.007c-.25-.048-.495-.092-.741-.128a5.63 5.63 0 0 0-.819-.06c-.593 0-1.2.11-1.822.32-.615.209-1.199.564-1.744 1.056a5.355 5.355 0 0 0-1.28 1.635c-.307.62-.461 1.338-.461 2.156v11.396h-3.23z"/></g><g><path fill="#0038b9" d="M959.9 588.68h3.19v2.93c.865-1.184 1.822-2.068 2.86-2.65 1.038-.58 2.1-.878 3.193-.878 1.435 0 2.593.312 3.472.932.877.616 1.53 1.507 1.948 2.673.866-1.188 1.86-2.083 2.97-2.691a7.321 7.321 0 0 1 3.563-.914c1.885 0 3.337.518 4.363 1.544 1.028 1.03 1.54 2.68 1.54 4.957v13.292h-3.228v-12.55c0-.866-.075-1.592-.222-2.171-.15-.583-.365-1.042-.652-1.376a2.29 2.29 0 0 0-1.056-.703 4.725 4.725 0 0 0-1.448-.206c-.572 0-1.166.103-1.783.297-.618.199-1.227.547-1.818 1.038a5.314 5.314 0 0 0-1.228 1.525c-.322.594-.48 1.276-.48 2.043v12.103h-3.23v-12.51c0-1.683-.295-2.857-.874-3.51-.583-.656-1.42-.986-2.504-.986-1.265 0-2.449.521-3.564 1.562-.421.393-.824.902-1.205 1.522-.39.62-.577 1.448-.577 2.486v11.436h-3.23z"/></g><g><path fill="#0038b9" d="M1002.26 600.414c0 1.631-.532 2.922-1.596 3.857-1.062.942-2.548 1.411-4.454 1.411-1.338 0-2.299-.29-2.879-.869-.579-.582-.872-1.356-.872-2.32 0-.646.106-1.214.319-1.71.204-.494.566-.909 1.074-1.246.506-.33 1.195-.597 2.06-.795.865-.198 1.955-.323 3.267-.37l3.081-.114zm.073 7.46h3.12v-12.473c0-1.14-.132-2.167-.388-3.083-.26-.914-.685-1.683-1.28-2.3-.598-.62-1.37-1.096-2.321-1.433-.954-.334-2.123-.503-3.51-.503-2.254 0-4.036.408-5.346 1.21-1.315.804-2.14 2.087-2.488 3.844l2.932.333c.22-.891.693-1.588 1.413-2.097.718-.51 1.84-.763 3.376-.763 1.558 0 2.688.363 3.377 1.078.697.719 1.042 1.892 1.042 3.527v.745l-3.303.11c-1.24.05-2.439.172-3.602.37-1.165.198-2.211.531-3.139 1-.927.474-1.67 1.116-2.225 1.937-.56.814-.835 1.877-.835 3.19 0 .964.157 1.807.48 2.523a4.88 4.88 0 0 0 1.355 1.8c.58.484 1.278.843 2.08 1.077.803.24 1.69.353 2.655.353 1.585 0 2.907-.301 3.971-.91 1.063-.604 1.947-1.327 2.636-2.17z"/></g><g><path fill="#0038b9" d="M1008.868 588.68h3.192v2.93c.941-1.258 1.978-2.16 3.12-2.71a8.335 8.335 0 0 1 3.6-.818c2.179 0 3.795.598 4.849 1.786 1.052 1.188 1.576 2.934 1.576 5.236v12.77h-3.232v-12.143c0-1.778-.318-3.036-.964-3.766-.64-.729-1.635-1.096-2.97-1.096-.718 0-1.425.125-2.133.374a5.275 5.275 0 0 0-1.911 1.188c-.62.543-1.091 1.119-1.411 1.727-.323.605-.483 1.394-.483 2.354v11.363h-3.233z"/></g><g><path fill="#0038b9" d="M1027.842 595.401h10.916v3.227h-10.916z"/></g><g><path fill="#0038b9" d="M1043.62 602.269c.223 1.338.788 2.273 1.69 2.8.902.536 2.134.8 3.695.8 1.632 0 2.787-.278 3.47-.832.677-.56 1.019-1.294 1.019-2.21 0-.375-.045-.723-.129-1.06a1.972 1.972 0 0 0-.502-.892c-.246-.26-.595-.487-1.038-.685-.447-.198-1.026-.356-1.744-.484l-2.45-.37c-1.089-.173-2.042-.396-2.86-.668-.815-.271-1.51-.627-2.08-1.06a4.17 4.17 0 0 1-1.283-1.594c-.282-.631-.426-1.394-.426-2.285 0-.89.195-1.683.576-2.376a5.266 5.266 0 0 1 1.599-1.764c.679-.48 1.485-.854 2.413-1.114a11.325 11.325 0 0 1 3.024-.393c1.387 0 2.545.14 3.47.411.93.276 1.689.646 2.288 1.115a4.912 4.912 0 0 1 1.375 1.672c.315.642.568 1.324.74 2.039l-2.933.483a8.15 8.15 0 0 0-.594-1.37 3 3 0 0 0-.89-.987 4.161 4.161 0 0 0-1.358-.594c-.531-.135-1.196-.202-1.987-.202-.891 0-1.632.077-2.225.239-.595.161-1.072.381-1.431.652-.36.272-.615.572-.763.91a2.611 2.611 0 0 0-.218 1.056c0 .396.05.748.145 1.06.1.308.287.579.557.817.272.235.643.44 1.115.612.47.173 1.078.323 1.82.444l2.786.447c2.25.367 3.864 1.012 4.843 1.929.978.916 1.463 2.251 1.463 4.011 0 .818-.157 1.566-.476 2.244-.323.682-.807 1.276-1.451 1.786-.647.506-1.446.902-2.414 1.188-.965.282-2.09.425-3.377.425a14.96 14.96 0 0 1-3.252-.334c-1-.223-1.886-.575-2.652-1.06a5.634 5.634 0 0 1-1.854-1.91c-.473-.792-.745-1.76-.822-2.896z"/></g><g><path fill="#0038b9" d="M1062.623 597.517c0-1.115.15-2.101.446-2.952.297-.854.712-1.562 1.245-2.115a5.267 5.267 0 0 1 1.876-1.265 6.315 6.315 0 0 1 2.34-.425c.667 0 1.316.124 1.947.374.634.245 1.194.652 1.689 1.22.495.573.899 1.331 1.206 2.285.312.953.466 2.137.466 3.545 0 1.386-.143 2.563-.425 3.528-.286.964-.678 1.752-1.173 2.357a4.274 4.274 0 0 1-1.763 1.316 5.903 5.903 0 0 1-2.208.411 6.396 6.396 0 0 1-2.267-.392 4.346 4.346 0 0 1-1.78-1.244c-.497-.568-.885-1.29-1.167-2.17-.29-.88-.432-1.936-.432-3.175zm-3.19 17.563h3.23v-9.585c.844 1.115 1.785 1.892 2.842 2.322a8.379 8.379 0 0 0 3.208.652c1.312 0 2.492-.238 3.545-.722a7.592 7.592 0 0 0 2.694-2.065c.742-.89 1.31-1.972 1.706-3.244.397-1.276.598-2.707.598-4.29 0-1.486-.17-2.842-.502-4.067-.337-1.224-.844-2.284-1.523-3.175a7.04 7.04 0 0 0-2.562-2.075c-1.03-.495-2.223-.749-3.583-.749-1.411 0-2.644.29-3.697.859-1.051.568-1.971 1.397-2.766 2.49v-2.75h-3.19z"/></g><g><path fill="#0038b9" d="M1082.825 596.662c.173-1.98.734-3.49 1.687-4.527.953-1.042 2.284-1.563 3.993-1.563.943 0 1.746.15 2.412.448.671.293 1.214.711 1.633 1.243.425.535.733 1.17.93 1.914.199.74.294 1.569.294 2.485zm10.769 5.83c-.279 1.038-.78 1.863-1.525 2.468-.744.609-1.918.91-3.527.91-.94 0-1.771-.173-2.486-.521a5.091 5.091 0 0 1-1.8-1.427 6.513 6.513 0 0 1-1.115-2.156 8.925 8.925 0 0 1-.389-2.687h14.256v-1.64c0-1.36-.17-2.61-.498-3.746-.337-1.14-.848-2.123-1.525-2.952-.683-.829-1.552-1.478-2.62-1.95-1.062-.47-2.339-.709-3.823-.709-1.313 0-2.527.232-3.638.69a8.057 8.057 0 0 0-2.877 1.988c-.804.865-1.427 1.942-1.874 3.23-.444 1.286-.67 2.76-.67 4.418 0 3.168.78 5.636 2.34 7.406 1.556 1.771 3.8 2.655 6.72 2.655 2.474 0 4.374-.532 5.696-1.599 1.327-1.063 2.15-2.522 2.472-4.378z"/></g><g><path fill="#0038b9" d="M1111.672 600.414c0 1.631-.531 2.922-1.596 3.857-1.063.942-2.55 1.411-4.455 1.411-1.339 0-2.299-.29-2.878-.869-.58-.582-.876-1.356-.876-2.32 0-.646.11-1.214.318-1.71.21-.494.57-.909 1.076-1.246.51-.33 1.199-.597 2.064-.795.864-.198 1.955-.323 3.262-.37l3.085-.114zm.073 7.46h3.117v-12.473c0-1.14-.128-2.167-.386-3.083-.26-.914-.69-1.683-1.282-2.3-.595-.62-1.368-1.096-2.318-1.433-.953-.334-2.127-.503-3.51-.503-2.254 0-4.036.408-5.349 1.21-1.313.804-2.137 2.087-2.485 3.844l2.933.333c.218-.891.692-1.588 1.407-2.097.723-.51 1.845-.763 3.381-.763 1.559 0 2.688.363 3.376 1.078.698.719 1.043 1.892 1.043 3.527v.745l-3.304.11a28.436 28.436 0 0 0-3.6.37c-1.167.198-2.212.531-3.14 1-.927.474-1.67 1.116-2.225 1.937-.56.814-.835 1.877-.835 3.19 0 .964.157 1.807.479 2.523.323.718.774 1.32 1.358 1.8.578.484 1.275.843 2.074 1.077.807.24 1.69.353 2.659.353 1.583 0 2.908-.301 3.97-.91 1.063-.604 1.944-1.327 2.637-2.17z"/></g><g><path fill="#0038b9" d="M1118.283 581.365h3.19v15.444l8.986-8.129h3.898l-6.867 6.424 7.612 12.77h-3.678l-6.347-10.878-3.604 3.23v7.648h-3.19z"/></g><g><path fill="#0038b9" d="M1136.285 588.68h3.235v19.194h-3.235zm-.11-7.315h3.455v3.751h-3.455z"/></g><g><path fill="#0038b9" d="M1143.084 588.68h3.19v2.93c.943-1.258 1.98-2.16 3.117-2.71a8.346 8.346 0 0 1 3.605-.818c2.178 0 3.79.598 4.841 1.786 1.053 1.188 1.581 2.934 1.581 5.236v12.77h-3.23v-12.143c0-1.778-.322-3.036-.967-3.766-.642-.729-1.632-1.096-2.967-1.096-.722 0-1.429.125-2.134.374a5.259 5.259 0 0 0-1.914 1.188c-.62.543-1.093 1.119-1.412 1.727-.318.605-.48 1.394-.48 2.354v11.363h-3.23z"/></g><g><path fill="#0038b9" d="M1176.721 598.184c0 1.115-.147 2.087-.447 2.915-.298.829-.704 1.515-1.225 2.06a4.957 4.957 0 0 1-1.837 1.225 6.403 6.403 0 0 1-2.317.407 5.61 5.61 0 0 1-1.988-.366 4.436 4.436 0 0 1-1.727-1.192c-.498-.542-.898-1.261-1.204-2.156-.314-.887-.468-1.976-.468-3.263 0-1.265.142-2.34.426-3.23.287-.891.683-1.621 1.188-2.193a4.557 4.557 0 0 1 1.785-1.243 6.1 6.1 0 0 1 2.207-.388 6.47 6.47 0 0 1 2.134.352 4.468 4.468 0 0 1 1.8 1.17c.522.542.928 1.242 1.226 2.096.3.855.447 1.914.447 3.172zm-13.89 11.473c.251 2.08 1.094 3.571 2.53 4.473 1.434.903 3.415 1.357 5.94 1.357 1.757 0 3.191-.25 4.306-.744 1.114-.495 1.987-1.207 2.617-2.134.635-.928 1.063-2.057 1.298-3.381.238-1.32.357-2.816.357-4.473V588.68h-3.193v2.454c-.87-1.167-1.828-1.966-2.88-2.399-1.052-.432-2.113-.653-3.175-.653-1.313 0-2.495.24-3.541.708a7.662 7.662 0 0 0-2.697 1.988c-.74.854-1.311 1.884-1.708 3.083-.395 1.2-.594 2.53-.594 3.99 0 1.338.169 2.588.504 3.75.332 1.163.835 2.186 1.502 3.062a7.048 7.048 0 0 0 2.544 2.079c1.027.51 2.233.759 3.62.759 1.41 0 2.643-.282 3.696-.85 1.052-.57 1.946-1.376 2.691-2.413v2.038c0 2.156-.389 3.795-1.17 4.921-.78 1.126-2.186 1.69-4.217 1.69-1.656 0-2.873-.245-3.656-.744-.78-.495-1.305-1.32-1.576-2.486z"/></g><g><path fill="#0038b9" d="M903.463 623.201h3.417v23.463h13.74l-.526 3.043h-16.631z"/></g><g><path fill="#0038b9" d="M934.651 642.245c0 1.632-.532 2.923-1.598 3.861-1.063.943-2.55 1.408-4.45 1.408-1.343 0-2.3-.29-2.883-.868-.58-.583-.873-1.357-.873-2.321 0-.642.107-1.214.32-1.705.208-.5.564-.914 1.073-1.247.51-.334 1.195-.598 2.064-.8.866-.197 1.955-.322 3.264-.37l3.083-.113zm.075 7.462h3.114v-12.474c0-1.14-.127-2.167-.384-3.083-.263-.913-.689-1.683-1.283-2.3-.594-.619-1.367-1.096-2.32-1.433-.954-.33-2.124-.499-3.51-.499-2.251 0-4.032.404-5.346 1.207-1.312.803-2.14 2.086-2.49 3.846l2.935.33c.223-.891.696-1.588 1.41-2.097.72-.51 1.845-.763 3.381-.763 1.559 0 2.685.363 3.378 1.078.692.719 1.04 1.895 1.04 3.527v.745l-3.303.11c-1.24.05-2.438.172-3.605.37-1.161.202-2.206.531-3.134 1-.928.474-1.673 1.116-2.23 1.937-.557.814-.831 1.877-.831 3.19 0 .968.157 1.807.48 2.523.322.722.774 1.32 1.356 1.803.58.48 1.272.84 2.075 1.075.807.238 1.692.352 2.659.352 1.58 0 2.908-.301 3.97-.91 1.065-.605 1.945-1.327 2.638-2.17z"/></g><g><path fill="#0038b9" d="M941.262 630.513h3.191v2.933c.94-1.262 1.979-2.163 3.116-2.713a8.34 8.34 0 0 1 3.605-.815c2.177 0 3.79.595 4.843 1.782 1.053 1.188 1.58 2.934 1.58 5.236v12.77h-3.23v-12.14c0-1.781-.323-3.039-.968-3.769-.641-.73-1.632-1.096-2.966-1.096-.724 0-1.43.129-2.134.374a5.252 5.252 0 0 0-1.915 1.188c-.619.547-1.092 1.119-1.412 1.727-.317.605-.48 1.394-.48 2.354v11.363h-3.23z"/></g><g><path fill="#0038b9" d="M974.933 640.834c0 1.36-.19 2.49-.576 3.377a5.643 5.643 0 0 1-1.69 2.23c-.568.42-1.137.718-1.708.89-.57.176-1.21.26-1.93.26a5.242 5.242 0 0 1-1.946-.373c-.634-.246-1.203-.654-1.709-1.225-.51-.568-.916-1.335-1.224-2.303-.312-.96-.466-2.148-.466-3.56 0-1.36.142-2.519.425-3.472.286-.953.682-1.731 1.188-2.34.51-.605 1.103-1.045 1.786-1.32a5.888 5.888 0 0 1 2.208-.407 6.2 6.2 0 0 1 1.835.26c.563.173 1.108.481 1.65.928a5.072 5.072 0 0 1 1.66 2.171c.327.858.497 2.05.497 3.586zm-.037 8.873h3.157v-26.506h-3.23v9.65c-.891-1.136-1.86-1.91-2.897-2.32-1.037-.41-2.064-.613-3.083-.613-1.335 0-2.53.235-3.578.705a7.216 7.216 0 0 0-2.678 2.046c-.73.89-1.29 1.972-1.69 3.244-.391 1.276-.593 2.706-.593 4.29 0 1.412.16 2.732.483 3.971.323 1.24.817 2.31 1.485 3.212a7.095 7.095 0 0 0 2.545 2.134c1.027.52 2.248.781 3.66.781 1.406 0 2.631-.29 3.674-.873 1.036-.579 1.953-1.404 2.745-2.467z"/></g><g><path fill="#0038b9" d="M983.656 644.1c.227 1.34.789 2.274 1.69 2.802.903.536 2.133.8 3.696.8 1.633 0 2.79-.28 3.468-.833.684-.56 1.024-1.294 1.024-2.211 0-.37-.044-.722-.132-1.06a2.001 2.001 0 0 0-.498-.89c-.25-.257-.594-.488-1.038-.686-.451-.198-1.03-.356-1.746-.48l-2.452-.374c-1.088-.173-2.042-.393-2.856-.668-.819-.271-1.512-.627-2.083-1.06a4.117 4.117 0 0 1-1.28-1.594c-.282-.631-.43-1.394-.43-2.285 0-.887.195-1.682.58-2.376.381-.693.917-1.28 1.596-1.764.682-.48 1.488-.854 2.412-1.114.928-.257 1.94-.389 3.028-.389 1.386 0 2.541.136 3.469.407.932.276 1.69.645 2.284 1.119a4.91 4.91 0 0 1 1.375 1.668 9.75 9.75 0 0 1 .741 2.039l-2.932.483a8.167 8.167 0 0 0-.595-1.37 2.868 2.868 0 0 0-.89-.983c-.372-.264-.826-.459-1.354-.594-.536-.14-1.195-.206-1.988-.206-.891 0-1.631.077-2.225.239-.599.16-1.071.381-1.43.652-.362.272-.617.572-.762.91-.148.333-.224.689-.224 1.055 0 .4.05.749.146 1.06.103.309.287.58.562.818.27.235.64.44 1.11.612.47.173 1.078.323 1.822.444l2.783.447c2.255.37 3.87 1.012 4.847 1.929.976.916 1.463 2.255 1.463 4.01 0 .819-.161 1.567-.478 2.245-.325.682-.809 1.276-1.45 1.786-.646.506-1.448.902-2.417 1.188-.96.282-2.089.425-3.373.425-1.164 0-2.25-.11-3.252-.334-1.004-.223-1.889-.575-2.655-1.06a5.612 5.612 0 0 1-1.855-1.91c-.473-.792-.744-1.76-.818-2.896z"/></g></g><g><g><g><g><path fill="#0038b9" d="M373.464 564.485v-21.138h10.574c2.597 0 4.74.236 6.432.68 1.701.48 3.041 1.143 4.044 2.005a6.912 6.912 0 0 1 2.09 3.19c.403 1.273.604 2.737.604 4.393 0 1.587-.182 3.077-.55 4.437-.374 1.36-1.055 2.51-2.05 3.443-.991.924-2.34 1.656-4.034 2.197-1.7.531-3.842.793-6.432.793zm-14.662 37.793h14.662v-25.416h11.175c5.315 0 9.718-.645 13.214-1.9 3.487-1.273 6.283-2.98 8.375-5.143 2.092-2.17 3.56-4.671 4.394-7.53.829-2.85 1.247-5.858 1.247-8.979 0-2.91-.418-5.726-1.247-8.428-.835-2.694-2.302-5.038-4.394-7.077-2.092-2.031-4.917-3.653-8.472-4.882-3.562-1.238-8.061-1.847-13.52-1.847h-25.434z"/></g><g><path fill="#0038b9" d="M416.556 550.226h13.554v7.269c1.738-2.72 3.83-4.75 6.287-6.127 2.464-1.36 5.054-2.032 7.783-2.032 1.333 0 2.425.044 3.294.14.863.095 1.631.21 2.293.357l-1.7 12.656c-1.594-.4-3.557-.6-5.883-.6-1.533 0-2.988.19-4.386.557-1.401.357-2.657 1.037-3.793 2.04-1.191 1.063-2.082 2.266-2.638 3.59a10.359 10.359 0 0 0-.845 4.096v30.107h-13.966z"/></g><g><path fill="#0038b9" d="M477.493 592.718c-4.06 0-7.05-1.42-8.976-4.245-1.934-2.833-2.893-6.93-2.893-12.325 0-5.308.975-9.37 2.945-12.16 1.953-2.798 4.932-4.192 8.924-4.192 3.991 0 6.964 1.394 8.927 4.193 1.95 2.789 2.94 6.85 2.94 12.159 0 5.326-.99 9.422-2.94 12.273-1.963 2.85-4.936 4.297-8.927 4.297zm0 11.175c3.991 0 7.61-.646 10.87-1.91 3.253-1.264 6.03-3.086 8.327-5.482 2.3-2.388 4.06-5.3 5.288-8.734 1.23-3.417 1.84-7.288 1.84-11.62 0-4.244-.593-8.088-1.785-11.513-1.204-3.418-2.947-6.303-5.24-8.673-2.3-2.37-5.073-4.166-8.325-5.448-3.261-1.246-6.92-1.891-10.975-1.891-3.992 0-7.619.645-10.874 1.89-3.254 1.283-6.028 3.078-8.327 5.449-2.292 2.37-4.061 5.255-5.291 8.673-1.228 3.425-1.842 7.269-1.842 11.514 0 8.926 2.298 15.768 6.89 20.545 4.585 4.794 11.067 7.2 19.444 7.2z"/></g><g><path fill="#0038b9" d="M510.301 543.644h14.364v-12.568h-14.364zm-13.659 75.396c1.925.6 3.774 1.037 5.526 1.3 1.77.261 3.488.4 5.146.4 5.645 0 9.924-1.447 12.81-4.34 2.895-2.903 4.343-7.54 4.343-13.912v-52.263h-13.964v52.55c0 2.738-.55 4.507-1.642 5.352-1.106.828-2.543 1.239-4.339 1.239-1.797 0-3.757-.27-5.884-.794z"/></g><g><path fill="#0038b9" d="M547.305 570.473c.069-1.602.364-3.076.898-4.445a11.012 11.012 0 0 1 2.248-3.582c.956-1.037 2.134-1.848 3.538-2.45 1.395-.6 3.026-.888 4.883-.888 3.73 0 6.466.993 8.236 2.98 1.761 1.987 2.64 4.786 2.64 8.385zm21.748 15.56c-1.003 4.645-4.265 6.972-9.783 6.972-3.983 0-6.979-1.176-8.967-3.53-1.997-2.37-3.06-5.63-3.198-9.823h36.104v-5.588c0-7.782-2.006-13.963-6.034-18.556-4.026-4.585-10.023-6.886-18-6.886-3.861 0-7.382.619-10.571 1.848-3.191 1.228-5.937 3.05-8.23 5.448-2.29 2.388-4.078 5.298-5.334 8.716-1.264 3.425-1.892 7.33-1.892 11.732 0 8.768 2.17 15.55 6.53 20.327 4.357 4.794 10.852 7.2 19.496 7.2 7.183 0 12.65-1.517 16.409-4.55 3.753-3.026 6.1-7.462 7.032-13.31z"/></g><g><path fill="#0038b9" d="M638.46 583.444c-.531 6.24-2.665 11.218-6.425 14.904-3.765 3.696-9.394 5.545-16.908 5.545-4.394 0-8.177-.68-11.366-2.005-3.2-1.335-5.805-3.191-7.835-5.588-2.024-2.397-3.54-5.282-4.534-8.672-1.002-3.392-1.502-7.149-1.502-11.262 0-4.131.585-7.906 1.755-11.34 1.158-3.408 2.84-6.345 5.028-8.769 2.198-2.423 4.892-4.297 8.081-5.63 3.197-1.342 6.843-2.005 10.974-2.005 3.522 0 6.597.453 9.221 1.351 2.623.898 4.837 2.152 6.633 3.74a16.56 16.56 0 0 1 4.194 5.744c.996 2.222 1.654 4.672 1.987 7.32l-14.058 1.893c-.333-2.65-1.099-4.804-2.297-6.433-1.192-1.621-3.258-2.44-6.177-2.44-2.134 0-3.886.444-5.292 1.35-1.392.898-2.51 2.101-3.337 3.644-.837 1.525-1.412 3.268-1.744 5.23a36.86 36.86 0 0 0-.495 6.127c0 2.205.165 4.297.495 6.302.332 1.987.9 3.748 1.694 5.273a9.307 9.307 0 0 0 3.291 3.644c1.397.897 3.156 1.35 5.284 1.35 2.79 0 4.952-.801 6.487-2.405 1.522-1.596 2.42-3.888 2.69-6.868z"/></g><g><path fill="#0038b9" d="M649.625 561.095h-8.174v-10.87h8.174v-13.859h13.972v13.86h11.968v10.869h-11.968v24.039c0 2.728.567 4.576 1.694 5.526 1.13.967 2.595 1.456 4.383 1.456.94 0 1.882-.06 2.848-.157.968-.096 1.909-.279 2.844-.54l1.996 10.267c-1.936.592-3.809 1.02-5.64 1.255-1.822.227-3.573.34-5.23.34-5.727 0-9.963-1.359-12.715-4.087-2.766-2.729-4.152-7.314-4.152-13.764z"/></g></g><g><path fill="#0038b9" d="M689.58 583.138v-13.763h131.002v13.763z"/></g></g></g></g></svg>