<svg xmlns="http://www.w3.org/2000/svg" width="211" height="60" viewBox="0 0 211 60"><g><g><g><g><g><g><path fill="#fff" d="M9.791 14.923c.05.649.259 1.122.627 1.415.37.294.912.44 1.63.44.344 0 .633-.034.87-.108.235-.073.427-.17.574-.295.148-.123.253-.268.317-.435.064-.167.097-.349.097-.547 0-.273-.104-.532-.31-.773-.206-.241-.585-.415-1.136-.523l-1.371-.25a8 8 0 0 1-1.43-.385 3.283 3.283 0 0 1-1.04-.612 2.427 2.427 0 0 1-.64-.92c-.149-.364-.221-.796-.221-1.298 0-.5.1-.943.302-1.326a2.69 2.69 0 0 1 .84-.958c.358-.256.789-.45 1.29-.583a6.54 6.54 0 0 1 1.65-.198c.768 0 1.407.088 1.917.265.51.176.924.41 1.24.7.313.29.547.627.7 1.008.152.386.252.785.302 1.197L13.92 11c-.108-.58-.317-.997-.627-1.254-.31-.256-.778-.381-1.407-.381a3.75 3.75 0 0 0-.922.094 1.82 1.82 0 0 0-.582.252.847.847 0 0 0-.31.36c-.06.139-.088.28-.088.427 0 .395.11.69.332.885.22.197.596.35 1.127.458l1.445.28c1.14.226 1.975.592 2.506 1.099.53.505.796 1.235.796 2.188 0 .462-.086.887-.257 1.276a2.852 2.852 0 0 1-.768 1.018c-.339.29-.764.514-1.275.677-.51.162-1.11.242-1.798.242-1.436 0-2.534-.307-3.296-.92-.761-.615-1.171-1.54-1.23-2.78z"/></g><g><path fill="#fff" d="M8.228 24.6h2.198v4.069h86.74V24.6h2.198v10.524h-2.197v-4.421h-86.74v4.421H8.227z"/></g><g><path fill="#fff" d="M94.756 46.307v-3.124h1.564c.382 0 .7.035.95.102.251.069.45.167.597.295.148.128.25.286.31.472.06.188.088.405.088.65 0 .234-.027.454-.082.655a1.05 1.05 0 0 1-.301.509 1.533 1.533 0 0 1-.597.324c-.251.08-.567.117-.95.117zm-2.167 5.587h2.167v-3.758h1.652c.785 0 1.437-.094 1.953-.279.515-.189.929-.44 1.238-.761.31-.32.525-.69.65-1.113.121-.421.184-.866.184-1.327 0-.43-.063-.847-.185-1.245a2.46 2.46 0 0 0-.649-1.047c-.31-.3-.727-.54-1.252-.722-.527-.182-1.193-.273-1.998-.273h-3.76z"/></g></g></g><g><path fill="none" stroke="#fff" stroke-miterlimit="20" stroke-width="2" d="M92.191 1v0L107 15.809v42.653H15.809v0L1 43.652v0V1v0z"/></g></g><g><g><g><path fill="#fff" d="M123.931 6.564l-1.911 1.152-.457-.781 2.477-1.538h.974v8.308h-1.083z"/></g><g><path fill="#fff" d="M129.041 13.705c.385-1.299.82-2.558 1.31-3.78a35.376 35.376 0 0 1 1.67-3.578h-4.483v-.95h5.661v.89a36.139 36.139 0 0 0-1.7 3.607 33.935 33.935 0 0 0-1.28 3.81z"/></g><g><path fill="#fff" d="M136.29 12.748a1.649 1.649 0 0 1-.595-.673 3.656 3.656 0 0 1-.325-1.077 9.154 9.154 0 0 1-.102-1.442c0-.536.034-1.018.102-1.442.068-.424.176-.786.325-1.082a1.66 1.66 0 0 1 .596-.68c.248-.154.552-.233.913-.233.36 0 .663.079.907.233.246.157.441.384.59.68.149.296.257.658.325 1.082.067.424.102.906.102 1.442 0 .537-.035 1.019-.102 1.442a3.619 3.619 0 0 1-.326 1.077 1.646 1.646 0 0 1-.589.673c-.244.157-.546.235-.907.235-.36 0-.665-.078-.913-.235zm2.182.914c.382-.172.704-.437.968-.793.265-.357.465-.81.601-1.36.136-.548.205-1.199.205-1.953 0-.752-.069-1.407-.205-1.96-.136-.553-.335-1.01-.596-1.37a2.397 2.397 0 0 0-.949-.8 2.985 2.985 0 0 0-1.268-.257 3.03 3.03 0 0 0-1.274.258c-.377.172-.7.438-.969.8-.268.36-.474.816-.618 1.37-.145.552-.217 1.207-.217 1.959 0 1.508.266 2.611.8 3.313.532.7 1.276 1.052 2.23 1.052a3.1 3.1 0 0 0 1.292-.259z"/></g><g><path fill="#fff" d="M142.925 12.748a1.648 1.648 0 0 1-.594-.673 3.656 3.656 0 0 1-.325-1.077 9.138 9.138 0 0 1-.101-1.442c0-.536.033-1.018.101-1.442.069-.424.177-.786.325-1.082a1.66 1.66 0 0 1 .594-.68c.25-.154.555-.233.916-.233.36 0 .662.079.906.233.245.157.441.384.59.68.148.296.257.658.324 1.082.068.424.102.906.102 1.442 0 .537-.034 1.019-.102 1.442a3.62 3.62 0 0 1-.324 1.077 1.655 1.655 0 0 1-.59.673c-.244.157-.546.235-.906.235-.361 0-.666-.078-.916-.235zm2.183.914c.38-.172.704-.437.969-.793.264-.357.464-.81.6-1.36.137-.548.204-1.199.204-1.953 0-.752-.067-1.407-.203-1.96-.137-.553-.336-1.01-.596-1.37a2.405 2.405 0 0 0-.95-.8 2.982 2.982 0 0 0-1.268-.257 3.03 3.03 0 0 0-1.274.258c-.378.172-.7.438-.968.8-.269.36-.476.816-.619 1.37-.144.552-.216 1.207-.216 1.959 0 1.508.266 2.611.8 3.313.531.7 1.276 1.052 2.228 1.052.482 0 .912-.087 1.293-.259z"/></g><g><path fill="#fff" d="M152.268 10.062l-2.995-4.941h1.276l2.272 3.967 2.332-3.967h1.166l-2.933 4.941v3.643h-1.118z"/></g><g><path fill="#fff" d="M156.186 10.074c.056-.642.239-1.131.548-1.468.308-.337.74-.505 1.292-.505.305 0 .566.048.782.146.215.096.393.23.529.402a1.7 1.7 0 0 1 .299.618c.066.242.097.51.097.807zm3.488 1.888c-.09.336-.253.602-.495.8-.239.195-.62.292-1.14.292-.306 0-.575-.056-.807-.168a1.66 1.66 0 0 1-.583-.462 2.124 2.124 0 0 1-.36-.698 2.912 2.912 0 0 1-.126-.87h4.617v-.53c0-.442-.054-.845-.162-1.215a2.677 2.677 0 0 0-.494-.955 2.246 2.246 0 0 0-.847-.63c-.345-.154-.759-.23-1.238-.23-.425 0-.818.074-1.179.223a2.61 2.61 0 0 0-.932.642c-.26.282-.462.63-.606 1.046-.146.418-.217.894-.217 1.432 0 1.025.253 1.825.758 2.4.505.571 1.23.857 2.176.857.801 0 1.416-.172 1.844-.517.43-.343.695-.818.8-1.417z"/></g><g><path fill="#fff" d="M165.527 11.288c0 .53-.172.946-.515 1.25-.345.305-.827.456-1.443.456-.434 0-.744-.093-.932-.282-.188-.188-.283-.44-.283-.75 0-.209.035-.393.104-.553a.893.893 0 0 1 .347-.404c.165-.108.386-.194.667-.258.28-.064.634-.104 1.058-.12l.997-.036zm.026 2.417h1.01V9.664c0-.367-.042-.7-.127-.998a1.719 1.719 0 0 0-.414-.744 1.891 1.891 0 0 0-.752-.463c-.307-.109-.688-.162-1.137-.162-.728 0-1.305.13-1.73.39-.426.26-.693.676-.805 1.244l.95.108c.072-.287.224-.514.456-.679.233-.163.597-.246 1.094-.246.505 0 .869.117 1.093.35.224.231.336.612.336 1.14v.242l-1.068.034c-.4.018-.79.057-1.166.12a3.631 3.631 0 0 0-1.017.325c-.3.154-.54.362-.721.627-.18.263-.27.609-.27 1.034 0 .312.052.585.156.817.105.233.25.426.439.583.19.157.414.272.673.348.26.076.547.115.859.115.513 0 .941-.099 1.286-.295.346-.196.63-.43.855-.703z"/></g><g><path fill="#fff" d="M167.669 7.488h1.032v.963a2.57 2.57 0 0 1 .819-.795c.313-.183.644-.276.998-.276.216 0 .4.017.553.048l-.134.975a4.626 4.626 0 0 0-.24-.043 1.813 1.813 0 0 0-.852.084 1.6 1.6 0 0 0-.565.344 1.67 1.67 0 0 0-.416.527c-.1.202-.15.434-.15.699v3.69h-1.045z"/></g><g><path fill="#fff" d="M172.141 11.888c.07.433.254.736.546.908.293.173.69.258 1.196.258.53 0 .904-.09 1.125-.27.22-.18.33-.418.33-.714 0-.122-.015-.235-.042-.344a.676.676 0 0 0-.161-.288 1.1 1.1 0 0 0-.337-.223 2.444 2.444 0 0 0-.567-.156l-.793-.12a5.71 5.71 0 0 1-.924-.217 2.3 2.3 0 0 1-.675-.342 1.345 1.345 0 0 1-.416-.517 1.813 1.813 0 0 1-.137-.739c0-.288.063-.545.187-.77.124-.224.296-.415.517-.57a2.5 2.5 0 0 1 .781-.362c.301-.084.627-.125.981-.125.449 0 .823.044 1.122.13.302.09.549.21.74.363.194.152.34.332.445.54.104.208.184.428.241.66l-.95.157a2.603 2.603 0 0 0-.193-.445.96.96 0 0 0-.287-.318 1.336 1.336 0 0 0-.44-.192 2.633 2.633 0 0 0-.643-.066c-.289 0-.53.026-.722.078a1.317 1.317 0 0 0-.462.211.75.75 0 0 0-.246.294.835.835 0 0 0-.073.342c0 .13.017.243.048.343.033.1.092.188.182.265.087.076.207.143.359.199.154.056.349.104.59.143l.902.145c.73.12 1.252.329 1.567.624.318.298.476.73.476 1.3a1.7 1.7 0 0 1-.155.726c-.105.22-.262.415-.47.579a2.284 2.284 0 0 1-.782.383 3.873 3.873 0 0 1-1.093.138 4.86 4.86 0 0 1-1.053-.107 2.748 2.748 0 0 1-.86-.343 1.819 1.819 0 0 1-.6-.62 2.067 2.067 0 0 1-.264-.938z"/></g><g><path fill="#fff" d="M182.264 13.032c-.337 0-.627-.06-.867-.18a1.589 1.589 0 0 1-.59-.506 2.29 2.29 0 0 1-.336-.77 4.165 4.165 0 0 1-.108-.985c0-.36.036-.69.108-.987.073-.295.187-.55.343-.763.157-.212.352-.378.59-.498.236-.12.523-.182.86-.182.336 0 .624.062.864.182s.438.286.594.498c.158.212.273.468.344.763.072.298.108.622.108.975 0 .36-.036.69-.108.991-.071.302-.186.56-.344.776a1.627 1.627 0 0 1-.594.505c-.24.12-.528.18-.864.18zm-.014.864c.467 0 .886-.076 1.263-.234.376-.156.696-.38.956-.668.26-.287.46-.636.6-1.046.141-.407.211-.868.211-1.38 0-.506-.068-.959-.204-1.36a2.875 2.875 0 0 0-.595-1.028 2.614 2.614 0 0 0-.944-.655 3.228 3.228 0 0 0-1.25-.228c-.458 0-.872.077-1.244.235a2.661 2.661 0 0 0-.957.667 3.017 3.017 0 0 0-.613 1.046 4.084 4.084 0 0 0-.215 1.369c0 .506.067.963.203 1.372.138.407.333.753.59 1.034.256.28.568.496.938.647a3.25 3.25 0 0 0 1.261.229z"/></g><g><path fill="#fff" d="M186.578 8.318h-.973v-.83h.973v-.54c0-.336.05-.626.15-.865.102-.24.236-.44.409-.596.174-.156.372-.273.6-.347.23-.078.472-.115.729-.115.184 0 .36.01.529.03.168.02.345.058.529.114l-.168.816a1.975 1.975 0 0 0-.366-.077 3.316 3.316 0 0 0-.344-.018c-.28 0-.52.074-.721.222-.2.148-.3.42-.3.811v.565h1.574v.83h-1.575v5.387h-1.046z"/></g><g><path fill="#fff" d="M121.815 24.622c.032.266.089.51.168.734a1.534 1.534 0 0 0 .907.956c.23.091.512.14.849.14.673 0 1.149-.19 1.425-.567.277-.375.414-.91.414-1.599v-5.675h1.106v5.76c0 1.018-.26 1.778-.781 2.283-.521.505-1.236.758-2.14.758-.898 0-1.611-.225-2.14-.674-.53-.448-.838-1.154-.926-2.116z"/></g><g><path fill="#fff" d="M128.75 23.565c.057-.642.24-1.13.549-1.467.309-.337.74-.505 1.293-.505.304 0 .565.048.781.144.215.098.393.231.53.403.134.173.235.379.299.619.065.242.096.51.096.806zm3.488 1.888a1.48 1.48 0 0 1-.493.8c-.24.195-.622.293-1.141.293-.306 0-.574-.056-.807-.168a1.641 1.641 0 0 1-.582-.464 2.1 2.1 0 0 1-.361-.696 2.91 2.91 0 0 1-.126-.872h4.617v-.529c0-.44-.053-.846-.162-1.214a2.688 2.688 0 0 0-.494-.955 2.276 2.276 0 0 0-.847-.632c-.345-.153-.759-.229-1.238-.229-.426 0-.818.075-1.178.222-.36.15-.672.363-.933.644a2.93 2.93 0 0 0-.606 1.046c-.146.418-.217.894-.217 1.43 0 1.027.253 1.827.758 2.4s1.23.859 2.176.859c.8 0 1.416-.173 1.844-.517.43-.345.695-.818.8-1.418z"/></g><g><path fill="#fff" d="M133.416 20.98h1.143l1.25 4.953 1.431-4.917h1.058l1.395 4.917 1.237-4.953h1.106l-1.814 6.215h-1.106l-1.395-4.953-1.406 4.953h-1.095z"/></g><g><path fill="#fff" d="M142.48 20.98h1.047v6.215h-1.047zm-.034-2.369h1.118v1.216h-1.118z"/></g><g><path fill="#fff" d="M145.355 25.38c.072.433.254.736.547.908.292.171.692.258 1.197.258.528 0 .902-.09 1.123-.27a.88.88 0 0 0 .33-.715c0-.121-.014-.235-.042-.343a.643.643 0 0 0-.161-.288 1.073 1.073 0 0 0-.337-.223 2.417 2.417 0 0 0-.566-.157l-.794-.12a5.84 5.84 0 0 1-.924-.216 2.374 2.374 0 0 1-.675-.342 1.343 1.343 0 0 1-.414-.519 1.777 1.777 0 0 1-.139-.737c0-.288.063-.546.188-.77.125-.225.296-.415.518-.571.22-.158.48-.277.78-.36.3-.085.626-.128.98-.128.45 0 .823.046 1.124.133.3.088.548.208.738.36.194.154.341.334.445.541.106.209.185.43.242.661l-.951.157a2.663 2.663 0 0 0-.191-.445.943.943 0 0 0-.289-.318 1.3 1.3 0 0 0-.44-.194 2.714 2.714 0 0 0-.643-.065c-.289 0-.528.027-.721.079-.191.052-.346.121-.463.21a.776.776 0 0 0-.32.637c0 .13.019.241.05.343.033.1.093.187.18.264.09.077.208.142.362.198.152.056.347.104.589.144l.901.145c.73.12 1.252.328 1.569.625.316.298.474.73.474 1.3 0 .263-.052.506-.155.726a1.6 1.6 0 0 1-.47.577 2.265 2.265 0 0 1-.782.384 3.817 3.817 0 0 1-1.093.139c-.377 0-.727-.036-1.052-.107a2.751 2.751 0 0 1-.86-.343 1.828 1.828 0 0 1-.601-.62c-.151-.255-.24-.57-.264-.938z"/></g><g><path fill="#fff" d="M150.477 18.611h1.045v3.294c.305-.392.64-.677 1.004-.852a2.63 2.63 0 0 1 1.16-.266c.705 0 1.228.193 1.569.578.34.384.511.95.511 1.696v4.134h-1.057v-3.931c0-.577-.103-.983-.308-1.22-.204-.236-.522-.355-.956-.355-.231 0-.462.04-.69.12a1.718 1.718 0 0 0-.62.385 2.01 2.01 0 0 0-.457.56c-.105.196-.156.45-.156.762v3.68h-1.045z"/></g><g><path fill="#fff" d="M159.192 18.611h1.106v7.599h4.448l-.168.985h-5.386z"/></g><g><path fill="#fff" d="M165.348 20.98h1.045v6.215h-1.045zm-.037-2.369h1.118v1.216h-1.118z"/></g><g><path fill="#fff" d="M167.92 21.81h-.974v-.83h.974v-.54c0-.336.05-.626.15-.867.101-.24.236-.438.408-.594.174-.156.374-.273.603-.349.227-.076.47-.115.726-.115.185 0 .36.01.53.031.168.019.344.059.528.115l-.168.816a2.091 2.091 0 0 0-.71-.095c-.28 0-.52.072-.72.222-.201.148-.3.418-.3.81v.566h1.574v.83h-1.574v5.385h-1.047z"/></g><g><path fill="#fff" d="M171.72 23.565c.055-.642.238-1.13.545-1.467.31-.337.74-.505 1.293-.505.305 0 .565.048.782.144.216.098.393.231.53.403.135.173.235.379.3.619.063.242.096.51.096.806zm3.485 1.888a1.484 1.484 0 0 1-.493.8c-.24.195-.62.293-1.142.293-.304 0-.573-.056-.805-.168a1.65 1.65 0 0 1-.583-.464 2.148 2.148 0 0 1-.362-.696 2.954 2.954 0 0 1-.124-.872h4.617v-.529c0-.44-.055-.846-.163-1.214a2.698 2.698 0 0 0-.494-.955 2.272 2.272 0 0 0-.846-.632c-.346-.153-.759-.229-1.24-.229-.423 0-.816.075-1.178.222-.359.15-.672.363-.93.644-.263.282-.464.63-.609 1.046a4.374 4.374 0 0 0-.215 1.43c0 1.027.252 1.827.756 2.4.505.573 1.23.859 2.176.859.802 0 1.416-.173 1.846-.517.43-.345.695-.818.8-1.418z"/></g><g><path fill="#fff" d="M179.437 20.98h1.046v6.215h-1.046zm-.036-2.369h1.118v1.216h-1.118z"/></g><g><path fill="#fff" d="M181.637 20.98h1.034v.95c.305-.41.642-.702 1.01-.877a2.677 2.677 0 0 1 1.167-.266c.705 0 1.227.193 1.569.577.34.385.51.95.51 1.697v4.134h-1.046v-3.931c0-.577-.102-.983-.312-1.22-.208-.236-.529-.355-.96-.355-.234 0-.464.04-.693.12a1.73 1.73 0 0 0-.62.385 2.01 2.01 0 0 0-.456.56c-.104.196-.157.45-.157.762v3.68h-1.046z"/></g><g><path fill="#fff" d="M125.086 36.276h3.21v3.439c-.217.2-.456.375-.716.522a5.086 5.086 0 0 1-1.694.596 5.763 5.763 0 0 1-.885.072c-.633 0-1.196-.102-1.688-.307a3.385 3.385 0 0 1-1.252-.883 3.852 3.852 0 0 1-.774-1.412c-.178-.557-.265-1.19-.265-1.895 0-.72.096-1.362.289-1.923.192-.561.46-1.034.798-1.419.341-.385.749-.677 1.221-.877.473-.2.99-.301 1.551-.301.481 0 .905.059 1.275.175.368.116.682.282.944.498.26.217.474.474.642.775.169.3.297.635.385 1.005l-1.07.18a3.261 3.261 0 0 0-.259-.685 1.82 1.82 0 0 0-.414-.535 1.733 1.733 0 0 0-.618-.343 2.872 2.872 0 0 0-.885-.12c-.449 0-.841.085-1.178.258a2.336 2.336 0 0 0-.842.728 3.43 3.43 0 0 0-.511 1.123c-.116.437-.174.92-.174 1.45 0 .527.056 1.012.168 1.447.113.437.286.811.524 1.125.236.313.53.553.883.721.353.169.77.253 1.25.253.433 0 .84-.052 1.221-.156.381-.105.723-.269 1.028-.493v-2.056h-2.164z"/></g><g><path fill="#fff" d="M130.182 37.058c.056-.641.239-1.132.549-1.468.307-.337.739-.505 1.291-.505.305 0 .566.049.782.145.215.096.393.231.53.404.134.172.236.378.298.618.066.24.098.509.098.806zm3.488 1.887c-.09.337-.253.603-.493.8-.24.195-.621.293-1.142.293-.305 0-.575-.056-.806-.167a1.656 1.656 0 0 1-.583-.464 2.084 2.084 0 0 1-.36-.697 2.858 2.858 0 0 1-.127-.87h4.617v-.53c0-.442-.054-.845-.162-1.216a2.7 2.7 0 0 0-.493-.955 2.26 2.26 0 0 0-.848-.63c-.345-.152-.757-.229-1.238-.229a3.09 3.09 0 0 0-1.178.222 2.61 2.61 0 0 0-.933.643 2.95 2.95 0 0 0-.606 1.047 4.366 4.366 0 0 0-.217 1.43c0 1.025.253 1.825.758 2.4.505.573 1.23.858 2.176.858.801 0 1.417-.173 1.845-.516.428-.345.695-.82.8-1.419z"/></g><g><path fill="#fff" d="M135.677 34.472h1.034v.963c.233-.345.505-.61.816-.795a1.954 1.954 0 0 1 1-.277c.216 0 .4.018.553.05l-.133.974a8.202 8.202 0 0 0-.24-.043 1.807 1.807 0 0 0-.854.084c-.2.068-.388.183-.565.343a1.69 1.69 0 0 0-.415.53c-.1.2-.15.432-.15.697v3.69h-1.046z"/></g><g><path fill="#fff" d="M139.595 34.472h1.035v.95c.281-.385.589-.671.925-.86a2.097 2.097 0 0 1 1.035-.282c.464 0 .84.1 1.124.301.284.2.494.489.632.866.28-.385.6-.676.961-.871.36-.198.745-.296 1.155-.296.607 0 1.079.166 1.411.499.333.332.5.867.5 1.605v4.304h-1.047v-4.063c0-.28-.023-.516-.071-.704a1.118 1.118 0 0 0-.211-.445.743.743 0 0 0-.342-.227 1.492 1.492 0 0 0-.47-.067 1.764 1.764 0 0 0-1.563.926 1.365 1.365 0 0 0-.155.661v3.92h-1.046v-4.052c0-.546-.096-.925-.283-1.137-.189-.21-.46-.318-.812-.318-.408 0-.793.168-1.155.505a2.405 2.405 0 0 0-.39.493c-.124.2-.187.468-.187.804v3.704h-1.046z"/></g><g><path fill="#fff" d="M153.314 38.272c0 .529-.172.946-.517 1.25-.346.305-.826.457-1.443.457-.432 0-.744-.095-.932-.282-.188-.19-.282-.44-.282-.752a1.4 1.4 0 0 1 .102-.553.906.906 0 0 1 .348-.403c.165-.109.388-.194.668-.258a5.85 5.85 0 0 1 1.058-.12l.998-.036zm.023 2.416h1.01v-4.04c0-.368-.042-.7-.125-.998a1.76 1.76 0 0 0-.415-.744 1.9 1.9 0 0 0-.752-.464c-.309-.108-.687-.162-1.136-.162-.729 0-1.307.131-1.73.39-.426.261-.695.676-.808 1.246l.95.108a1.15 1.15 0 0 1 .457-.68c.234-.163.597-.246 1.095-.246.504 0 .87.116 1.094.349.225.232.337.613.337 1.14v.242l-1.07.036c-.402.016-.79.056-1.166.12a3.61 3.61 0 0 0-1.017.325c-.299.152-.54.36-.721.625-.18.265-.27.61-.27 1.034 0 .313.051.585.155.818.104.232.251.426.44.583.188.157.412.273.673.348.26.076.546.115.86.115.513 0 .942-.1 1.286-.294.345-.198.628-.432.853-.704z"/></g><g><path fill="#fff" d="M155.453 34.472h1.035v.95c.303-.408.64-.7 1.01-.877a2.665 2.665 0 0 1 1.166-.265c.704 0 1.227.192 1.57.578.339.384.509.95.509 1.695v4.135h-1.047v-3.932c0-.576-.102-.983-.31-1.22-.21-.235-.53-.354-.962-.354-.234 0-.464.04-.693.12-.226.08-.435.209-.618.385a1.968 1.968 0 0 0-.457.56c-.104.195-.156.45-.156.763v3.678h-1.047z"/></g><g><path fill="#fff" d="M161.597 36.648h3.535v1.047h-3.535z"/></g><g><path fill="#fff" d="M166.705 38.872c.074.434.256.736.548.908.293.172.692.258 1.197.258.527 0 .903-.09 1.123-.27a.876.876 0 0 0 .332-.715 1.35 1.35 0 0 0-.043-.343.64.64 0 0 0-.163-.287 1 1 0 0 0-.337-.223 2.505 2.505 0 0 0-.564-.158l-.793-.119a5.678 5.678 0 0 1-.926-.218 2.275 2.275 0 0 1-.673-.34 1.344 1.344 0 0 1-.415-.518 1.785 1.785 0 0 1-.138-.74c0-.288.062-.544.186-.768.124-.225.296-.416.517-.572a2.48 2.48 0 0 1 .781-.36c.3-.085.628-.127.98-.127.448 0 .823.045 1.124.133.3.088.546.208.74.36.191.153.341.333.445.54.104.21.183.43.239.661l-.948.158a2.525 2.525 0 0 0-.193-.445.962.962 0 0 0-.29-.32 1.336 1.336 0 0 0-.438-.191 2.717 2.717 0 0 0-.642-.066 2.8 2.8 0 0 0-.722.079c-.193.052-.347.12-.463.21a.77.77 0 0 0-.247.295.83.83 0 0 0-.071.34c0 .13.015.244.048.344.03.1.09.188.18.264.089.076.209.143.36.2.152.055.35.103.589.142l.901.146c.73.12 1.253.328 1.57.625.317.297.476.728.476 1.298 0 .264-.054.507-.158.727a1.62 1.62 0 0 1-.467.578 2.31 2.31 0 0 1-.782.384 3.9 3.9 0 0 1-1.095.138c-.377 0-.726-.035-1.052-.107a2.655 2.655 0 0 1-.859-.344 1.8 1.8 0 0 1-.6-.618c-.154-.257-.241-.57-.266-.94z"/></g><g><path fill="#fff" d="M172.862 37.334c0-.36.048-.68.143-.956.096-.277.231-.505.404-.684.172-.18.374-.318.607-.41.233-.091.484-.14.756-.14.217 0 .428.042.632.122.205.08.387.211.547.397.16.184.29.43.39.739.101.308.15.69.15 1.149 0 .448-.045.83-.137 1.142a2.158 2.158 0 0 1-.378.762c-.16.197-.351.34-.572.428-.22.088-.459.132-.714.132-.265 0-.51-.041-.735-.127a1.386 1.386 0 0 1-.577-.403 1.957 1.957 0 0 1-.378-.703 3.354 3.354 0 0 1-.138-1.027zm-1.035 5.687h1.046v-3.102c.274.36.58.612.92.75.34.142.688.21 1.04.21a2.72 2.72 0 0 0 1.148-.232c.34-.158.63-.38.873-.668.24-.288.423-.64.551-1.053.13-.412.194-.874.194-1.389 0-.48-.056-.919-.164-1.315a2.916 2.916 0 0 0-.492-1.028 2.27 2.27 0 0 0-.83-.673c-.332-.16-.72-.24-1.16-.24-.457 0-.857.092-1.196.276a2.68 2.68 0 0 0-.895.806v-.891h-1.035z"/></g><g><path fill="#fff" d="M179.401 37.058c.056-.641.24-1.132.547-1.468.31-.337.74-.505 1.292-.505.305 0 .566.049.782.145.217.096.393.231.53.404a1.7 1.7 0 0 1 .3.618c.064.24.096.509.096.806zm3.487 1.887a1.492 1.492 0 0 1-.493.8c-.24.195-.622.293-1.142.293a1.85 1.85 0 0 1-.806-.167 1.649 1.649 0 0 1-.582-.464 2.139 2.139 0 0 1-.362-.697 2.947 2.947 0 0 1-.124-.87h4.616v-.53a4.32 4.32 0 0 0-.163-1.216 2.72 2.72 0 0 0-.494-.955 2.257 2.257 0 0 0-.846-.63c-.346-.152-.759-.229-1.24-.229-.424 0-.815.075-1.178.222-.36.149-.672.362-.93.643-.262.282-.464.63-.608 1.047-.145.417-.215.894-.215 1.43 0 1.025.25 1.825.756 2.4.505.573 1.23.858 2.176.858.8 0 1.416-.173 1.846-.516.428-.345.694-.82.799-1.419z"/></g><g><path fill="#fff" d="M188.743 38.272c0 .529-.173.946-.516 1.25-.346.305-.827.457-1.444.457-.433 0-.743-.095-.932-.282-.187-.19-.282-.44-.282-.752 0-.208.034-.393.101-.553a.908.908 0 0 1 .349-.403c.164-.109.387-.194.668-.258.28-.064.633-.104 1.058-.12l.998-.036zm.024 2.416h1.01v-4.04c0-.368-.043-.7-.126-.998a1.758 1.758 0 0 0-.415-.744 1.892 1.892 0 0 0-.751-.464c-.31-.108-.688-.162-1.137-.162-.73 0-1.306.131-1.731.39-.425.261-.693.676-.806 1.246l.95.108a1.15 1.15 0 0 1 .457-.68c.232-.163.597-.246 1.094-.246.505 0 .87.116 1.094.349.225.232.337.613.337 1.14v.242l-1.069.036c-.402.016-.79.056-1.168.12a3.586 3.586 0 0 0-1.015.325c-.3.152-.542.36-.72.625-.181.265-.271.61-.271 1.034 0 .313.05.585.155.818.104.232.25.426.44.583.187.157.41.273.673.348.259.076.546.115.859.115.513 0 .942-.1 1.286-.294.345-.198.63-.432.854-.704z"/></g><g><path fill="#fff" d="M190.882 32.104h1.034v5.002l2.91-2.634h1.262l-2.224 2.08 2.464 4.136h-1.19l-2.056-3.522-1.166 1.046v2.476h-1.034z"/></g><g><path fill="#fff" d="M196.713 34.472h1.047v6.216h-1.047zm-.034-2.368h1.118v1.215h-1.118z"/></g><g><path fill="#fff" d="M198.914 34.472h1.033v.95c.305-.408.64-.7 1.01-.877a2.664 2.664 0 0 1 1.166-.265c.704 0 1.228.192 1.57.578.34.384.51.95.51 1.695v4.135h-1.047v-3.932c0-.576-.103-.983-.311-1.22-.209-.235-.53-.354-.962-.354-.234 0-.462.04-.69.12-.229.08-.437.209-.62.385a1.958 1.958 0 0 0-.457.56c-.105.195-.157.45-.157.763v3.678h-1.045z"/></g><g><path fill="#fff" d="M209.806 37.55c0 .361-.048.675-.146.944-.095.268-.227.49-.395.668a1.615 1.615 0 0 1-.596.396 2.067 2.067 0 0 1-.75.133c-.217 0-.43-.042-.644-.12a1.443 1.443 0 0 1-.56-.385 2.007 2.007 0 0 1-.39-.7c-.1-.286-.15-.639-.15-1.057 0-.407.045-.756.139-1.045.09-.29.22-.525.385-.709a1.47 1.47 0 0 1 .576-.403c.22-.083.46-.127.714-.127.242 0 .472.04.692.115.22.076.415.203.584.379.168.175.3.402.395.679.098.276.146.62.146 1.028zm-4.496 3.714c.078.673.35 1.158.817 1.45.465.292 1.106.439 1.922.439.57 0 1.035-.08 1.395-.24.362-.16.645-.392.848-.692.204-.3.345-.666.422-1.094.075-.428.114-.911.114-1.448v-5.207h-1.034v.794c-.28-.376-.59-.634-.932-.776a2.7 2.7 0 0 0-1.028-.21c-.425 0-.808.077-1.148.229-.341.152-.631.366-.872.642-.24.277-.426.61-.553.998-.128.39-.192.82-.192 1.293 0 .432.054.838.162 1.213.108.378.27.71.486.993.216.284.492.509.825.673.333.164.723.247 1.17.247.459 0 .857-.092 1.197-.276.341-.185.632-.445.873-.782v.662c0 .697-.126 1.227-.38 1.592-.25.364-.706.547-1.363.547-.539 0-.933-.08-1.185-.24-.253-.16-.424-.429-.51-.807z"/></g><g><path fill="#fff" d="M121.322 45.596h1.106v7.597h4.449l-.169.986h-5.386z"/></g><g><path fill="#fff" d="M131.422 51.764c0 .527-.173.945-.517 1.249-.345.306-.826.457-1.443.457-.433 0-.743-.094-.932-.282-.189-.189-.282-.44-.282-.751 0-.21.034-.393.101-.553a.91.91 0 0 1 .349-.404c.164-.108.387-.195.668-.257a5.73 5.73 0 0 1 1.058-.12l.998-.038zm.024 2.415h1.01v-4.04c0-.367-.043-.7-.126-.998a1.763 1.763 0 0 0-.415-.745 1.906 1.906 0 0 0-.751-.462c-.31-.108-.688-.162-1.137-.162-.73 0-1.306.13-1.731.39-.425.26-.693.675-.806 1.244l.95.108c.072-.288.224-.515.457-.68.232-.163.597-.244 1.094-.244.505 0 .87.116 1.094.348.224.231.337.614.337 1.141v.242l-1.07.035c-.401.017-.79.056-1.167.12a3.626 3.626 0 0 0-1.015.325c-.3.152-.542.362-.721.626-.18.263-.271.61-.271 1.033 0 .314.05.586.156.818.104.232.25.427.44.583.187.156.41.272.673.349.259.076.546.114.859.114.513 0 .942-.098 1.286-.295.345-.196.63-.43.854-.703z"/></g><g><path fill="#fff" d="M133.561 47.963h1.034v.95c.305-.409.641-.7 1.01-.876a2.667 2.667 0 0 1 1.166-.265c.704 0 1.228.191 1.57.576.34.385.51.95.51 1.696v4.135h-1.047v-3.931c0-.578-.103-.984-.312-1.22-.208-.237-.528-.355-.961-.355-.233 0-.463.041-.69.12a1.726 1.726 0 0 0-.62.385c-.201.176-.353.363-.458.56-.104.196-.156.45-.156.763v3.678h-1.046z"/></g><g><path fill="#fff" d="M144.466 51.305c0 .441-.063.807-.187 1.094a1.83 1.83 0 0 1-.547.722 1.803 1.803 0 0 1-.553.288 2.14 2.14 0 0 1-.625.086c-.216 0-.426-.042-.632-.12a1.45 1.45 0 0 1-.553-.399c-.164-.184-.295-.431-.395-.745-.102-.312-.151-.697-.151-1.154 0-.44.045-.815.139-1.123.09-.309.22-.561.384-.758.163-.198.356-.34.576-.426.222-.09.46-.133.716-.133.216 0 .414.027.596.084.18.056.358.157.534.3.249.194.428.428.536.703.108.276.162.665.162 1.162zm-.013 2.874h1.022v-8.583h-1.046v3.125c-.288-.369-.6-.619-.937-.751a2.715 2.715 0 0 0-.998-.198c-.433 0-.82.075-1.161.227-.34.154-.63.374-.864.663-.237.287-.42.638-.548 1.051a4.675 4.675 0 0 0-.192 1.39c0 .456.052.885.156 1.286.104.4.264.746.48 1.039.217.293.493.524.825.692.333.167.727.251 1.184.251.456 0 .853-.093 1.19-.282a2.84 2.84 0 0 0 .89-.8z"/></g><g><path fill="#fff" d="M147.29 52.363c.073.433.254.736.547.909.292.172.692.258 1.197.258.529 0 .903-.09 1.125-.27.22-.18.33-.42.33-.715 0-.121-.015-.235-.043-.343a.648.648 0 0 0-.162-.289 1.069 1.069 0 0 0-.336-.223 2.432 2.432 0 0 0-.567-.156l-.792-.12a5.875 5.875 0 0 1-.926-.217 2.302 2.302 0 0 1-.674-.342 1.33 1.33 0 0 1-.414-.518 1.795 1.795 0 0 1-.14-.737c0-.289.064-.545.188-.77.125-.224.298-.415.518-.572.22-.156.48-.276.782-.36.299-.084.624-.126.979-.126.449 0 .822.044 1.123.131.3.09.548.209.74.362.193.152.34.333.445.54.104.208.183.429.24.661l-.95.156a2.543 2.543 0 0 0-.192-.444.967.967 0 0 0-.288-.319 1.356 1.356 0 0 0-.44-.193 2.72 2.72 0 0 0-.644-.064c-.287 0-.527.025-.721.077-.191.052-.345.122-.461.21a.768.768 0 0 0-.32.637c0 .13.017.243.049.343a.59.59 0 0 0 .18.265c.088.076.208.143.361.199.152.056.349.104.59.143l.9.144c.73.12 1.254.329 1.569.625.316.298.474.73.474 1.3a1.7 1.7 0 0 1-.155.727c-.104.22-.26.413-.469.577a2.28 2.28 0 0 1-.781.383 3.828 3.828 0 0 1-1.094.14 4.85 4.85 0 0 1-1.053-.108 2.73 2.73 0 0 1-.859-.343 1.82 1.82 0 0 1-.602-.62c-.151-.255-.24-.569-.263-.938z"/></g></g></g></g></g></svg>