<svg xmlns="http://www.w3.org/2000/svg" width="53.662" height="53.662" viewBox="0 0 53.662 53.662">
  <path id="Icon_awesome-user-circle" data-name="Icon awesome-user-circle" d="M26.831.563A26.831,26.831,0,1,0,53.662,27.394,26.826,26.826,0,0,0,26.831.563Zm0,10.386a9.521,9.521,0,1,1-9.521,9.521A9.521,9.521,0,0,1,26.831,10.949Zm0,37.217a20.732,20.732,0,0,1-15.85-7.379,12.062,12.062,0,0,1,10.657-6.47,2.647,2.647,0,0,1,.768.119,14.324,14.324,0,0,0,4.425.747,14.27,14.27,0,0,0,4.425-.747,2.647,2.647,0,0,1,.768-.119,12.062,12.062,0,0,1,10.657,6.47A20.732,20.732,0,0,1,26.831,48.166Z" transform="translate(0 -0.563)" fill="#0038b9"/>
</svg>
