<svg xmlns="http://www.w3.org/2000/svg" width="246" height="105" viewBox="0 0 246 105"><g><g><path d="M41.74 7.993v18.86c0 3.054 1.429 4.671 4.11 4.671 2.68 0 4.29-1.617 4.29-4.94V7.994h9.475v18.32c0 8.083-5.544 12.754-13.764 12.754-8.223 0-13.585-4.67-13.585-12.573V7.993zM36.985 0h7.507v4.013l-7.507 1.899zm11.306 0h7.507v4.005l-7.507 1.907zm45.12 7.993h9.473v30.175h-9.473zm79.093 30.175h-9.473V7.993h9.473V19.13h10.725V7.993h9.476v30.175h-9.476V26.495h-10.725zM95.838 96.423c0 5.254-3.752 8.624-9.83 8.624H66.554V74.87h18.562c6.078 0 9.65 2.873 9.65 7.721 0 3.222-1.783 5.588-4.94 6.748 3.88.932 6.013 3.296 6.013 7.084zM82.97 86.545c1.786 0 2.859-1.256 2.859-2.784 0-1.528-1.073-2.604-2.86-2.604h-5.023l-2.992 5.388zm-8.016 5.927v6.287h8.464c1.963 0 3.127-1.382 3.127-3.234 0-1.85-1.164-3.053-3.127-3.053zm65.64-17.602c6.437 0 10.549 3.412 10.549 9.341 0 4.062-2.217 7.012-6.122 8.533l7.192 12.303h-10.725l-6.233-11.139h-3.06v11.139h-9.476V74.87zm-1.786 6.824h-7.484l2.994 5.39h4.49c1.787 0 2.86-1.078 2.86-2.695 0-1.617-1.073-2.695-2.86-2.695zm36.534 15.629v7.724h-21.985V74.87h9.473v22.453zm1.826-22.453h9.472v30.177h-9.472zm-73.623-33.438h22.872v6.824h-13.4v4.49h12.864v6.826h-12.864v5.208h13.934v6.826h-23.406zm43.58 0h9.854V59.75c0 8.086-5.765 12.754-14.317 12.754-8.55 0-14.129-4.668-14.129-12.573v-18.5h9.855v18.86c0 3.054 1.486 4.669 4.274 4.669 2.787 0 4.463-1.615 4.463-4.938zm-83.551 0h9.852V59.75c0 8.086-5.763 12.754-14.316 12.754-8.55 0-14.128-4.668-14.128-12.573v-18.5h9.855v18.86c0 3.054 1.486 4.669 4.273 4.669 2.79 0 4.464-1.615 4.464-4.938zm-40.527 16.77l-5.539-3.852v17.256H8.082V40.692L23.05 51.03l19.399-10.338v30.914H25.854L37.32 50.894 23.047 64.283zm151.404 0l-5.536-3.852v17.256h-9.429V40.692l14.968 10.338 19.398-10.338v30.914H177.26l11.468-20.712-14.276 13.389zM76.96 7.992c9.116 0 14.657 5.21 14.657 14.729 0 10.238-5.541 15.448-14.657 15.448H62.125V7.99zM67.04 30.983h7.775c5.004 0 7.327-2.873 7.327-8.263 0-5.03-2.323-7.544-7.327-7.544h-3.433zM97.388 74.87h22.883v6.836h-16.185l2.49 4.49h13.159v6.827h-15.65l2.892 5.207h13.83v6.817H97.388zm97.975-66.877h22.88v6.817l-13.188-.002-2.48 4.492h15.149v6.827l-12.275.015-2.874 5.187h16.027v6.839h-23.239zm-80.899 8.941c.005.73.537 1.125 1.533 1.34l5.866 1.271c6.675 1.446 8.996 4.386 8.996 8.861 0 6.446-5.881 10.563-13.713 10.563-5.164 0-9.805-1.432-13.01-3.936l4.275-7.522c2.316 1.971 5.522 3.044 8.903 3.044 3.033 0 4.28-.895 4.28-1.825 0-.682-.491-1.068-1.527-1.29l-5.866-1.271c-6.24-1.35-8.998-4.208-8.998-8.867 0-6.082 4.645-10.201 12.472-10.201 5.18 0 9.262 1.451 12.65 3.58l-4.296 7.519c-2.299-1.61-5.325-2.683-8.369-2.683-2.123 0-3.203.534-3.196 1.417zM0 27.734l11.641 1.81 2.566 2.547c2.547.761 4.79-.216 4.754-2.532l.012-24.357L29.754 7.9v21.01L17.535 39.652C8.325 40.148.258 37.031 0 27.734zm152.202-9.099c-.625-2.361-2.35-4.047-5.03-4.151-3.392-.134-6.183 2.633-6.384 7.838-.21 5.385 2.167 8.713 5.738 8.854 3.036.118 5.07-1.6 5.696-3.912l9.234 1.8c-1.545 6.424-7.305 10.041-14.854 9.84l-15.29-14.27c-.65-13.646 7.53-18.075 15.976-17.696 7.5.336 12.721 4.094 14.084 10.439zm78.888-.304l5.883 1.273c6.703 1.452 9.028 4.401 9.028 8.891 0 6.466-5.669 10.598-13.602 10.598-5.095 0-13.043-1.6-13.564-11.54l7.962 1.294 3.344 2.091c2.404.525 6.498.104 6.564-2.119.02-.682-.492-1.068-1.533-1.295l-5.885-1.276c-6.257-1.352-9.025-4.218-9.025-8.894 0-6.102 4.662-10.233 12.511-10.233 5.197 0 9.296 1.456 12.692 3.592l-4.309 7.544c-2.305-1.617-5.344-2.693-8.395-2.693-2.13 0-3.216.54-3.208 1.422.005.732.538 1.127 1.537 1.345zM86.855 51.742l5.886 1.276c6.7 1.451 9.025 4.398 9.025 8.89 0 6.467-5.67 10.596-13.602 10.596-5.093 0-13.043-1.6-13.565-11.537l7.962 1.293 3.344 2.09c2.404.528 6.5.103 6.565-2.117.02-.683-.492-1.07-1.53-1.296l-5.886-1.276c-6.26-1.352-9.025-4.22-9.025-8.893 0-6.102 4.66-10.234 12.511-10.234 5.197 0 9.294 1.456 12.69 3.593l-4.31 7.543c-2.305-1.617-5.34-2.695-8.394-2.695-2.131 0-3.216.54-3.209 1.424.005.732.539 1.128 1.538 1.343zM219.523 74.87v30.177h-15.484l3.193-5.178-8.929-14.568v19.746h-8.99V74.87h11.51l9.709 18.92V74.87z"/></g></g></svg>