<svg xmlns="http://www.w3.org/2000/svg" width="246" height="124" viewBox="0 0 246 124"><g><g><g><g/></g><g><g><path d="M181.395 55.165h-2.773V51.94h-1.736l-.21 3.224-1.402.29v1.3h1.402v6.68c0 1.278.247 2.2.748 2.752.493.56 1.241.835 2.236.835.516 0 .922-.072 1.227-.203.305-.138.501-.24.581-.305l-.269-1.568a2.268 2.268 0 0 1-.457.218c-.203.08-.458.123-.74.123-.502 0-.858-.145-1.068-.443-.203-.298-.312-.857-.312-1.677v-6.412h2.534zM169.422 65.36c-.487 0-.864-.145-1.133-.443-.276-.298-.414-.748-.414-1.336 0-.647.24-1.111.726-1.402.48-.29 1.191-.45 2.12-.486l.625-.022v2.556c-.08.094-.174.21-.276.348a1.703 1.703 0 0 1-.385.37c-.152.117-.334.211-.544.291-.204.08-.45.124-.72.124zm-3.493-1.569c0 .465.073.9.225 1.293a3.013 3.013 0 0 0 2.854 1.939c.37 0 .69-.059.966-.167.276-.117.508-.247.697-.4.196-.152.355-.32.486-.508.124-.182.225-.349.283-.494h.051l.073 1.278h1.859c-.037-.16-.066-.48-.102-.951a24.114 24.114 0 0 1-.044-1.46V59.05c0-1.467-.305-2.527-.914-3.18-.618-.661-1.51-.995-2.702-.995-.464 0-.885.05-1.256.145-.37.102-.697.218-.987.363a4.558 4.558 0 0 0-1.227.893l.82 1.3a9.04 9.04 0 0 1 .915-.66c.385-.255.864-.378 1.445-.378.624 0 1.111.188 1.46.559.34.37.515 1.038.515 2.018v1.111h-.603a9.09 9.09 0 0 0-1.866.182c-.588.123-1.096.32-1.532.602a3.174 3.174 0 0 0-1.03 1.097c-.262.45-.386 1.01-.386 1.684zm-8.314 2.941v-7.755c0-.225-.007-.443-.021-.639a10.136 10.136 0 0 0-.073-.566c.203-.247.486-.494.85-.763.363-.261.813-.399 1.365-.399.66 0 1.154.21 1.488.632.341.414.508 1.096.508 2.047v7.443h1.954v-7.755c0-2.73-1.177-4.102-3.515-4.102-.392 0-.74.05-1.067.145-.32.102-.61.225-.864.377-.254.153-.48.32-.675.501a4.508 4.508 0 0 0-.458.523c-.545-1.03-1.481-1.546-2.795-1.546-.4 0-.763.058-1.082.174a3.263 3.263 0 0 0-.843.421 2.912 2.912 0 0 0-.602.53 3.073 3.073 0 0 0-.363.472h-.051v-1.307h-1.78v11.567h1.947v-8.917c.102-.108.218-.24.363-.384.145-.146.312-.276.508-.4a3.08 3.08 0 0 1 .661-.297c.247-.08.537-.124.857-.124.61 0 1.053.21 1.321.632.276.414.414 1.096.414 2.048v7.442zm-11.037-14.747c.24-.254.364-.596.364-1.01 0-.399-.124-.733-.364-.987-.24-.261-.551-.385-.944-.385-.399 0-.718.124-.958.385-.24.254-.363.588-.363.987 0 .414.123.756.363 1.01.24.261.56.385.958.385zm.022 3.18h-1.953v11.567h1.953zm-8.212 1.307c.61 0 1.074.218 1.394.661.32.443.48 1.06.48 1.866 0 .174 0 .341-.008.494a2.648 2.648 0 0 1-.036.348h-4.22c.066-1.089.306-1.931.727-2.505.414-.58.973-.864 1.663-.864zm3.66 2.6c0-1.402-.313-2.447-.937-3.145-.632-.697-1.496-1.052-2.607-1.052a4.2 4.2 0 0 0-1.706.355 3.804 3.804 0 0 0-1.402 1.068c-.399.486-.718 1.096-.95 1.844-.233.748-.35 1.634-.35 2.665 0 1.09.117 2.026.342 2.803.218.784.537 1.423.951 1.931.407.501.908.879 1.489 1.119.588.24 1.241.363 1.967.363a5.41 5.41 0 0 0 1.416-.167c.407-.117.741-.247 1.017-.4.269-.152.487-.305.646-.457.16-.153.283-.269.363-.349l-.719-1.372c-.065.058-.167.152-.305.261a3.424 3.424 0 0 1-.508.334 3.296 3.296 0 0 1-1.627.414c-.972 0-1.727-.32-2.25-.965-.523-.64-.813-1.642-.879-3.014h5.903c.03-.269.066-.588.095-.951.036-.363.05-.792.05-1.285zm-10.725-8.96h-2.091v7.391h-6.87v-7.392h-2.098v16.621h2.099v-7.566h6.869v7.566h2.091zm-23.686 15.175c-.334 0-.653-.072-.958-.218a2.15 2.15 0 0 1-.82-.711c-.247-.327-.429-.763-.567-1.3-.138-.537-.203-1.205-.203-2.011 0-.82.08-1.51.247-2.07.174-.566.399-1.024.69-1.38.29-.348.631-.602 1.023-.754a3.457 3.457 0 0 1 1.264-.233c.355 0 .646.044.878.124.24.08.443.174.617.29v7.13a2.36 2.36 0 0 1-.275.334c-.124.131-.27.255-.45.378a2.598 2.598 0 0 1-1.445.421zm-4.574-4.168c0 1.06.109 1.96.327 2.709.21.748.508 1.357.878 1.83.37.479.799.82 1.286 1.038a3.8 3.8 0 0 0 1.553.327c.45 0 .85-.059 1.184-.182.334-.123.617-.269.842-.436.225-.167.4-.334.53-.5.131-.175.218-.306.269-.4h.044v1.227h1.786V49.48l-1.954.218v5.54c-.174-.08-.399-.145-.675-.203a4.715 4.715 0 0 0-.966-.088c-.61 0-1.22.102-1.83.305a4.143 4.143 0 0 0-1.633 1.024c-.487.48-.879 1.118-1.184 1.903-.305.784-.457 1.764-.457 2.94zm-2.389 5.613v-7.588c0-.791-.08-1.452-.24-1.99-.16-.537-.384-.972-.675-1.314a2.518 2.518 0 0 0-1.06-.733 4.01 4.01 0 0 0-1.394-.232c-.45 0-.857.065-1.205.196-.356.13-.661.276-.915.443a3.135 3.135 0 0 0-.625.53 2.239 2.239 0 0 0-.32.428h-.043v-1.307h-1.786v11.567h1.953v-8.917c.225-.268.53-.551.915-.842.385-.29.864-.435 1.445-.435.675 0 1.176.217 1.503.638.334.429.494 1.133.494 2.113v7.443zM89.427 55.165h-1.954v8.866a4.99 4.99 0 0 1-.915.835c-.384.283-.864.421-1.423.421-.66 0-1.147-.203-1.46-.617-.312-.407-.471-1.09-.471-2.055v-7.45h-1.946v7.595c0 .784.072 1.445.225 1.982.152.545.377.98.66 1.315.291.34.647.58 1.053.733.407.152.872.232 1.387.232a3.36 3.36 0 0 0 1.177-.196c.355-.123.653-.276.907-.443a3.2 3.2 0 0 0 .61-.53c.16-.181.269-.326.312-.42h.051v1.299h1.786zm153.652-24.296h-1.953v8.866a4.73 4.73 0 0 1-.915.828c-.385.283-.857.428-1.423.428-.653 0-1.14-.21-1.452-.617-.32-.407-.472-1.097-.472-2.062v-7.443h-1.953v7.588c0 .791.08 1.452.232 1.99.152.537.37.972.66 1.314.291.334.64.58 1.046.733.414.152.872.232 1.387.232.436 0 .828-.065 1.184-.196.348-.13.653-.276.9-.443a3.54 3.54 0 0 0 .617-.53c.16-.189.262-.327.313-.421h.043v1.3h1.786zm-14.892 10.194c-.48 0-.857-.152-1.133-.45-.269-.297-.407-.74-.407-1.336 0-.646.24-1.11.72-1.394.486-.29 1.19-.45 2.127-.486l.624-.022v2.556c-.08.094-.174.21-.276.348-.109.13-.24.262-.392.37-.152.117-.327.211-.537.291-.21.08-.45.123-.726.123zm-3.493-1.568c0 .465.08.893.232 1.285a2.967 2.967 0 0 0 1.634 1.7c.378.16.784.246 1.22.246.37 0 .69-.058.966-.174.268-.109.5-.24.697-.392.189-.153.356-.327.48-.508.13-.182.224-.349.29-.494h.05l.073 1.278h1.852a9.295 9.295 0 0 1-.095-.951c-.036-.48-.05-.959-.05-1.46v-5.279c0-1.46-.306-2.52-.915-3.18-.61-.654-1.51-.988-2.702-.988a4.907 4.907 0 0 0-2.236.508c-.29.146-.537.298-.733.458-.204.16-.37.305-.494.436l.813 1.3a8.21 8.21 0 0 1 .922-.661c.385-.254.864-.378 1.445-.378.625 0 1.111.182 1.452.552.35.37.523 1.046.523 2.026v1.11h-.602a8.99 8.99 0 0 0-1.867.182 4.312 4.312 0 0 0-1.532.603 3.131 3.131 0 0 0-1.038 1.096c-.254.45-.385 1.01-.385 1.685zm-4.146-1.714c0 .966-.276 1.692-.828 2.186-.552.487-1.452.733-2.686.733h-1.3v-5.83h1.423c1.09 0 1.924.261 2.513.784.588.523.878 1.227.878 2.127zm-.312-7.66c0 .966-.29 1.72-.864 2.266-.581.544-1.43.82-2.556.82h-1.082v-5.736h1.104c1.176 0 2.033.247 2.577.748.552.493.82 1.132.82 1.902zm2.12-.073a4.93 4.93 0 0 0-.298-1.742 3.24 3.24 0 0 0-.98-1.344c-.45-.37-1.024-.653-1.72-.85-.698-.202-1.54-.304-2.52-.304h-3.203v16.628h3.398c.995 0 1.852-.116 2.578-.341.726-.225 1.322-.538 1.794-.937.479-.4.827-.879 1.053-1.423.225-.545.334-1.147.334-1.808 0-.545-.088-1.046-.255-1.503a3.885 3.885 0 0 0-.675-1.191 3.851 3.851 0 0 0-2.2-1.307v-.044c.349-.094.69-.24 1.024-.435a3.16 3.16 0 0 0 .864-.756c.247-.32.443-.69.588-1.125.145-.428.218-.937.218-1.518zm-15.372.8c-.094-.037-.225-.073-.4-.124a2.34 2.34 0 0 0-.66-.073c-.37 0-.683.05-.951.145a2.097 2.097 0 0 0-.69.4 2.582 2.582 0 0 0-.48.573c-.13.218-.232.443-.312.668h-.05V30.87h-1.78v11.567h1.954v-8.481c.145-.385.385-.748.733-1.075.342-.326.821-.493 1.43-.493.277 0 .495.021.654.072.16.051.262.087.313.116zm-9.73-4.198a1.118 1.118 0 0 0-.82-.334c-.327 0-.596.11-.82.334-.226.225-.342.523-.342.893s.116.668.341.894c.225.225.494.334.82.334.32 0 .596-.11.821-.334.218-.226.334-.523.334-.894zm-3.71 0a1.118 1.118 0 0 0-.82-.334c-.327 0-.596.11-.821.334-.225.225-.341.523-.341.893s.116.668.34.894c.226.225.495.334.821.334.32 0 .596-.11.82-.334.226-.226.335-.523.335-.894zm5.126 4.22h-1.946v8.865c-.225.276-.537.552-.922.828-.385.283-.857.428-1.416.428-.66 0-1.147-.21-1.46-.617-.312-.407-.471-1.097-.471-2.062v-7.443H190.5v7.588c0 .791.08 1.452.233 1.99.152.537.37.972.66 1.314.29.334.64.58 1.053.733.407.153.872.232 1.38.232.436 0 .828-.065 1.183-.196.349-.13.654-.276.9-.443a3.29 3.29 0 0 0 .618-.53c.16-.188.269-.326.312-.42h.051v1.299h1.779zm-9.78-.001h-2.6v-2.077c0-.762.116-1.3.356-1.583.247-.29.595-.435 1.06-.435.261 0 .48.036.653.108.175.073.312.138.407.204l.414-1.612c-.095-.066-.29-.153-.581-.269-.29-.109-.64-.167-1.06-.167-.429 0-.843.065-1.228.189-.384.13-.726.341-1.016.632-.283.283-.516.653-.697 1.103-.174.45-.262.995-.262 1.62v2.309l-1.4.268v1.3h1.4v9.977h1.954v-9.977h2.36zm-15.111 10.194c0 .45.13.792.392 1.024.254.233.566.349.936.349h.073c-.036.704-.21 1.241-.53 1.597-.32.363-.733.676-1.227.93l.407.842c.32-.109.646-.261.973-.457a3.638 3.638 0 0 0 1.568-1.794c.167-.407.254-.886.254-1.43 0-.806-.152-1.402-.443-1.787-.297-.384-.682-.58-1.147-.58a1.28 1.28 0 0 0-.879.326c-.254.218-.377.545-.377.98zm-2.6 1.373v-7.588c0-.791-.08-1.452-.24-1.99-.159-.537-.384-.98-.675-1.314a2.564 2.564 0 0 0-1.06-.733 4.081 4.081 0 0 0-1.401-.233c-.443 0-.85.066-1.205.196a4.468 4.468 0 0 0-.915.443 3.102 3.102 0 0 0-.625.53c-.16.19-.261.327-.312.422h-.05v-1.3h-1.78v11.567h1.946v-8.917c.225-.276.53-.552.923-.842.384-.29.864-.436 1.444-.436.676 0 1.177.21 1.504.64.334.428.493 1.132.493 2.105v7.45zm-9.955-11.589c-.094-.036-.225-.073-.392-.123a2.41 2.41 0 0 0-.66-.073c-.37 0-.69.05-.959.145a1.993 1.993 0 0 0-.682.4 2.43 2.43 0 0 0-.487.573 4.274 4.274 0 0 0-.312.668h-.044V30.87h-1.786v11.567h1.953v-8.481c.146-.385.393-.748.734-1.075.348-.326.82-.493 1.438-.493.268 0 .486.021.646.072.16.05.268.087.312.116zm-11.588 1.322c.61 0 1.082.225 1.401.668.32.435.48 1.06.48 1.866 0 .174 0 .341-.008.494-.015.152-.022.268-.044.348h-4.211c.065-1.096.305-1.931.719-2.505.421-.581.973-.871 1.663-.871zm3.666 2.606c0-1.401-.312-2.447-.943-3.151-.625-.697-1.489-1.046-2.6-1.046a4.23 4.23 0 0 0-1.714.349c-.53.232-.994.595-1.394 1.074-.399.48-.719 1.097-.95 1.845-.233.748-.35 1.634-.35 2.657 0 1.097.11 2.034.334 2.81.226.777.545 1.424.952 1.925.406.508.907.886 1.495 1.125.589.24 1.242.363 1.961.363.552 0 1.024-.058 1.423-.174.4-.109.74-.24 1.01-.392a3.17 3.17 0 0 0 .653-.458c.16-.152.283-.268.363-.348l-.726-1.38c-.065.066-.16.153-.298.269a3.424 3.424 0 0 1-.508.334c-.196.116-.436.21-.712.29-.268.08-.573.124-.915.124-.98 0-1.728-.32-2.25-.966-.523-.646-.814-1.648-.879-3.013h5.903c.03-.269.066-.588.095-.951.036-.364.05-.792.05-1.286zm-10.34 7.66v-7.587c0-.791-.08-1.452-.239-1.99-.16-.537-.385-.98-.675-1.314a2.518 2.518 0 0 0-1.06-.733 4.04 4.04 0 0 0-1.395-.233c-.45 0-.856.066-1.205.197-.356.123-.66.275-.915.442a2.966 2.966 0 0 0-.632.53c-.16.19-.261.327-.312.422h-.05v-1.3h-1.78v11.567h1.954v-8.917c.225-.276.53-.552.915-.842.385-.29.864-.436 1.445-.436.675 0 1.176.21 1.503.64.334.428.493 1.132.493 2.105v7.45zm-11.181 0v-7.587c0-.791-.08-1.452-.24-1.99-.16-.537-.385-.98-.675-1.314a2.474 2.474 0 0 0-1.06-.733 4.01 4.01 0 0 0-1.395-.232c-.45 0-.85.065-1.205.196-.356.123-.66.275-.915.442a3.159 3.159 0 0 0-.631.53c-.16.19-.262.327-.313.422h-.043v-1.3h-1.786v11.567h1.953V33.52c.225-.276.53-.552.915-.842.385-.29.871-.436 1.445-.436.675 0 1.176.21 1.51.64.327.428.494 1.132.494 2.105v7.45zm-14.479-1.517h-1.808v1.518h5.714v-1.518H119.4V27.253h1.758v-1.445h-5.613v1.445h1.757zm-8.96-9.112c-.102-.095-.225-.211-.378-.349a3.65 3.65 0 0 0-.58-.407 3.338 3.338 0 0 0-.828-.34 4.436 4.436 0 0 0-1.155-.132c-.465 0-.908.08-1.314.233-.414.152-.77.356-1.075.624-.305.262-.537.581-.711.937a2.834 2.834 0 0 0-.255 1.198c0 .799.211 1.46.618 1.975.413.508.973 1.002 1.699 1.467l.726.457c.268.182.508.342.719.487.21.145.385.297.53.457.145.16.254.341.326.538.073.203.11.442.11.711 0 .37-.153.683-.458.944-.305.254-.748.385-1.329.385a2.674 2.674 0 0 1-1.488-.429 2.502 2.502 0 0 1-.494-.37c-.138-.13-.254-.24-.356-.334l-.937 1.54c.117.13.255.268.436.42.174.153.4.291.66.422.27.13.574.24.93.341a4.74 4.74 0 0 0 1.227.145c1.191 0 2.099-.32 2.738-.944.632-.624.951-1.394.951-2.309 0-.857-.225-1.546-.675-2.091-.45-.537-1.068-1.038-1.859-1.503l-.719-.436c-.515-.32-.9-.617-1.147-.9-.247-.283-.37-.639-.37-1.075 0-.334.138-.624.406-.864.276-.24.668-.363 1.184-.363.544 0 .987.124 1.321.378.342.247.574.443.697.588zm-12.097.363c.61 0 1.074.225 1.394.668.327.435.486 1.06.486 1.866 0 .174-.007.341-.014.493a2.716 2.716 0 0 1-.036.349h-4.219c.065-1.097.305-1.932.726-2.505.414-.581.973-.872 1.663-.872zm3.66 2.606c0-1.401-.313-2.447-.937-3.151-.625-.697-1.496-1.046-2.607-1.046-.61 0-1.176.116-1.706.349-.53.232-.995.595-1.402 1.074-.399.48-.718 1.097-.95 1.845-.233.748-.35 1.634-.35 2.657 0 1.097.117 2.033.335 2.81.225.777.544 1.424.958 1.925.407.508.9.886 1.489 1.125.588.24 1.241.363 1.968.363.544 0 1.016-.058 1.423-.174.4-.109.733-.24 1.009-.392.269-.153.486-.305.646-.458.167-.152.283-.268.363-.348l-.719-1.38a5.448 5.448 0 0 1-.305.269 3.381 3.381 0 0 1-2.128.748c-.98 0-1.734-.32-2.257-.966-.523-.646-.813-1.648-.879-3.013h5.904c.036-.269.065-.589.094-.952.036-.363.05-.791.05-1.285zm-14.53 6.216c-.334 0-.653-.073-.965-.218-.305-.145-.574-.385-.814-.712-.247-.326-.428-.762-.566-1.3-.138-.537-.21-1.212-.21-2.01 0-.821.086-1.51.253-2.077.175-.56.4-1.017.69-1.373a2.45 2.45 0 0 1 1.024-.755 3.457 3.457 0 0 1 1.264-.232c.355 0 .646.036.878.123.232.08.436.175.617.283v7.138c-.065.094-.16.203-.276.334-.123.13-.268.254-.45.37a2.383 2.383 0 0 1-.624.305c-.24.08-.516.124-.82.124zm-4.574-4.168c0 1.06.101 1.96.32 2.708.217.748.515 1.358.885 1.83.363.472.799.82 1.285 1.038a3.8 3.8 0 0 0 1.554.327c.45 0 .843-.065 1.184-.181.334-.124.617-.27.842-.436.225-.167.4-.334.53-.508.13-.167.218-.298.262-.392h.05v1.227h1.78V25.183l-1.947.218v5.54a3 3 0 0 0-.675-.203 4.715 4.715 0 0 0-.966-.087c-.61 0-1.22.102-1.83.298a4.155 4.155 0 0 0-1.64 1.03c-.48.48-.872 1.112-1.177 1.903-.305.784-.457 1.765-.457 2.94zM239.922 18.14v-7.763c0-.225-.006-.435-.021-.639a4.326 4.326 0 0 0-.073-.566c.21-.24.494-.494.857-.762.363-.262.813-.393 1.358-.393.66 0 1.161.211 1.495.625.342.421.509 1.096.509 2.048v7.45H246v-7.763c0-2.73-1.176-4.095-3.522-4.095-.384 0-.74.044-1.06.145a3.734 3.734 0 0 0-1.54.879 3.11 3.11 0 0 0-.457.515c-.551-1.023-1.48-1.539-2.795-1.539-.4 0-.762.05-1.09.167a3.384 3.384 0 0 0-1.444.951c-.16.19-.276.342-.356.472h-.05v-1.3h-1.787V18.14h1.953V9.223c.095-.116.218-.24.363-.385.146-.145.313-.283.501-.4.196-.123.421-.217.668-.304.247-.08.53-.116.857-.116.61 0 1.053.21 1.322.624.276.421.406 1.096.406 2.048v7.45zM228.915 6.573h-1.954v8.865a4.73 4.73 0 0 1-.915.828c-.384.283-.856.421-1.423.421-.66 0-1.14-.203-1.46-.61-.311-.414-.464-1.096-.464-2.062V6.572h-1.953v7.588c0 .784.073 1.452.225 1.99.152.537.377.973.668 1.314.283.334.639.581 1.046.733.406.153.87.226 1.386.226.429 0 .828-.059 1.177-.19.356-.13.66-.282.907-.45.247-.166.45-.34.618-.53.16-.181.261-.319.312-.42h.043v1.306h1.787zm-11.11-3.181c.24-.262.363-.596.363-1.017 0-.4-.123-.726-.363-.987-.24-.254-.552-.385-.937-.385-.406 0-.726.13-.966.385-.24.261-.363.588-.363.987 0 .421.124.755.363 1.017.24.254.56.385.966.385zm.022 3.18h-1.946V18.14h1.946zm-3.638-.029c-.094-.029-.225-.072-.392-.116a2.43 2.43 0 0 0-.668-.073c-.37 0-.683.044-.951.146a1.993 1.993 0 0 0-.683.399 2.294 2.294 0 0 0-.486.574 4.205 4.205 0 0 0-.313.66h-.043v-1.56h-1.786v11.566h1.953V9.651c.145-.385.385-.74.733-1.067.349-.334.82-.494 1.43-.494.277 0 .494.022.654.073.16.043.269.087.312.116zM202.6 7.873c.61 0 1.075.217 1.402.66.32.443.479 1.067.479 1.866 0 .182-.008.341-.015.494a2.656 2.656 0 0 1-.036.348h-4.212c.066-1.089.305-1.924.72-2.505.42-.574.972-.864 1.662-.864zm3.667 2.598c0-1.394-.32-2.447-.944-3.144-.625-.697-1.489-1.045-2.6-1.045-.61 0-1.183.116-1.713.348-.53.233-.995.588-1.394 1.075-.407.48-.72 1.096-.952 1.844-.232.741-.355 1.634-.355 2.658 0 1.096.116 2.026.34 2.81.226.777.545 1.423.952 1.924.407.509.908.879 1.496 1.126.588.24 1.241.356 1.96.356.552 0 1.024-.051 1.424-.167.399-.11.74-.247 1.009-.4a3.17 3.17 0 0 0 .653-.457c.16-.153.283-.269.363-.349l-.726-1.372a4.79 4.79 0 0 1-.297.268 4.119 4.119 0 0 1-.509.335 3.216 3.216 0 0 1-1.626.407c-.98 0-1.728-.32-2.251-.96-.523-.646-.813-1.648-.879-3.013h5.904c.029-.276.065-.588.094-.95.029-.364.05-.792.05-1.293zm-9.23-3.899h-2.773V3.341h-1.735l-.218 3.231-1.394.283v1.307h1.394v6.673c0 1.286.247 2.208.748 2.76.5.551 1.249.827 2.243.827.509 0 .923-.065 1.228-.203.305-.138.5-.232.58-.298l-.268-1.568a2.267 2.267 0 0 1-.458.218c-.21.08-.457.116-.748.116-.5 0-.85-.145-1.06-.443-.21-.298-.312-.857-.312-1.677V8.162h2.534zm-7.783.937c-.102-.094-.225-.21-.378-.349a3.158 3.158 0 0 0-.573-.406 3.397 3.397 0 0 0-.835-.342 4.436 4.436 0 0 0-1.155-.13c-.465 0-.9.072-1.314.225-.407.152-.77.363-1.068.632a2.743 2.743 0 0 0-.718.936 2.821 2.821 0 0 0-.247 1.191c0 .806.203 1.467.61 1.975.414.516.98 1.01 1.699 1.474l.726.458c.269.174.515.334.719.479a2.8 2.8 0 0 1 .53.457c.145.16.254.342.327.545.072.203.108.436.108.711 0 .37-.152.683-.457.937-.305.262-.748.385-1.329.385-.32 0-.603-.036-.842-.116a2.796 2.796 0 0 1-.646-.305 2.735 2.735 0 0 1-.494-.37c-.138-.131-.254-.24-.349-.334l-.944 1.539c.117.123.262.269.436.421.174.152.4.29.66.421.27.13.574.24.93.341.349.095.763.138 1.227.138 1.191 0 2.099-.312 2.738-.936.631-.625.951-1.402.951-2.317 0-.85-.225-1.539-.675-2.084-.45-.537-1.068-1.038-1.852-1.503l-.726-.435c-.516-.32-.893-.618-1.147-.9-.247-.284-.37-.64-.37-1.075 0-.334.137-.625.406-.864.276-.247.668-.363 1.184-.363.544 0 .987.123 1.321.37.341.247.574.45.704.595zm-8.844-4.117c.24-.262.363-.596.363-1.017 0-.4-.124-.726-.363-.987-.24-.254-.552-.385-.944-.385-.4 0-.72.13-.959.385-.247.261-.363.588-.363.987 0 .421.116.755.363 1.017.24.254.56.385.959.385zm.021 3.18h-1.953V18.14h1.953zm-4.865 11.567v-7.595c0-.784-.08-1.445-.24-1.99-.159-.537-.384-.972-.674-1.306a2.515 2.515 0 0 0-1.06-.741 4.083 4.083 0 0 0-1.402-.225c-.45 0-.85.065-1.205.189-.349.13-.654.283-.915.45a2.884 2.884 0 0 0-.625.53c-.16.181-.268.327-.312.421h-.05v-1.3h-1.78V18.14h1.946V9.223a5.07 5.07 0 0 1 .923-.843c.384-.29.864-.435 1.445-.435.675 0 1.176.21 1.503.639.326.42.493 1.125.493 2.105v7.45zM164.29 3.392c.24-.262.363-.596.363-1.017 0-.399-.123-.726-.363-.987-.24-.254-.552-.385-.937-.385-.406 0-.726.13-.965.385-.247.261-.363.588-.363.987 0 .421.116.756.363 1.017.24.254.559.385.965.385zm.022 3.18h-1.953V18.14h1.953zM153.377 18.14v-7.762c0-.225-.008-.435-.03-.639a4.336 4.336 0 0 0-.072-.566c.21-.24.494-.494.857-.763.363-.261.813-.392 1.365-.392.653 0 1.154.21 1.488.625.342.421.509 1.096.509 2.047v7.45h1.953v-7.762c0-2.73-1.176-4.095-3.522-4.095-.385 0-.733.044-1.06.145a3.734 3.734 0 0 0-1.54.879 3.11 3.11 0 0 0-.457.515c-.544-1.024-1.48-1.539-2.795-1.539-.4 0-.763.05-1.082.167a3.262 3.262 0 0 0-.842.421 3.139 3.139 0 0 0-.603.53c-.16.189-.283.341-.363.472h-.05v-1.3h-1.78V18.14h1.954V9.223c.094-.116.21-.24.355-.385.146-.145.313-.283.509-.4.189-.123.414-.217.66-.304.255-.08.538-.117.857-.117.61 0 1.053.211 1.33.625.268.421.406 1.096.406 2.048v7.45zm-10.63-10.63c-.095-.094-.218-.21-.37-.348a3.235 3.235 0 0 0-.582-.407 3.338 3.338 0 0 0-.827-.341 4.495 4.495 0 0 0-1.162-.131c-.465 0-.9.073-1.307.225-.414.153-.77.363-1.075.632a2.723 2.723 0 0 0-.711.936 2.826 2.826 0 0 0-.255 1.191c0 .806.204 1.467.618 1.975.406.516.973 1.01 1.699 1.474l.719.458c.276.174.515.334.726.479.21.145.385.298.53.457.145.16.254.342.327.545.072.203.108.436.108.712 0 .37-.152.682-.457.936-.305.262-.748.385-1.329.385-.32 0-.602-.036-.842-.116a3.003 3.003 0 0 1-.654-.305 3.018 3.018 0 0 1-.493-.37c-.138-.131-.254-.24-.349-.334l-.937 1.539c.11.123.255.269.429.421.181.153.4.29.668.421.261.131.573.24.922.342a4.82 4.82 0 0 0 1.234.138c1.184 0 2.099-.313 2.73-.937.64-.625.952-1.402.952-2.316 0-.85-.225-1.54-.675-2.084-.45-.538-1.068-1.039-1.852-1.503l-.726-.436c-.508-.32-.893-.617-1.14-.9-.247-.284-.378-.64-.378-1.075 0-.334.138-.625.414-.864.269-.247.668-.363 1.177-.363.551 0 .994.123 1.328.37.334.247.567.45.697.595zm-12.097.363c.617 0 1.081.218 1.401.66.32.444.48 1.068.48 1.867 0 .181 0 .341-.008.494a2.65 2.65 0 0 1-.036.348h-4.22c.066-1.089.306-1.924.72-2.505.42-.574.973-.864 1.663-.864zm3.666 2.6c0-1.395-.312-2.448-.943-3.145-.625-.697-1.489-1.045-2.6-1.045a4.23 4.23 0 0 0-1.714.348c-.53.233-.994.588-1.394 1.075-.399.48-.718 1.096-.95 1.844-.233.741-.35 1.634-.35 2.658 0 1.096.11 2.026.335 2.81.225.777.544 1.423.95 1.924.415.508.908.879 1.497 1.126.588.24 1.241.355 1.967.355.545 0 1.017-.05 1.416-.167.407-.108.741-.246 1.017-.399.269-.152.486-.305.646-.457.16-.153.283-.269.363-.349l-.719-1.372a5.453 5.453 0 0 1-.305.268 4.12 4.12 0 0 1-.508.334 3.216 3.216 0 0 1-1.626.407c-.98 0-1.728-.32-2.251-.958-.523-.647-.813-1.649-.879-3.014h5.903c.03-.276.066-.588.095-.951.036-.363.05-.791.05-1.292zm-14.529 6.215c-.341 0-.66-.072-.966-.218-.305-.138-.58-.377-.82-.704-.24-.334-.429-.77-.567-1.307-.137-.537-.203-1.205-.203-2.011 0-.814.087-1.51.254-2.07.167-.566.4-1.024.69-1.372a2.38 2.38 0 0 1 1.024-.763 3.454 3.454 0 0 1 1.263-.225c.349 0 .647.037.879.117.232.087.436.181.61.29v7.138a2.268 2.268 0 0 1-.276.334c-.116.13-.269.254-.443.37a2.383 2.383 0 0 1-.624.305c-.247.08-.516.116-.82.116zm-4.582-4.168c0 1.06.11 1.968.327 2.716.218.748.508 1.358.879 1.83.37.472.798.82 1.292 1.03a3.75 3.75 0 0 0 1.554.327c.45 0 .842-.058 1.176-.181.342-.116.625-.261.85-.428.225-.175.4-.342.53-.509.123-.167.21-.305.261-.4h.051v1.235h1.78V.887l-1.954.21v5.548a2.605 2.605 0 0 0-.668-.203 4.717 4.717 0 0 0-.966-.087c-.61 0-1.22.101-1.83.297a4.168 4.168 0 0 0-1.64 1.024c-.48.486-.88 1.118-1.184 1.902-.305.792-.458 1.772-.458 2.941zm-2.381 5.62v-7.595c0-.784-.08-1.445-.24-1.99-.167-.537-.392-.972-.675-1.306a2.515 2.515 0 0 0-1.06-.741 4.083 4.083 0 0 0-1.402-.225c-.45 0-.85.065-1.205.189a4.88 4.88 0 0 0-.915.45 2.885 2.885 0 0 0-.624.53c-.16.181-.27.327-.313.421h-.05v-1.3h-1.78V18.14h1.947V9.223c.225-.276.53-.56.922-.843.385-.29.864-.435 1.437-.435.676 0 1.184.21 1.51.639.327.42.494 1.125.494 2.105v7.45zM101.569 6.572h-1.953v8.866a4.73 4.73 0 0 1-.915.828c-.385.283-.857.42-1.423.42-.654 0-1.14-.202-1.453-.609-.312-.414-.472-1.097-.472-2.062V6.572H93.4v7.588c0 .784.08 1.452.232 1.99.153.537.37.972.661 1.314.29.334.64.58 1.046.733a3.97 3.97 0 0 0 1.387.225c.435 0 .827-.058 1.183-.189.349-.13.654-.283.9-.45.248-.167.458-.341.618-.53.16-.181.261-.32.312-.421h.044v1.307h1.786zM88.65 13.485c0 .965-.276 1.692-.827 2.178-.552.494-1.453.733-2.687.733h-1.3v-5.823h1.423c1.09 0 1.932.261 2.513.777.588.523.878 1.234.878 2.135zm-.312-7.66c0 .958-.283 1.72-.864 2.265-.58.544-1.43.82-2.556.82h-1.082V3.174h1.111c1.17 0 2.026.247 2.578.748.545.494.813 1.132.813 1.902zm2.12-.073c0-.647-.101-1.228-.297-1.75a3.218 3.218 0 0 0-.98-1.336c-.45-.37-1.024-.654-1.721-.857-.698-.196-1.54-.298-2.513-.298h-3.21v16.628h3.399c.995 0 1.851-.116 2.577-.341.727-.225 1.322-.538 1.794-.937a3.7 3.7 0 0 0 1.053-1.423c.225-.545.334-1.147.334-1.808 0-.545-.087-1.046-.254-1.503a3.923 3.923 0 0 0-.676-1.198 3.801 3.801 0 0 0-.987-.843 3.61 3.61 0 0 0-1.213-.457v-.05c.349-.095.69-.24 1.024-.43a3.346 3.346 0 0 0 1.452-1.88c.146-.436.218-.944.218-1.517z"/></g><g><path fill="#f8d100" d="M63.636 82.93h3.035v40.495h-7.087V82.929"/></g><g><path fill="#e3000c" d="M63.636 42.232h3.035v40.7h-7.087v-40.7"/></g><g><path d="M28.553 16.796c.059-.45.088-.923.088-1.402 0-.261 0-.559-.03-.907 4.038-.059 7.574-2.963 7.574-6.303 0-1.706-1.111-2.984-1.736-3.754.146-.03.284-.065.429-.094.588.508 2.265 2.338 2.265 4.647 0 4.008-4.008 7.733-8.59 7.813zm-4.066-13.97a2.795 2.795 0 0 0-.5-1.199c.014-.406.18-.799.841-.48-.363.364-.087 1.01-.087 1.01s.734-.334.581-.82c1.082.261.305 1.713-.835 1.488zm-.937 2.061a4.162 4.162 0 0 0-.842-1.677c-.356-.421-.944-.922-1.735-.922-.363 0-.973.167-1.358.334-.145-.261-.428-.9-.428-1.184 0-.297.5-.588 1.444-.588 2.092 0 3.34.944 3.34 2.527 0 .552-.217 1.06-.42 1.51zm5.366 26.931c.247 0 .363.037.501.088.603 1.64 2.92 4.727 3.021 4.857l.022.03.029-.008c.573-.094 2.026-.312 3.238-.312h.03c.13 0 .283 0 .377.094.08.08.116.218.116.414 0 .298-.13.82-.283 1.038-.428-.464-1.118-.675-2.222-.675-.327 0-.726.102-.937.16l-.087.014-.094.03.632.638c.987.98 1.837 1.83 1.837 2.397 0 .341-.334.784-.64.98-.065-1.038-1.11-2.418-2.127-3.195l-.087-.065-.014.363c-.015.247-.037.617-.037 1.016 0 1.968-.203 2.266-.886 2.266-.101 0-.261-.03-.363-.066.385-.472.538-1.103.538-2.207l-.008-.508-.007-.407c0-.45.051-.784.087-1.053l.022-.152-.109-.015c-.32-.043-.915-.123-1.372-.123-.973 0-1.627.087-2.106.537-.32-.254-.646-.69-.646-.973 0-.414.261-.443.595-.443.167 0 .327.022.545.051.42.065 1.053.153 2.345.153h.08l-.022-.08c-.327-.937-1.234-2.31-2.68-4.067.131-.472.262-.777.712-.777zm-12.504 4.844l-.021.08h.08c1.3 0 1.931-.087 2.345-.153.218-.029.377-.05.544-.05.342 0 .596.028.596.442 0 .283-.327.72-.64.973-.478-.45-1.14-.537-2.112-.537-.45 0-1.046.08-1.365.123l-.051.008-.058.007.022.152c.036.269.08.603.08 1.053l-.008.407v.508c0 1.104.153 1.736.538 2.208a1.28 1.28 0 0 1-.37.065c-.683 0-.88-.298-.88-2.266 0-.399-.021-.77-.036-1.016l-.021-.363-.088.065c-1.016.777-2.062 2.157-2.127 3.195-.305-.196-.632-.639-.632-.98 0-.567.85-1.416 1.83-2.396l.64-.64-.19-.043c-.21-.058-.602-.16-.936-.16-1.104 0-1.794.21-2.222.676-.153-.218-.276-.741-.276-1.039 0-.196.036-.334.116-.414.094-.094.247-.094.378-.094h.021c1.22 0 2.672.218 3.239.312l.036.007.022-.029c.094-.13 2.41-3.216 3.013-4.857.138-.051.262-.088.501-.088.458 0 .581.305.72.777-1.453 1.758-2.353 3.13-2.687 4.067zm-6.259-27.68c0-2.31 1.678-4.14 2.273-4.648.145.03.283.066.421.095-.624.77-1.735 2.048-1.735 3.754 0 3.376 3.609 6.31 7.697 6.31-.03.283-.044.588-.044.9 0 .501.03.966.08 1.401-4.618-.029-8.692-3.775-8.692-7.812zM41.15 16.09c2.07 3.282 3.689 3.224 6.143 3.224-2.026-1.553-3.369-3.543-4.008-4.56L39.494 8.7a8.935 8.935 0 0 0-2.781-4.923c.486-.189.893-.378 1.132-.567-2.468 0-4.923-1.256-6.266-1.256-.871 0-1.43.523-1.43 1.206.058.762.842 1.539 2.294 1.539.334 0 .748-.044 1.213-.116.784 1.096 1.416 2.084 1.416 3.492 0 2.658-3.166 4.72-6.368 4.72-.182 0-.356 0-.538-.014-.29-.661-1.249-1.765-1.249-3.021 0-2.106 1.373-3.827 1.373-5.918 0-1.3-.632-2.098-.879-2.432.392-.363.828-.814.922-1.119-.225.095-.493.11-.893.11-1.532 0-2.78-.4-4.008-.4-.69 0-.878.218-.878.421 0 .073.014.153.029.189a4.361 4.361 0 0 0-.792-.225A6.466 6.466 0 0 0 20.63.283c-1.48 0-2.004.625-2.004 1.155 0 .45.349 1.27.755 1.902.581-.29 1.271-.494 1.59-.494.785 0 1.482.755 1.852 1.641-.523.058-.624.087-1.162.087-1.444 0-2.425-.515-2.628-.515-.022 0-.058.007-.058.036 0 .204.414.74 1.22 1.031 1.06.392 2.65.552 2.919.596 0 .05-.276.552-.574.646a.332.332 0 0 1-.189.007c-1.11-.218-1.416-.312-2.824-.85-.044-.014-.066.015-.066.059 0 .559 1.438 1.786 2.73 2.258-1.081 1.38-2.425 2.788-3.064 4.937-.181.015-.348.015-.537.015-3.195 0-6.368-2.062-6.368-4.72 0-1.409.632-2.396 1.423-3.493.458.073.879.117 1.206.117 1.452 0 2.236-.777 2.294-1.54 0-.682-.552-1.205-1.423-1.205-1.35 0-3.798 1.256-6.274 1.256.247.189.654.378 1.14.566A8.946 8.946 0 0 0 7.8 8.698l-3.79 6.056C3.377 15.771 2.034 17.76 0 19.314c2.454 0 4.073.058 6.15-3.224l1.939-3.108c.145.407.326.8.53 1.184l-3.863 6.18c-.64 1.023-1.968 2.998-4.008 4.56 2.454 0 4.073.057 6.15-3.225l3.318-5.315c.255.261.516.523.792.77l-4.69 7.508c-.647 1.024-1.969 2.991-4.009 4.552 2.447 0 4.074.058 6.143-3.216l4.575-7.32c.297.19.61.37.929.552l-5.584 8.924c-.639 1.031-1.968 2.992-4.008 4.56 2.454 0 4.074.051 6.15-3.224l5.744-9.2c.341.131.69.262 1.038.37l-6.491 10.391c-.64 1.017-1.99 3.014-4.008 4.56 2.447 0 4.073.058 6.143-3.216l6.92-11.08c.072.014.145.02.21.035.189.603.32 1.155.32 1.714 0 3.485-2.28 6.557-5.025 8.931.174.073.48.102.762.102.567 0 .937-.03 1.191-.073-.639 1.438-2.004 3.304-2.694 4.27-.893-.16-2.2-.29-3.057-.29-.893 0-.994.522-.994.994 0 .814.385 1.46.827 1.816.16-.414.494-.966 2.15-.966.029 0 .087 0 .167.007-.487.537-1.997 1.757-1.997 2.745 0 .653.719 1.626 1.655 1.626-.058-.21-.043-.399-.043-.544 0-.799.704-1.736 1.3-2.382-.015.189-.008.174-.008.4 0 1.88.167 2.752 1.365 2.752.589 0 .995-.327 1.133-.422-.777-.711-.813-1.277-.813-2.338v-.915c.007-.24 0-.559-.036-.791.428-.058.602-.058.93-.058 0 0 1.698-.138 2.112.748.457-.421 1.133-1.017 1.133-1.678 0-.435-.21-.929-1.09-.929-.326 0-1.372.203-2.243.203.232-.522 1.278-2.047 2.186-3.15.13.427.348.892.82 1.27.065-.712.487-2.963 1.598-4.284.13.893.305 1.808.305 3.732 0 4.683-1.126 8.14-3.522 8.808.312.537.973 1.024 1.655 1.024.872 0 1.351-.988 1.838-1.925.254.69.95 2.382 1.655 2.382.697 0 1.394-1.692 1.648-2.382.487.937.966 1.925 1.837 1.925.683 0 1.344-.487 1.656-1.024-2.389-.668-3.522-4.125-3.522-8.808 0-1.924.175-2.84.305-3.732 1.119 1.321 1.532 3.572 1.598 4.284.472-.378.69-.843.828-1.27.9 1.103 1.946 2.628 2.185 3.15-.878 0-1.924-.203-2.25-.203-.88 0-1.083.494-1.083.93 0 .66.668 1.256 1.133 1.677.407-.886 2.106-.748 2.106-.748.334 0 .5 0 .937.058-.044.232-.044.552-.044.791 0 .378.007.647.007.915 0 1.06-.043 1.627-.82 2.338.145.095.544.422 1.132.422 1.199 0 1.373-.872 1.373-2.752 0-.226 0-.211-.015-.4.603.646 1.307 1.583 1.307 2.382 0 .145.008.334-.05.544.943 0 1.662-.973 1.662-1.626 0-.988-1.517-2.208-1.997-2.745.073-.007.131-.007.16-.007 1.656 0 1.99.552 2.157.966.443-.356.82-1.002.82-1.816 0-.472-.101-.994-.994-.994-.857 0-2.157.13-3.057.29-.69-.966-2.055-2.832-2.694-4.27.261.044.632.073 1.19.073.284 0 .589-.03.763-.102-2.737-2.374-5.025-5.446-5.025-8.931 0-.56.131-1.11.32-1.714.073-.014.145-.021.21-.036l6.92 11.08c2.077 3.275 3.696 3.217 6.143 3.217-2.01-1.546-3.369-3.543-4-4.56l-6.492-10.39c.348-.11.697-.24 1.031-.37l5.751 9.2c2.07 3.274 3.696 3.223 6.143 3.223-2.04-1.568-3.362-3.529-4.008-4.56l-5.577-8.924c.313-.181.625-.363.922-.552l4.575 7.32c2.077 3.274 3.696 3.216 6.143 3.216-2.033-1.56-3.362-3.528-4.008-4.552l-4.684-7.508c.276-.247.538-.509.785-.77l3.325 5.315c2.07 3.282 3.696 3.224 6.143 3.224-2.033-1.561-3.362-3.536-4.008-4.56l-3.863-6.179c.21-.385.385-.777.53-1.184z"/></g><g><path d="M66.671 1.939v40.495h-7.087V1.94"/></g></g></g></g></svg>