<svg xmlns="http://www.w3.org/2000/svg" width="180" height="119" viewBox="0 0 180 119"><g><g><g><g><g><path fill="#131514" d="M48.799 51.318h32.513l2.69-4.66H56.877c-1.279 0-2.072-1.382-1.44-2.484l3.278-5.675-2.69-4.66-8.66 14.995c-.639 1.103.162 2.484 1.434 2.484"/></g><g><g><path fill="#1e7eb5" d="M47.366 18.843l16.061 27.815h5.38l-13.37-23.155c-.632-1.103.161-2.484 1.44-2.484h6.55l2.69-4.66H48.8c-1.272 0-2.073 1.381-1.433 2.484"/></g><g><path fill="#131514" d="M61.406 33.838l7.402-12.82 2.698-4.66 3.47-6.013c.631-1.102 2.226-1.102 2.866 0l3.47 6.013H86.7L77.842 1.017c-.64-1.103-2.235-1.103-2.867 0l-16.26 28.16 2.69 4.661"/></g></g><g><path fill="#1e7eb5" d="M84.002 21.019H95.94c1.271 0 2.073 1.381 1.433 2.484l-3.278 5.675 2.69 4.66 8.66-14.995a1.654 1.654 0 0 0-1.434-2.485H71.506l-2.698 4.66h15.194"/></g><g><path fill="#131514" d="M91.404 33.838l5.969 10.335c.64 1.103-.162 2.485-1.433 2.485h-6.55l-2.69 4.66h17.31a1.654 1.654 0 0 0 1.434-2.484l-11.35-19.656-4.704-8.16h-5.388l7.402 12.82"/></g><g><g><path fill="#1e7eb5" d="M74.975 66.66c.632 1.102 2.227 1.102 2.867 0l8.857-15.342 2.691-4.66 4.705-8.16-2.69-4.66-9.478 16.414-4.085 7.08c-.64 1.102-2.235 1.102-2.867 0l-3.47-6.014h-5.388l8.858 15.342"/></g><g><path fill="#131514" d="M14.036 49.017C5.553 49.017 0 56.256 0 65.45c.223-4.53 2.665-7.55 7.463-7.55 7.95 0 9.948 8.793 21.852 8.793 9.06 0 14.302-9.15 14.302-18.922v-.71c0 6.662-4.708 8.706-8.883 8.706-7.64 0-11.549-6.751-20.698-6.751zM3.953 8.51C1.91 10.907.8 13.794.8 17.037c0 4.264 2.575 8.172 7.55 8.172a7.544 7.544 0 0 0 7.551-7.55 7.545 7.545 0 0 0-7.55-7.551c-3.02 0-5.597 1.776-6.84 4.441.399-2.22 1.42-4.174 2.842-5.773zm13.192 29.047c-4.841 3.642-9.017 6.042-11.993 9.372 4.264-4.264 10.883-4.486 16.435-6.53 11.991-4.44 20.876-8.616 20.876-20.786 0-9.327-9.773-17.588-21.41-17.588-2.975 0-5.685.399-8.083 1.066v.088c1.332-.177 2.887-.177 4.264-.177 7.018 0 10.216 5.597 10.216 14.656 0 7.019-.978 12.882-10.305 19.899z"/></g></g><g><path fill="#131514" d="M123.655 49.017c-8.483 0-14.036 7.239-14.036 16.434.223-4.53 2.666-7.55 7.462-7.55 7.95 0 9.949 8.793 21.853 8.793 9.061 0 14.302-9.15 14.302-18.922v-.71c0 6.662-4.709 8.706-8.883 8.706-7.64 0-11.548-6.751-20.698-6.751zM113.573 8.51c-2.045 2.397-3.154 5.284-3.154 8.527 0 4.264 2.576 8.172 7.55 8.172a7.544 7.544 0 0 0 7.552-7.55 7.545 7.545 0 0 0-7.551-7.551c-3.02 0-5.596 1.776-6.84 4.441.398-2.22 1.42-4.174 2.843-5.773zm13.19 29.047c-4.84 3.642-9.016 6.042-11.991 9.372 4.264-4.264 10.882-4.486 16.434-6.53 11.991-4.44 20.875-8.616 20.875-20.786 0-9.327-9.772-17.588-21.409-17.588-2.975 0-5.684.399-8.084 1.066v.088c1.333-.177 2.888-.177 4.265-.177 7.017 0 10.216 5.597 10.216 14.656 0 7.019-.977 12.882-10.305 19.899z"/></g><g><path fill="#131514" d="M165.145 65.451V14.638h-8.706c10.038-1.599 18.744-6.573 23.274-12.702V65.45h-14.568"/></g><g><path fill="#131514" d="M.357 96.246c.507.051.895.085 1.15.085 1.165 0 1.74-.372 1.74-1.505V86.63h1.792v8.383c0 1.978-1.167 2.958-3.145 2.958-.49 0-.996-.067-1.538-.186v-1.538"/></g><g><path fill="#131514" d="M12.056 86.629v6.761c0 1.893 1.166 2.941 2.805 2.941 1.623 0 2.773-1.048 2.773-2.941v-6.761h1.791v6.643c0 2.94-1.943 4.698-4.564 4.698-2.67 0-4.597-1.757-4.597-4.698v-6.643zm.71-3.669c.659 0 1.149.474 1.149 1.1 0 .59-.524 1.098-1.15 1.098-.608 0-1.15-.507-1.15-1.098 0-.61.542-1.1 1.15-1.1zm4.14 0c.626 0 1.15.49 1.15 1.116 0 .592-.524 1.099-1.15 1.099-.608 0-1.149-.507-1.149-1.1 0-.607.541-1.115 1.15-1.115z"/></g><g><path fill="#131514" d="M24.652 86.629h3.499c3.65 0 6.068 2.265 6.068 5.56 0 3.246-2.434 5.595-6.068 5.595h-3.5zm3.482 9.55c2.586 0 4.242-1.657 4.242-3.99 0-2.366-1.64-3.937-4.242-3.937h-1.691v7.927z"/></g><g><path fill="#131514" d="M38.886 97.784h1.793V86.63h-1.793z"/></g><g><path fill="#131514" d="M46.494 94.59c.744 1.082 1.64 1.775 2.925 1.775 1.15 0 1.927-.609 1.927-1.555 0-.795-.474-1.133-1.64-1.674l-1.233-.574c-1.623-.744-2.604-1.607-2.604-3.094 0-1.825 1.59-3.025 3.516-3.025 1.572 0 2.907.794 3.6 1.995l-1.25.963c-.592-.88-1.403-1.353-2.35-1.353-.946 0-1.69.474-1.69 1.353.068.878.456 1.03 1.555 1.588l1.25.575c1.809.828 2.671 1.708 2.671 3.179 0 1.942-1.589 3.227-3.735 3.227-1.826 0-3.347-.913-4.209-2.417l1.268-.963"/></g><g><path fill="#131514" d="M63.197 86.443c2.045 0 3.82.997 4.784 2.569l-1.353.997c-.794-1.233-1.944-1.927-3.414-1.927-2.282 0-4.022 1.758-4.022 4.125 0 2.366 1.74 4.124 4.022 4.124 1.47 0 2.62-.693 3.414-1.927l1.353.997c-.947 1.572-2.704 2.57-4.784 2.57-3.178.05-5.933-2.57-5.864-5.764-.069-3.195 2.686-5.816 5.864-5.764"/></g><g><path fill="#131514" d="M72.666 86.629h1.792v4.445h5.612v-4.445h1.792v11.155H80.07V92.68h-5.612v5.104h-1.792V86.63"/></g><g><path fill="#131514" d="M87.223 86.629h7.336v1.605h-5.545v2.857h4.176v1.555h-4.176v3.533h5.747v1.605h-7.538V86.63"/></g><g><path fill="#131514" d="M99.852 94.59c.743 1.082 1.639 1.775 2.923 1.775 1.15 0 1.927-.609 1.927-1.555 0-.795-.473-1.133-1.639-1.674l-1.234-.574c-1.623-.744-2.604-1.607-2.604-3.094 0-1.825 1.59-3.025 3.516-3.025 1.573 0 2.908.794 3.601 1.995l-1.25.963c-.592-.88-1.404-1.353-2.35-1.353-.947 0-1.69.474-1.69 1.353.067.878.456 1.03 1.555 1.588l1.25.575c1.81.828 2.671 1.708 2.671 3.179 0 1.942-1.589 3.227-3.735 3.227-1.826 0-3.347-.913-4.21-2.417l1.269-.963"/></g><g><path fill="#131514" d="M118.634 86.629h1.793v9.55h5.105v1.605h-6.898V86.63"/></g><g><path fill="#131514" d="M129.877 86.629h7.337v1.605h-5.544v2.857h4.175v1.555h-4.175v3.533h5.746v1.605h-7.539V86.63"/></g><g><path fill="#131514" d="M146.817 97.784h-4.784V86.63h3.906c2.011 0 3.347 1.25 3.347 2.975 0 .861-.321 1.571-.93 2.095 1.302.423 2.079 1.471 2.079 2.84 0 1.877-1.437 3.245-3.618 3.245zm-3.025-9.584v3.009h1.978c1.099 0 1.724-.592 1.724-1.52 0-.93-.625-1.489-1.724-1.489zm2.873 4.548h-2.873v3.465h2.873c1.234 0 1.961-.66 1.961-1.725 0-1.064-.727-1.74-1.96-1.74z"/></g><g><path fill="#131514" d="M155.018 86.629h7.336v1.605h-5.545v2.857h4.176v1.555h-4.176v3.533h5.747v1.605h-7.538V86.63"/></g><g><path fill="#131514" d="M176.369 86.629V97.97h-.609l-6.795-7.74v7.554h-1.791V86.443h.625l6.779 7.707V86.63h1.791"/></g><g><g><path fill="#131514" d="M1.404 118.072h1.792v-11.156H1.404z"/></g><g><path fill="#131514" d="M17.735 106.916v11.342h-.61l-6.794-7.74v7.554H8.539V106.73h.626l6.778 7.708v-7.522h1.792"/></g></g><g><path fill="#131514" d="M30.365 106.916h3.5c3.65 0 6.068 2.265 6.068 5.562 0 3.245-2.434 5.594-6.068 5.594h-3.5zm3.482 9.55c2.587 0 4.243-1.656 4.243-3.988 0-2.367-1.64-3.939-4.243-3.939h-1.69v7.927z"/></g><g><g><path fill="#131514" d="M44.905 106.916h7.337v1.606h-5.545v2.857h4.175v1.555h-4.175v3.532h5.747v1.606h-7.539v-11.156"/></g><g><path fill="#131514" d="M57.248 106.916h1.792v6.761c0 1.894 1.166 2.941 2.805 2.941 1.623 0 2.773-1.047 2.773-2.94v-6.762h1.791v6.643c0 2.941-1.943 4.7-4.564 4.7-2.67 0-4.597-1.759-4.597-4.7v-6.643"/></g><g><path fill="#131514" d="M74.56 108.522h-3.753v-1.606h9.314v1.606h-3.77v9.55H74.56v-9.55"/></g><g><path fill="#131514" d="M85.11 114.878c.744 1.082 1.64 1.774 2.924 1.774 1.15 0 1.927-.608 1.927-1.554 0-.795-.473-1.133-1.639-1.673l-1.234-.575c-1.623-.744-2.604-1.606-2.604-3.093 0-1.826 1.59-3.027 3.516-3.027 1.572 0 2.907.795 3.601 1.995l-1.252.964c-.59-.88-1.402-1.353-2.349-1.353-.946 0-1.69.473-1.69 1.353.068.878.456 1.03 1.555 1.588l1.25.575c1.81.829 2.672 1.707 2.672 3.178 0 1.944-1.59 3.228-3.736 3.228-1.826 0-3.346-.913-4.209-2.416l1.268-.964"/></g><g><path fill="#131514" d="M102.116 106.73c2.045 0 3.82.998 4.784 2.57l-1.352.997c-.794-1.234-1.944-1.927-3.415-1.927-2.281 0-4.022 1.758-4.022 4.125 0 2.366 1.74 4.123 4.022 4.123 1.47 0 2.62-.692 3.415-1.926l1.352.997c-.946 1.572-2.704 2.57-4.784 2.57-3.177.05-5.932-2.57-5.864-5.764-.068-3.196 2.687-5.816 5.864-5.765"/></g></g><g><path fill="#131514" d="M111.89 106.916h1.791v4.446h5.613v-4.446h1.791v11.156h-1.791v-5.104h-5.613v5.104h-1.79v-11.156"/></g><g><path fill="#131514" d="M126.75 106.916h1.793v9.55h5.105v1.606h-6.898v-11.156"/></g><g><g><path fill="#131514" d="M144.991 116.213h-5.02l-.794 1.86h-1.91l4.919-11.343h.608l4.919 11.342h-1.927zm-2.501-6.152l-1.877 4.614h3.736z"/></g><g><path fill="#131514" d="M161.526 106.916v11.342h-.61l-6.794-7.74v7.554h-1.792V106.73h.626l6.778 7.708v-7.522h1.792"/></g></g><g><path fill="#131514" d="M167.19 106.916h3.5c3.652 0 6.069 2.265 6.069 5.562 0 3.245-2.435 5.594-6.068 5.594h-3.5zm3.483 9.55c2.587 0 4.243-1.656 4.243-3.988 0-2.367-1.64-3.939-4.243-3.939h-1.69v7.927z"/></g></g></g></g></g></svg>