<svg xmlns="http://www.w3.org/2000/svg" width="524" height="85" viewBox="0 0 524 85"><g><g><g><path d="M71.074 15.828c10.35 8.066 26.177 20.698 26.33 20.85-5.327 4.718-10.35.914-10.654.61-.457-.457-10.35-8.371-15.828-12.785.152-.457.152-1.217.152-1.826zm-4.718 51.746c.761 0 1.37-.761 1.37-1.674 0-.305 0-.61-.152-.761-.305.456-.761.76-1.218.76-.609 0-1.065-.304-1.217-.76-.153.304-.153.456-.153.76 0 .914.61 1.675 1.37 1.675zm-3.044-7.61c0-.304 0-.609-.152-.761-.304.457-.76.761-1.218.761-.608 0-1.065-.304-1.217-.761-.152.304-.152.457-.152.761 0 .913.609 1.674 1.37 1.674zm-3.652 7.61c.76 0 1.37-.761 1.37-1.674 0-.305 0-.61-.153-.761-.304.456-.76.76-1.217.76-.61 0-1.066-.304-1.218-.76-.152.304-.152.456-.152.76 0 .914.609 1.675 1.37 1.675zm-.914-11.871c.761 0 1.37-.761 1.37-1.675 0-.304 0-.608-.152-.76-.304.456-.761.76-1.218.76-.608 0-1.065-.304-1.217-.76-.152.304-.152.456-.152.76zm-3.348-29.83c.761 0 1.218-.761 1.37-1.674 0-.305 0-.61-.152-.761-.305.456-.761.76-1.218.76-.609 0-1.065-.304-1.217-.76-.153.304-.153.456-.153.76 0 .914.61 1.675 1.37 1.675zm0 12.023c.761 0 1.218-.76 1.37-1.674 0-.304 0-.609-.152-.761-.305.457-.761.76-1.218.76-.609 0-1.065-.303-1.217-.76-.153.304-.153.457-.153.76 0 .914.61 1.675 1.37 1.675zm0 11.871c.761 0 1.218-.76 1.37-1.674 0-.304 0-.609-.152-.761-.305.457-.761.76-1.218.76-.609 0-1.065-.303-1.217-.76-.153.304-.153.457-.153.76 0 .914.61 1.675 1.37 1.675zm0 11.871c.761 0 1.218-.76 1.37-1.674 0-.304 0-.609-.152-.761-.305.457-.761.761-1.218.761-.609 0-1.065-.304-1.217-.761-.153.304-.153.457-.153.761 0 .913.61 1.674 1.37 1.674zm-3.348-41.7c.76 0 1.37-.762 1.37-1.675 0-.304 0-.609-.153-.76-.304.456-.76.76-1.217.76-.609 0-1.065-.304-1.218-.76-.152.304-.152.456-.152.76 0 .913.609 1.674 1.37 1.674zm0 11.87c.76 0 1.37-.76 1.37-1.674 0-.304 0-.609-.153-.76-.304.456-.76.76-1.217.76-.609 0-1.065-.304-1.218-.76-.152.304-.152.456-.152.76 0 .913.609 1.674 1.37 1.674zm0 12.024c.76 0 1.37-.761 1.37-1.675 0-.304 0-.608-.153-.76-.304.456-.76.76-1.217.76-.609 0-1.065-.304-1.218-.76-.152.304-.152.456-.152.76 0 .914.609 1.675 1.37 1.675zm0 11.87c.76 0 1.37-.76 1.37-1.674 0-.304 0-.608-.153-.76-.304.456-.76.76-1.217.76-.609 0-1.065-.304-1.218-.76-.152.304-.152.456-.152.76 0 .914.609 1.675 1.37 1.675zm5.479-14.306c-.152.153-.152.457-.152.761 0 .914.608 1.675 1.37 1.675.76 0 1.37-.761 1.37-1.675 0-.304 0-.608-.153-.76-.304.456-.761.76-1.218.76-.608 0-1.065-.304-1.217-.76zm0-12.023c-.152.305-.152.457-.152.761 0 .913.608 1.674 1.37 1.674.76 0 1.37-.76 1.37-1.674 0-.304 0-.609-.153-.76-.304.456-.761.76-1.218.76-.608 0-1.065-.304-1.217-.76zm3.5 18.72c0 .913.457 1.674 1.218 1.674.609 0 1.217-.76 1.217-1.674 0-.304 0-.609-.152-.761-.304.457-.76.76-1.217.76-.61 0-1.066-.303-1.218-.76zm0-23.894c0 .913.457 1.674 1.218 1.674.609 0 1.217-.761 1.217-1.674 0-.305 0-.61-.152-.761-.304.456-.76.76-1.217.76-.61 0-1.066-.304-1.218-.76zm-12.327 1.674c.76 0 1.37-.761 1.37-1.674 0-.305 0-.61-.153-.761-.304.456-.76.76-1.217.76-.61 0-1.066-.304-1.218-.76-.152.304-.152.456-.152.76 0 .914.609 1.675 1.37 1.675zm0 12.023c.76 0 1.37-.76 1.37-1.674 0-.304 0-.609-.153-.761-.304.457-.76.76-1.217.76-.61 0-1.066-.303-1.218-.76-.152.304-.152.457-.152.76 0 .914.609 1.675 1.37 1.675zm0 11.871c.76 0 1.37-.76 1.37-1.674 0-.304 0-.609-.153-.761-.304.457-.76.76-1.217.76-.61 0-1.066-.303-1.218-.76-.152.304-.152.457-.152.76 0 .914.609 1.675 1.37 1.675zm-3.349-29.83c.761 0 1.37-.76 1.37-1.674 0-.304 0-.609-.152-.76-.304.456-.761.76-1.218.76-.608 0-1.065-.304-1.217-.76-.152.304-.152.456-.152.76 0 .913.609 1.674 1.37 1.674zm0 11.871c.761 0 1.37-.76 1.37-1.674 0-.304 0-.609-.152-.76-.304.456-.761.76-1.218.76-.608 0-1.065-.304-1.217-.76-.152.304-.152.456-.152.76 0 .913.609 1.674 1.37 1.674zm0 12.024c.761 0 1.37-.761 1.37-1.675 0-.304 0-.608-.152-.76-.304.456-.761.76-1.218.76-.608 0-1.065-.304-1.217-.76-.152.304-.152.456-.152.76 0 .914.609 1.675 1.37 1.675zm0 11.87c.761 0 1.37-.76 1.37-1.674 0-.304 0-.608-.152-.76-.304.456-.761.76-1.218.76-.608 0-1.065-.304-1.217-.76-.152.304-.152.456-.152.76 0 .914.609 1.675 1.37 1.675zm-3.348-29.83c.761 0 1.37-.76 1.37-1.673 0-.305 0-.61-.152-.761-.305.456-.761.76-1.218.76-.609 0-1.065-.304-1.217-.76-.153.304-.153.456-.153.76 0 .914.61 1.675 1.37 1.675zm0 12.024c.761 0 1.37-.76 1.37-1.674 0-.304 0-.609-.152-.761-.305.457-.761.76-1.218.76-.609 0-1.065-.303-1.217-.76-.153.304-.153.457-.153.76 0 .914.61 1.675 1.37 1.675zm0 11.871c.761 0 1.37-.76 1.37-1.674 0-.304 0-.609-.152-.761-.305.457-.761.76-1.218.76-.609 0-1.065-.303-1.217-.76-.153.304-.153.457-.153.76 0 .914.61 1.675 1.37 1.675zm0 11.871c.761 0 1.37-.76 1.37-1.674 0-.304 0-.609-.152-.761-.305.457-.761.761-1.218.761-.609 0-1.065-.304-1.217-.761-.153.304-.153.457-.153.761 0 .913.61 1.674 1.37 1.674zm-3.348-29.83c.761 0 1.37-.76 1.37-1.674 0-.304 0-.609-.152-.76-.305.456-.761.76-1.218.76-.609 0-1.065-.304-1.218-.76-.152.304-.152.456-.152.76 0 .913.609 1.674 1.37 1.674zm0 12.024c.761 0 1.37-.761 1.37-1.675 0-.304 0-.608-.152-.76-.305.456-.761.76-1.218.76-.609 0-1.065-.304-1.218-.76-.152.304-.152.456-.152.76 0 .914.609 1.675 1.37 1.675zm0 11.87c.761 0 1.37-.76 1.37-1.674 0-.304 0-.608-.152-.76-.305.456-.761.76-1.218.76-.609 0-1.065-.304-1.218-.76-.152.304-.152.456-.152.76 0 .914.609 1.675 1.37 1.675zm-.913 11.872c.76 0 1.217-.761 1.37-1.674 0-.305 0-.61-.153-.761-.304.456-.76.76-1.217.76-.609 0-1.066-.304-1.218-.76-.152.304-.152.456-.152.76 0 .914.609 1.675 1.37 1.675zm-2.283-5.936c.609 0 1.217-.76 1.37-1.674 0-.304 0-.609-.153-.761-.304.457-.76.761-1.217.761-.609 0-1.065-.304-1.218-.761-.152.304-.152.457-.152.761 0 .913.609 1.674 1.37 1.674zm-4.414 5.936c.761 0 1.37-.761 1.37-1.674 0-.305 0-.61-.152-.761-.305.456-.761.76-1.218.76-.608 0-1.065-.304-1.217-.76-.152.304-.152.456-.152.76 0 .914.608 1.675 1.37 1.675zm3.196-20.242c-.152.152-.152.457-.152.76 0 .914.609 1.675 1.37 1.675.76 0 1.37-.76 1.37-1.674 0-.304 0-.609-.153-.761-.304.457-.76.76-1.217.76-.609 0-1.065-.303-1.218-.76zm-.152-23.133c0 .913.609 1.674 1.37 1.674.76 0 1.37-.761 1.37-1.674 0-.305 0-.61-.153-.761-.304.456-.76.76-1.217.76-.609 0-1.065-.304-1.218-.76-.152.304-.152.456-.152.76zM45.962 2.13a1.04 1.04 0 0 0-1.065-1.066 1.04 1.04 0 0 0-1.065 1.066 1.04 1.04 0 0 0 1.065 1.065zm32.265 76.096s1.522.609 1.065 2.13c0 0-.304.762-1.065.914 0 0 .609-1.065-.152-1.37l-4.261-1.826s1.978 2.587 2.435 3.196c.152 0 1.065 1.218-.153 2.283 0 0-.608.456-1.37.304 0 0 1.066-.609.457-1.217l-3.348-3.653s.913 2.892 1.218 3.653c0 0 .608 1.522-.914 2.13 0 0-.76.457-1.37 0 0 0 1.218-.304.914-1.065l-.913-2.13s-.761-1.98-1.979-2.131l-.609-.153c-2.435-.304-3.5 0-3.5 0-.913.305-.304 1.522-.304 1.522-.761-.152-1.066-1.065-1.066-1.065-.456-1.674 1.218-2.435 1.218-2.435.76-.304 1.37-.609 1.37-.609s-9.589-7.457-17.046-15.067c-7.305 7.61-17.046 15.067-17.046 15.067s.61.305 1.37.609c.152.152 1.674.76 1.218 2.435 0 0-.153.761-1.066 1.065 0 0 .609-1.217-.304-1.522 0 0-1.066-.304-3.5 0l-.61.153c-1.217.152-1.978 2.13-1.978 2.13l-.913 1.979c-.304.76.913 1.065.913 1.065-.609.305-1.37 0-1.37 0-1.522-.609-.913-2.13-.913-2.13.305-.761 1.218-3.653 1.218-3.653l-3.348 3.652c-.61.61.456 1.218.456 1.218-.76.304-1.37-.304-1.37-.304-1.37-1.066-.304-2.283-.304-2.283.457-.609 2.435-3.196 2.435-3.196l-4.261 1.826c-.761.304-.153 1.37-.153 1.37-.76-.152-1.065-.913-1.065-.913-.76-1.522.761-2.131.761-2.131.761-.304 5.479-2.74 5.479-2.74s2.74-17.197 9.74-40.787c-1.217-.609-6.544-4.262-6.696-11.871V12.48L.76 33.178c.457-2.435 3.653-12.936 14.458-23.285 0 0 9.132-8.675 14.763-8.675.913 0 5.175.304 5.175 6.392v10.958s0 2.282 1.826 2.282h1.522c1.37-3.957 2.891-8.066 4.413-12.175.153-.152.153-.457.153-.609 0-1.37-1.522-1.826-2.131-1.978h-1.065l.152-.152c.304-.457.913-.61 1.826-.61h3.957s.609 0 .609-.456-.609-.456-.609-.456h-4.261c-1.066 0-1.827.456-2.283.913-.457.609-.457 1.065-.457 1.522-.152-.61-.609-2.283-.456-3.653.152-.76 1.217-3.044 7.153-3.196 2.283 0 3.957.304 5.022.913 1.674.761 3.957 2.283 5.479 7.305l.457 1.37c1.217 3.653 2.282 7.458 3.348 11.11h.456c1.827 0 1.827-2.283 1.827-2.283V7.61c0-6.088 4.261-6.392 5.174-6.392 5.631 0 14.763 8.675 14.763 8.675 10.806 10.349 14.002 20.85 14.458 23.285L69.857 12.48v10.349c-.153 7-4.87 10.653-6.393 11.719 1.218 4.718 2.283 9.436 3.349 13.697 1.826 6.849 3.957 16.133 5.935 27.243l5.48 2.74zM70.922 59.66S85.228 73.51 85.38 73.66c-5.479 4.11-10.045-.456-10.197-.608l-1.978-1.979zm-60.42-10.806c-.457.304-5.175 3.805-10.35-.609.152-.152 26.634-21.763 26.634-21.763.76 2.435 1.826 4.413 3.044 5.935-6.088 5.175-18.263 15.676-19.329 16.437zm60.115-22.372S97.1 48.093 97.251 48.245c-5.174 4.414-9.892.913-10.349.609-1.065-.761-13.24-11.11-19.328-16.437zm-.304 30.286c-.913-3.5-1.826-7.61-2.892-11.871 0 0 23.438 21.763 23.59 21.916-5.783 3.804-10.044 0-10.501-.457-.609-.457-5.631-5.174-10.197-9.588zm-3.805-23.133s28.156 24.35 28.308 24.503c-5.479 4.565-10.197.304-10.501 0-.457-.305-11.262-10.197-17.655-16.133-.608-2.283-1.37-4.566-1.978-6.848zM0 36.678c.152-.152 15.98-12.784 26.33-20.85v6.849c0 .609 0 1.217.152 1.826-5.48 4.566-15.372 12.328-15.828 12.784-.305.305-5.327 4.11-10.654-.609zm42.918 32.265c1.675-1.522 3.5-3.196 5.175-4.87v16.285c0 1.37-1.218 2.587-2.587 2.587-1.37 0-2.588-1.217-2.588-2.587zm6.392-5.022c1.675 1.674 3.5 3.348 5.175 4.87v11.567c0 1.37-1.217 2.587-2.587 2.587s-2.588-1.217-2.588-2.587zm6.393 5.936c1.978 1.674 3.652 3.196 5.174 4.413v6.24c0 1.37-1.217 2.587-2.587 2.587s-2.587-1.217-2.587-2.587zM2.739 57.985c.305-.152 28.308-24.503 28.308-24.503.761.61 1.37 1.218 1.827 1.522-.761 2.435-1.37 4.718-1.979 6.849-6.392 5.783-17.198 15.828-17.654 16.132zm14.154 8.219c-.456.456-4.718 4.261-10.5.456.151-.152 23.589-21.915 23.589-21.915-1.065 4.413-2.13 8.37-2.892 12.023zm19.633 8.066a102.58 102.58 0 0 0 5.175-4.413V80.51c0 1.37-1.218 2.587-2.587 2.587-1.37 0-2.588-1.217-2.588-2.587zM22.22 73.053c-.304.152-4.718 4.718-10.197.608.152-.152 14.459-14.001 14.459-14.001-1.066 4.87-1.827 8.675-2.283 11.414z"/></g><g><path d="M515.934 49.006c-2.74 0-3.653-1.826-3.653-4.413 0-2.588.913-4.414 3.653-4.414 2.891 0 3.652 2.13 3.652 4.414 0 2.587-.913 4.413-3.652 4.413zm-3.5 6.392h5.326c1.37-.152 2.892-.152 3.653 1.218 1.674 3.5-2.283 5.783-5.023 5.783-2.13 0-4.565-.76-5.174-2.892-.305-1.522.304-2.891 1.217-4.261zm7.305-15.828c-1.218-.456-2.588-.609-3.957-.609-3.5 0-6.393 1.979-6.393 5.632 0 1.674.61 3.043 1.827 4.109-.761 1.978-1.066 4.261 0 6.24-1.674 1.065-2.588 1.978-2.588 4.109 0 3.652 4.718 4.261 7.458 4.261 3.653 0 7.914-1.978 7.914-6.087 0-3.805-2.587-4.566-5.936-4.566-1.37 0-2.74.152-4.261.152-1.979 0-2.283-1.674-1.674-3.653.457.152 1.217.61 3.348.761 3.653 0 7.001-1.522 7.001-5.479 0-1.522-.457-2.891-1.37-3.957l2.892.152v-1.37h-.457zm-17.807 7.762v3.196c0 2.587-.761 3.653-3.653 3.653-2.13 0-2.891-1.37-2.891-3.349 0-3.196 1.978-3.5 4.718-3.5zm-.152-4.566v3.5c-3.805 0-9.588-.76-9.588 4.414 0 3.653 1.978 4.718 5.479 4.718 1.522 0 3.043-.456 4.261-1.522v1.37h5.327v-1.065c-2.435 0-2.74-.153-2.74-2.283v-7.305c0-3.957-1.37-5.327-5.479-5.327-2.435 0-5.63.456-5.935 3.5-.152.913.152 1.674 1.065 1.674.761 0 1.522-.152 1.522-.913 0-1.978.152-3.196 3.044-3.196 1.978 0 3.196.609 3.196 2.435zm-16.133-2.283h3.957v-1.217H485.8v-5.631l-2.74 1.217v4.566h-2.587v1.217h2.587v9.436c0 2.74.152 5.175 3.653 5.175 1.217 0 2.891-.457 3.957-.913l-.457-.913-.609.304c-.608.152-1.065.304-1.674.304-2.13 0-2.283-1.978-2.283-3.652v-9.588zm-19.632 9.436v4.718a8.88 8.88 0 0 0 3.957.913c3.5 0 7.61-.608 7.61-5.022 0-3.957-3.806-4.11-6.697-5.022-1.218-.305-1.979-1.218-1.979-2.131 0-1.979.609-2.892 3.196-3.044 2.892 0 2.588 1.218 2.892 3.653h1.826v-3.957a10.743 10.743 0 0 0-4.261-.913c-3.5 0-6.24 1.217-6.24 5.022 0 2.74 2.13 3.5 4.261 3.957 2.131.457 4.262.913 4.262 3.044 0 2.13-2.13 3.044-3.957 3.044-3.653 0-3.044-2.131-3.349-4.262zm-14.307-3.805c0-2.891.61-5.935 3.957-5.935 3.349 0 3.957 2.892 3.805 5.935zm10.958 1.218c.305-4.87-1.37-8.218-6.544-8.218-4.566 0-7.305 2.739-7.305 7.305 0 5.022 1.065 8.98 6.848 8.98 3.5 0 6.088-1.37 6.697-5.023 0-.609-.609-.609-1.065-.609-.61 0-1.218 0-1.218.609-.304 1.522-.457 3.957-3.957 3.957-4.414 0-4.414-3.957-4.414-7.001zm-22.829 1.522c0 3.044-.913 5.327-4.413 5.327s-4.414-3.5-4.414-6.24c0-3.196 0-7.61 4.414-7.61 4.109 0 4.413 2.74 4.413 6.24zm.153-15.372v7.458c-1.522-1.37-2.892-1.826-4.87-1.826-5.48 0-7.154 4.109-7.154 8.827 0 4.566 2.283 7.457 7.001 7.457 2.13 0 3.653-.76 5.023-2.283v1.979H445.773v-1.066c-2.892 0-3.044-.456-3.044-2.435V29.982h-5.783v1.065c2.74.153 3.044.305 3.044 2.435zm-28.613 7.914v-2.13h-5.63v1.065c2.739.152 3.043.305 3.043 2.435v8.827c0 2.435-.456 2.283-3.044 2.435v1.066h8.675v-1.066c-2.74 0-2.891-.608-2.891-2.435v-6.087c0-3.044.608-5.023 4.109-5.023 3.5 0 3.5 2.435 3.5 5.175v5.935c0 2.435-.456 2.283-2.891 2.435v1.066H424.77v-1.066c-2.74 0-2.891-.456-2.891-2.435v-6.696c0-3.653-.457-5.783-4.87-5.783-2.588 0-3.653.76-5.632 2.282zm-15.067 11.9v1.493H402.094v-1.065c-2.892 0-3.044-.304-3.044-2.283V39.266h-5.631v1.065c2.739 0 2.891.457 2.891 2.283v5.479c0 3.196-.152 5.783-4.109 5.783-3.196 0-3.348-1.978-3.348-4.566v-9.892h-5.784v1.065c2.892 0 3.044.305 3.044 2.283v8.37c0 3.35 1.979 4.262 5.023 4.262 1.599 0 4.031-.833 5.174-2.101zm-29.069.428V43.68h3.957c3.805 0 5.327 1.066 5.327 5.023 0 1.978-.304 4.109-2.587 4.718-1.674.456-3.196.456-4.87.456l-1.827-.152zm0-20.394c1.218 0 2.435-.152 3.653-.152 3.653 0 5.022.609 5.022 4.566 0 2.891-1.217 4.566-4.109 4.566h-4.566zm-6.392 21.916h9.893c1.826-.152 4.718-.152 6.24-1.065 2.283-1.218 2.891-2.892 2.891-5.48 0-3.652-1.826-5.326-5.479-5.783 3.197-.608 4.718-1.978 4.718-5.326 0-5.175-3.348-5.631-7.61-5.631H360.85v1.065c3.196 0 3.196.456 3.196 2.283v16.437c0 1.826.153 2.282-3.196 2.282zm-18.415-15.98h-5.631v1.065c2.74.152 3.044.304 3.044 2.435v8.827c0 2.131-.305 2.435-3.044 2.435v1.066h9.131v-1.066c-3.196 0-3.348-.304-3.348-2.435v-7c0-1.37.305-3.958 2.283-3.958.761 0 1.37.457 1.37 1.37 0 1.066 0 1.674 1.217 1.674 1.37 0 1.37-.76 1.37-1.826 0-1.826-1.218-2.74-3.044-2.74-1.37 0-2.435.914-3.348 1.98zm-18.415 6.848c0-2.891.608-5.935 3.957-5.935 3.348 0 3.957 2.892 3.804 5.935zm10.957 1.218c.305-4.87-1.37-8.218-6.544-8.218-4.566 0-7.305 2.739-7.305 7.305 0 5.022 1.065 8.98 6.849 8.98 3.5 0 6.087-1.37 6.696-5.023 0-.609-.609-.609-1.065-.609-.61 0-1.218 0-1.218.609-.304 1.522-.456 3.957-3.957 3.957-4.413 0-4.413-3.957-4.413-7.001zm-19.937 4.261v-6.848c0-3.653-.456-5.784-4.87-5.784-3.348.153-4.718 1.218-5.479 2.283V29.982h-5.783v1.065c2.891 0 3.044.457 3.044 2.435v18.111c0 2.435-.457 2.283-3.044 2.435v1.066h8.827v-1.066c-2.892 0-3.044-.456-3.044-2.435v-6.087c0-3.044.913-5.023 4.262-5.023 3.5 0 3.5 2.435 3.5 5.175v5.935c0 2.435-.457 2.283-3.044 2.435v1.066h8.827v-1.066c-2.891 0-3.044-.456-3.044-2.435zm-19.024-1.217h-1.674c-.457 2.435-.152 4.109-3.957 4.109-4.566 0-5.022-3.5-5.022-7.153 0-3.653.456-7 5.022-7 3.957 0 3.5 2.282 3.805 3.956h1.826v-3.5c-1.217-1.218-4.413-1.522-6.088-1.522-5.63 0-7.61 2.74-7.61 8.066 0 5.479 1.675 8.218 7.458 8.218 2.283 0 4.11-.304 6.24-1.37zm-28.612-.457v4.718a8.88 8.88 0 0 0 3.957.913c3.5 0 7.61-.608 7.61-5.022 0-3.957-3.805-4.11-6.697-5.022-1.217-.305-1.978-1.218-1.978-2.131 0-1.979.608-2.892 3.196-3.044 2.891 0 2.587 1.218 2.891 3.653h1.827v-3.957a10.743 10.743 0 0 0-4.262-.913c-3.5 0-6.24 1.217-6.24 5.022 0 2.74 2.13 3.5 4.262 3.957 2.13.457 4.261.913 4.261 3.044 0 2.13-2.13 3.044-3.957 3.044-3.653 0-3.044-2.131-3.348-4.262zm-7.61-9.436h3.957v-1.217h-3.805v-5.631l-2.74 1.217v4.566h-2.586v1.217h2.587v9.436c0 2.74.152 5.175 3.653 5.175 1.217 0 2.891-.457 3.957-.913l-.457-.913-.609.304c-.609.152-1.065.304-1.674.304-2.13 0-2.283-1.978-2.283-3.652v-9.588zm-13.24 12.814v1.492H252.335v-1.065c-2.892 0-3.044-.304-3.044-2.283V39.266h-5.631v1.065c2.74 0 2.891.457 2.891 2.283v5.479c0 3.196-.152 5.783-4.109 5.783-3.196 0-3.348-1.978-3.348-4.566v-9.892h-5.783v1.065c2.891 0 3.044.305 3.044 2.283v8.37c0 3.349 1.978 4.262 5.022 4.262 1.599 0 4.031-.833 5.174-2.101zm-26.026-7.183c0-2.891.61-5.935 3.957-5.935 3.349 0 3.957 2.892 3.805 5.935zm10.958 1.218c.305-4.87-1.37-8.218-6.544-8.218-4.566 0-7.305 2.739-7.305 7.305 0 5.022 1.065 8.98 6.848 8.98 3.5 0 6.088-1.37 6.697-5.023 0-.609-.609-.609-1.065-.609-.61 0-1.218 0-1.218.609-.304 1.522-.457 3.957-3.957 3.957-4.414 0-4.414-3.957-4.414-7.001zm-33.33 6.24v-20.09c1.674-.304 3.196-.304 4.566-.304 7.457 0 7.762 4.566 7.762 10.958 0 7.153-1.827 9.588-8.98 9.588-.913 0-1.978 0-3.348-.152zm-6.24 1.522H203.786c8.37-.305 10.35-3.805 10.35-12.023 0-3.349-.305-7.153-3.045-9.436-1.978-1.522-4.565-1.674-7-1.674h-12.176v1.065c3.196 0 3.196.456 3.196 2.283v16.437c0 1.826.152 2.282-3.196 2.282z"/></g></g></g></svg>