<svg xmlns="http://www.w3.org/2000/svg" width="226" height="124" viewBox="0 0 226 124"><g><g><g><path d="M225.634 8.17h-2.533v6.413c0 .815.11 1.377.317 1.678.205.293.562.443 1.06.443.293 0 .539-.04.753-.119.205-.079.356-.158.45-.221l.27 1.567c-.08.072-.277.167-.578.309-.309.135-.72.198-1.235.198-.997 0-1.742-.277-2.24-.831-.5-.554-.745-1.473-.745-2.755V8.17h-1.4V6.864l1.4-.285.214-3.238h1.734v3.238h2.779zm-15.888 9.983v-7.45c0-.95-.135-1.638-.412-2.058-.277-.411-.712-.625-1.33-.625-.316 0-.601.04-.855.126-.245.08-.467.175-.665.301a2.82 2.82 0 0 0-.498.396 5 5 0 0 0-.365.388v8.922h-1.955V6.579h1.781v1.298h.056c.079-.126.198-.285.356-.467.158-.19.364-.364.602-.53.245-.174.522-.309.847-.428.324-.11.68-.166 1.084-.166 1.322 0 2.248.515 2.795 1.544.118-.159.269-.333.459-.523.198-.182.42-.348.68-.506.254-.15.547-.277.864-.372.324-.095.68-.143 1.06-.143 2.352 0 3.523 1.362 3.523 4.1v7.767h-1.955v-7.45c0-.95-.166-1.638-.507-2.058-.332-.412-.831-.625-1.496-.625-.546 0-.997.134-1.362.403a5.25 5.25 0 0 0-.855.76c.032.175.056.365.072.562.016.206.024.412.024.642v7.766zm-11.986-6.92l-1.306-4.56a34.275 34.275 0 0 1-.46-1.749 8.042 8.042 0 0 1-.213-1.385h-.047c-.016.364-.095.823-.23 1.362a42.952 42.952 0 0 1-.475 1.725l-1.37 4.608zm4.267 6.92h-2.32l-1.487-5.328h-5.043l-1.52 5.328h-2.122l5.423-16.64h1.639zm-19.22-9.239c-.127-.142-.365-.34-.697-.593-.34-.246-.784-.372-1.33-.372-.515 0-.91.118-1.18.364-.277.237-.411.53-.411.87 0 .428.126.792.372 1.07.253.284.633.585 1.148.902l.72.435c.792.467 1.41.974 1.86 1.512.452.538.673 1.235.673 2.082 0 .918-.316 1.686-.95 2.32-.633.625-1.551.934-2.739.934-.467 0-.879-.048-1.227-.143a5.545 5.545 0 0 1-.934-.332 3.37 3.37 0 0 1-.657-.428 3.756 3.756 0 0 1-.436-.42l.943-1.543c.095.095.205.206.348.332.134.135.3.254.49.38.19.12.412.222.65.301.245.08.522.119.847.119.578 0 1.021-.127 1.33-.388.3-.253.459-.57.459-.942 0-.27-.04-.507-.11-.705a1.59 1.59 0 0 0-.325-.546 3.401 3.401 0 0 0-.53-.459l-.73-.483-.72-.451c-.728-.475-1.29-.966-1.702-1.473-.411-.514-.617-1.18-.617-1.979 0-.435.087-.83.253-1.195.174-.364.412-.673.713-.942a3.529 3.529 0 0 1 1.076-.625 3.79 3.79 0 0 1 1.315-.23c.45 0 .83.047 1.155.135.325.087.602.197.832.332.237.143.427.277.577.412.159.134.278.253.373.348zM171.54 7.877c-.689 0-1.243.293-1.662.871-.42.578-.657 1.41-.729 2.51h4.228a9.054 9.054 0 0 0 .048-.847c0-.808-.167-1.425-.484-1.869-.324-.443-.791-.665-1.4-.665zm3.665 2.605c0 .498-.016.926-.047 1.29-.032.364-.063.68-.095.958h-5.914c.071 1.362.364 2.367.887 3.008.522.642 1.274.966 2.256.966a3.251 3.251 0 0 0 1.623-.412c.206-.11.372-.221.507-.332.142-.119.237-.206.3-.27l.729 1.378c-.08.08-.206.198-.364.349a3.28 3.28 0 0 1-.65.459c-.277.15-.61.285-1.013.396-.404.11-.879.166-1.425.166-.72 0-1.377-.119-1.963-.356a3.783 3.783 0 0 1-1.496-1.125c-.412-.506-.729-1.147-.95-1.931-.23-.776-.34-1.718-.34-2.803 0-1.037.118-1.923.348-2.667.237-.752.554-1.362.95-1.845a3.88 3.88 0 0 1 1.4-1.077 4.26 4.26 0 0 1 1.71-.348c1.109 0 1.98.348 2.605 1.053.634.697.942 1.742.942 3.143zm-12.294-.317c0-.831-.198-1.425-.594-1.781a1.998 1.998 0 0 0-1.385-.53c-.562 0-1.045.174-1.449.53-.404.356-.601.95-.601 1.781 0 .84.198 1.433.601 1.79.404.355.871.53 1.401.53.562 0 1.037-.175 1.433-.53.396-.357.594-.95.594-1.79zm-2.58 7.624c-.341 0-.642-.024-.895-.072-.143.08-.285.174-.428.293-.134.111-.261.246-.372.404a2.54 2.54 0 0 0-.277.57 2.415 2.415 0 0 0-.103.76c0 1.235.681 1.86 2.05 1.86 1.172 0 2.043-.23 2.605-.688.562-.46.84-.99.84-1.584 0-.562-.175-.958-.531-1.195-.356-.23-.831-.348-1.425-.348zm5.375-9.69h-1.449c.372.61.554 1.298.554 2.066 0 .618-.095 1.164-.3 1.655-.199.49-.484.91-.84 1.242-.364.34-.792.594-1.282.776a4.666 4.666 0 0 1-1.576.262h-.316c-.095 0-.198-.008-.317-.024a2.32 2.32 0 0 0-.602.388.88.88 0 0 0-.316.696c0 .238.095.444.285.594.182.15.483.23.902.23h1.473c.546 0 1.053.055 1.52.166.459.11.87.293 1.21.546.35.246.618.562.816.95.19.38.285.855.285 1.393 0 .634-.134 1.204-.396 1.718-.269.515-.64.958-1.124 1.322-.483.372-1.069.665-1.757.871a8.135 8.135 0 0 1-2.32.317c-1.235 0-2.177-.27-2.818-.808-.641-.546-.966-1.314-.966-2.327 0-.435.08-.808.23-1.124a3.61 3.61 0 0 1 .538-.824c.214-.23.428-.411.641-.554.222-.134.388-.245.523-.324v-.048c-.499-.372-.752-.91-.752-1.615 0-.308.063-.57.182-.791.119-.23.261-.412.411-.562.15-.143.31-.262.46-.349.15-.087.269-.15.348-.182v-.047a3.217 3.217 0 0 1-1.433-1.29c-.364-.587-.546-1.339-.546-2.257 0-.641.103-1.203.316-1.694.206-.49.491-.895.84-1.22a3.554 3.554 0 0 1 1.243-.728c.475-.158.99-.237 1.535-.237.547 0 1.061.095 1.544.293h3.523zm-12.255-4.322c-.396 0-.72-.127-.966-.388-.237-.254-.356-.594-.356-1.014 0-.396.119-.728.356-.99.246-.253.57-.38.966-.38.388 0 .705.127.942.38.245.262.364.594.364.99 0 .42-.119.76-.364 1.014zm.966 14.376h-1.956V6.579h1.956zm-4.172-9.983h-2.534v6.413c0 .815.111 1.377.317 1.678.206.293.562.443 1.06.443.286 0 .54-.04.745-.118.214-.08.364-.159.46-.222l.268 1.567c-.079.072-.277.167-.578.31-.308.134-.72.197-1.234.197-.998 0-1.742-.277-2.24-.831-.5-.554-.753-1.473-.753-2.755V8.17h-1.393V6.864l1.393-.285.222-3.238h1.733v3.238h2.78zm-6.872.119a1.328 1.328 0 0 0-.316-.119 2.334 2.334 0 0 0-.65-.071c-.61 0-1.084.158-1.432.49a2.827 2.827 0 0 0-.737 1.07v8.494h-1.955V6.579h1.79v1.568h.047c.079-.23.181-.452.308-.665.135-.222.293-.412.483-.578.198-.175.428-.301.689-.404.27-.095.586-.143.95-.143.277 0 .499.024.665.072.166.047.3.087.396.118zm-8.637-5.043c0 .372-.11.665-.332.895-.23.221-.499.34-.823.34-.325 0-.594-.119-.816-.34-.23-.23-.34-.523-.34-.895s.11-.665.34-.894c.222-.222.491-.333.816-.333.324 0 .593.11.823.333zm-3.712 0c0 .372-.111.665-.333.895-.23.221-.499.34-.823.34-.325 0-.594-.119-.816-.34-.23-.23-.34-.523-.34-.895s.11-.665.34-.894c.222-.222.491-.333.816-.333.324 0 .594.11.823.333zm.459 13.53c.277 0 .514-.04.728-.12.206-.079.388-.174.538-.292.15-.111.285-.238.388-.372.103-.135.198-.254.277-.349v-2.557l-.625.024c-.934.032-1.647.19-2.122.483-.483.293-.728.76-.728 1.401 0 .594.135 1.037.412 1.338.269.293.649.443 1.132.443zm-3.5-1.568c0-.673.135-1.235.389-1.686a3.21 3.21 0 0 1 1.037-1.1 4.452 4.452 0 0 1 1.536-.602 9.35 9.35 0 0 1 1.868-.182h.602v-1.109c0-.981-.175-1.654-.523-2.026-.34-.372-.831-.555-1.457-.555-.577 0-1.06.127-1.448.373a8.922 8.922 0 0 0-.91.664l-.824-1.298a4.533 4.533 0 0 1 1.227-.895c.293-.142.618-.269.99-.364a5.077 5.077 0 0 1 1.25-.142c1.196 0 2.098.332 2.708.99.61.657.918 1.717.918 3.182v5.28c0 .5.008.99.048 1.465.031.467.063.792.095.95h-1.86l-.072-1.283h-.048a2.67 2.67 0 0 1-.292.5 2.236 2.236 0 0 1-.483.506c-.19.15-.42.285-.697.396-.27.11-.594.166-.966.166-.435 0-.839-.08-1.219-.238a3.271 3.271 0 0 1-.99-.673 3.075 3.075 0 0 1-.649-1.029 3.595 3.595 0 0 1-.23-1.29zm-1.036-8.63l-3.515 11.575h-1.742l-1.18-4.053a28.83 28.83 0 0 1-.443-1.615 8.052 8.052 0 0 1-.23-1.425h-.047c-.04.45-.126.934-.269 1.448a30.677 30.677 0 0 1-.507 1.615l-1.322 4.03h-1.67l-3.642-11.574h2.098l1.742 6.555c.158.61.3 1.18.42 1.702.118.522.19 1.013.205 1.48h.048c.047-.467.15-.95.3-1.456.151-.507.325-1.061.523-1.655l1.251-3.784-.87-2.842h2.026l1.765 6.389c.174.657.333 1.274.475 1.852.15.578.23 1.077.246 1.496h.047c.032-.42.11-.918.245-1.504.127-.586.278-1.203.452-1.844l1.718-6.389zM110.26 8.915c-.127-.142-.356-.34-.697-.594-.34-.245-.776-.372-1.33-.372-.514 0-.902.12-1.18.365-.269.237-.411.53-.411.87 0 .428.127.792.38 1.07.245.284.625.585 1.14.902l.728.435c.784.467 1.401.974 1.853 1.512.451.538.68 1.235.68 2.082 0 .918-.324 1.686-.957 2.32-.634.625-1.544.934-2.74.934-.459 0-.87-.048-1.227-.143a5.21 5.21 0 0 1-.926-.332 3.218 3.218 0 0 1-.665-.428 4.521 4.521 0 0 1-.435-.42l.942-1.543c.095.095.214.206.348.332.135.135.301.254.499.38a2.683 2.683 0 0 0 1.488.42c.578 0 1.021-.127 1.33-.388.309-.253.46-.57.46-.942 0-.27-.04-.507-.111-.705a1.59 1.59 0 0 0-.325-.546 2.803 2.803 0 0 0-.53-.459c-.206-.143-.452-.3-.72-.483l-.73-.451c-.72-.475-1.29-.966-1.693-1.473-.412-.514-.618-1.18-.618-1.979a2.752 2.752 0 0 1 .966-2.137c.3-.261.657-.475 1.069-.626a3.79 3.79 0 0 1 1.314-.23c.451 0 .84.048 1.156.135.324.088.601.198.839.333.23.142.42.277.578.412.15.134.277.253.372.348zm-7.98 9.239h-1.79v-1.306h-.047c-.047.102-.15.237-.308.427a3.521 3.521 0 0 1-.618.53 4.168 4.168 0 0 1-.902.444c-.357.126-.752.19-1.18.19-.514 0-.982-.071-1.385-.222a2.65 2.65 0 0 1-1.053-.736c-.293-.34-.515-.776-.665-1.322-.15-.538-.23-1.196-.23-1.987V6.579h1.956v7.45c0 .965.158 1.654.467 2.058.316.411.8.617 1.464.617.562 0 1.037-.142 1.417-.42.388-.284.697-.562.919-.83V6.578h1.955zm-14.012-6.92l-1.307-4.56a33.82 33.82 0 0 1-.45-1.749 7.448 7.448 0 0 1-.222-1.385h-.048a6.568 6.568 0 0 1-.23 1.362 60.708 60.708 0 0 1-.467 1.725l-1.377 4.608zm4.267 6.92h-2.312l-1.496-5.328h-5.043l-1.52 5.328h-2.121l5.422-16.64h1.647z"/></g><g><path fill="#f8d100" d="M63.688 83.005h3.04v40.532h-7.093V83.005z"/></g><g><path fill="#e3000c" d="M63.688 42.266h3.04v40.739h-7.093v-40.74z"/></g><g><path d="M28.57 16.815zm.087-1.402c0-.269 0-.57-.031-.91 4.045-.055 7.584-2.969 7.584-6.317 0-1.702-1.109-2.985-1.742-3.753.143-.032.285-.063.428-.103.593.515 2.272 2.343 2.272 4.655 0 4.014-4.014 7.742-8.598 7.83.056-.46.087-.927.087-1.402zM24.501 2.826a2.652 2.652 0 0 0-.506-1.195c.015-.412.182-.8.847-.483-.357.364-.087 1.013-.087 1.013s.728-.34.577-.823c1.085.261.31 1.718-.83 1.488zm-.934 2.066zm-.847-1.686c-.356-.42-.942-.918-1.742-.918-.364 0-.965.174-1.353.332-.15-.26-.428-.894-.428-1.18 0-.292.499-.593 1.449-.593 2.09 0 3.34.942 3.34 2.533 0 .554-.221 1.061-.419 1.512a4.296 4.296 0 0 0-.847-1.686zm6.214 28.642c.246 0 .365.04.5.087.609 1.64 2.92 4.726 3.023 4.861l.016.032.04-.008c.57-.095 2.018-.317 3.238-.317h.023c.135 0 .285 0 .38.095.08.08.12.222.12.412 0 .309-.128.823-.286 1.045-.427-.467-1.116-.673-2.217-.673-.332 0-.728.095-.942.15l-.087.024-.103.024.642.641c.99.982 1.836 1.829 1.836 2.399 0 .34-.332.783-.641.981-.063-1.037-1.108-2.422-2.13-3.198l-.087-.063-.016.356c-.015.253-.031.625-.031 1.021 0 1.971-.206 2.272-.887 2.272-.103 0-.261-.031-.364-.07.38-.476.538-1.101.538-2.21l-.008-.506-.007-.412c0-.443.047-.784.087-1.053l.015-.15-.103-.016c-.324-.047-.918-.127-1.37-.127-.973 0-1.638.095-2.113.547-.316-.262-.641-.697-.641-.982 0-.404.253-.435.594-.435.166 0 .324.015.546.047.42.063 1.053.158 2.351.158h.08l-.024-.079c-.333-.95-1.235-2.32-2.684-4.077.127-.467.253-.775.712-.775zm-12.516 4.853l-.023.08h.079c1.298 0 1.931-.096 2.351-.159.222-.032.38-.047.546-.047.333 0 .594.031.594.435 0 .285-.324.72-.641.982-.475-.452-1.14-.547-2.114-.547-.451 0-1.053.08-1.37.127l-.047.008-.055.008.015.15c.04.27.08.61.08 1.053v.412l-.008.506c0 1.109.15 1.734.538 2.209-.103.04-.261.071-.364.071-.689 0-.887-.3-.887-2.272 0-.396-.016-.768-.031-1.021l-.024-.364-.087.071c-1.014.776-2.059 2.161-2.122 3.198-.309-.198-.641-.64-.641-.981 0-.57.847-1.417 1.836-2.399l.562-.57.072-.071-.182-.048c-.214-.055-.61-.15-.942-.15-1.1 0-1.797.206-2.225.673-.15-.222-.277-.737-.277-1.045 0-.19.04-.333.119-.412.095-.095.245-.095.38-.095h.023c1.22 0 2.668.222 3.238.317l.032.008.024-.032c.095-.135 2.422-3.222 3.024-4.86.134-.048.253-.088.499-.088.459 0 .578.309.712.776-1.449 1.757-2.351 3.127-2.684 4.077zM10.157 8.985c0-2.311 1.678-4.14 2.272-4.655.142.04.285.071.42.103-.626.768-1.734 2.05-1.734 3.753 0 3.38 3.61 6.317 7.702 6.317-.031.293-.04.594-.04.91 0 .491.024.958.072 1.402-4.623-.032-8.692-3.785-8.692-7.83zm31.017 7.125c2.074 3.277 3.697 3.222 6.151 3.222-2.026-1.552-3.372-3.547-4.006-4.56l-3.792-6.064a9.012 9.012 0 0 0-2.786-4.932c.483-.182.886-.38 1.132-.562-2.47 0-4.924-1.259-6.278-1.259-.863 0-1.425.523-1.425 1.211.055.76.847 1.536 2.296 1.536.332 0 .752-.04 1.211-.119.792 1.093 1.425 2.09 1.425 3.5 0 2.66-3.174 4.726-6.38 4.726-.183 0-.357-.008-.531-.024-.293-.657-1.259-1.758-1.259-3.016 0-2.106 1.378-3.832 1.378-5.922 0-1.298-.634-2.106-.879-2.438.396-.364.823-.816.926-1.124-.23.103-.498.118-.902.118C25.927.403 24.668 0 23.449 0c-.697 0-.887.213-.887.42 0 .07.016.15.032.19a4.004 4.004 0 0 0-.792-.222 5.923 5.923 0 0 0-1.155-.103c-1.489 0-2.02.625-2.02 1.156 0 .45.365 1.274.76 1.9.579-.293 1.275-.491 1.592-.491.792 0 1.488.752 1.86 1.638-.53.064-.633.087-1.171.087-1.441 0-2.423-.514-2.629-.514-.015 0-.055.008-.055.04 0 .205.412.736 1.22 1.037 1.06.387 2.66.546 2.92.593 0 .04-.269.546-.57.641a.306.306 0 0 1-.19.008c-1.108-.213-1.417-.308-2.826-.847-.047-.015-.071.016-.071.056 0 .562 1.44 1.789 2.74 2.256-1.085 1.377-2.431 2.794-3.072 4.94a5.822 5.822 0 0 1-.53.024c-3.207 0-6.381-2.067-6.381-4.726 0-1.41.633-2.407 1.425-3.5.459.08.878.12 1.21.12 1.45 0 2.241-.777 2.297-1.537 0-.688-.563-1.21-1.433-1.21-1.346 0-3.8 1.258-6.27 1.258.245.182.649.38 1.132.562a9.012 9.012 0 0 0-2.787 4.932l-3.792 6.064C3.373 15.785 2.027 17.78 0 19.332c2.446 0 4.077.055 6.152-3.222l1.94-3.111c.142.403.324.791.53 1.18L4.757 20.36c-.64 1.021-1.979 3-4.013 4.568 2.454 0 4.077.055 6.15-3.222l3.326-5.328c.253.261.514.523.791.768l-4.694 7.52c-.65 1.022-1.971 2.993-4.014 4.56 2.454 0 4.077.056 6.151-3.221l4.576-7.331c.3.19.61.38.926.554l-5.58 8.938c-.65 1.029-1.972 2.992-4.015 4.56 2.454 0 4.077.055 6.152-3.23l5.755-9.207c.34.134.689.261 1.037.372l-6.5 10.402c-.633 1.013-1.994 3.016-4.013 4.56 2.454 0 4.077.055 6.151-3.222l6.927-11.091c.071.016.142.032.214.04.19.601.316 1.163.316 1.717 0 3.484-2.287 6.563-5.027 8.938.175.08.483.103.76.103.57 0 .935-.032 1.188-.079-.633 1.449-1.995 3.317-2.684 4.283-.902-.166-2.208-.293-3.063-.293-.895 0-.998.522-.998.99 0 .815.38 1.464.823 1.82.167-.411.5-.973 2.154-.973.031 0 .087.007.166.015-.483.539-1.995 1.758-1.995 2.747 0 .65.712 1.631 1.655 1.631-.056-.213-.048-.403-.048-.546 0-.807.712-1.742 1.306-2.39-.016.197-.008.173-.008.403 0 1.884.174 2.755 1.37 2.755.586 0 .99-.325 1.132-.42-.784-.72-.815-1.282-.815-2.343v-.91c.007-.246 0-.562-.04-.792.435-.063.61-.063.934-.063 0 0 1.702-.135 2.114.752.459-.428 1.132-1.021 1.132-1.686 0-.428-.206-.927-1.085-.927-.332 0-1.377.206-2.248.206.23-.522 1.282-2.05 2.185-3.158.135.427.348.894.823 1.274.064-.712.483-2.968 1.6-4.283.134.887.308 1.805.308 3.729 0 4.686-1.132 8.154-3.523 8.811.309.546.966 1.03 1.655 1.03.87 0 1.353-.99 1.836-1.925.254.69.95 2.383 1.655 2.383.697 0 1.401-1.694 1.655-2.383.482.935.957 1.924 1.836 1.924.681 0 1.346-.483 1.655-1.029-2.391-.657-3.523-4.125-3.523-8.811 0-1.924.174-2.842.309-3.729 1.108 1.314 1.527 3.57 1.599 4.283.467-.38.688-.847.823-1.274.902 1.108 1.947 2.636 2.185 3.158-.879 0-1.916-.206-2.248-.206-.88 0-1.085.5-1.085.927 0 .665.673 1.258 1.132 1.686.412-.887 2.114-.752 2.114-.752.324 0 .499 0 .934.063-.04.23-.048.546-.048.792.008.372.008.641.008.91 0 1.061-.04 1.623-.815 2.343.142.095.546.42 1.132.42 1.195 0 1.37-.87 1.37-2.755 0-.23.007-.206-.008-.404.593.65 1.306 1.584 1.306 2.391 0 .143 0 .333-.056.546.95 0 1.663-.981 1.663-1.63 0-.99-1.512-2.21-1.995-2.748.08-.008.135-.015.166-.015 1.655 0 1.987.562 2.153.973.444-.356.824-1.005.824-1.82 0-.468-.103-.99-.998-.99-.855 0-2.16.127-3.063.293-.689-.966-2.05-2.834-2.692-4.283.261.048.626.08 1.188.08.285 0 .593-.025.768-.104-2.74-2.375-5.028-5.454-5.028-8.938 0-.554.127-1.116.317-1.717.071-.008.143-.024.214-.04l6.927 11.091c2.066 3.278 3.697 3.222 6.151 3.222-2.019-1.544-3.38-3.547-4.014-4.56L30.02 20.662c.348-.111.697-.238 1.037-.372l5.755 9.207c2.074 3.285 3.697 3.23 6.151 3.23-2.042-1.568-3.364-3.531-4.013-4.56l-5.581-8.938c.316-.174.625-.364.926-.554l4.576 7.33c2.074 3.278 3.697 3.223 6.15 3.223-2.042-1.568-3.364-3.54-4.013-4.56l-4.694-7.521c.277-.245.538-.507.783-.768l3.333 5.328c2.074 3.277 3.697 3.222 6.151 3.222-2.042-1.568-3.364-3.547-4.013-4.568l-3.864-6.183c.206-.388.388-.776.53-1.18z"/></g><g><path d="M66.728 1.94v40.532h-7.093V1.94z"/></g></g></g></svg>