<svg xmlns="http://www.w3.org/2000/svg" width="38" height="38" viewBox="0 0 38 38"><defs><clipPath id="k3tra"><path fill="#fff" d="M0 19C0 8.507 8.507 0 19 0s19 8.507 19 19-8.507 19-19 19S0 29.493 0 19z"/></clipPath></defs><g><g><path fill="none" stroke="#0038b9" stroke-miterlimit="20" stroke-width="4" d="M0 19C0 8.507 8.507 0 19 0s19 8.507 19 19-8.507 19-19 19S0 29.493 0 19z" clip-path="url(&quot;#k3tra&quot;)"/></g><g><path fill="none" stroke="#0038b9" stroke-linecap="round" stroke-linejoin="round" stroke-miterlimit="20" stroke-width="2" d="M28.482 28.219v0-1.252a4.72 4.72 0 0 0-4.72-4.72h-9.439a4.72 4.72 0 0 0-4.72 4.72v1.252"/></g><g><path fill="none" stroke="#0038b9" stroke-linecap="round" stroke-linejoin="round" stroke-miterlimit="20" stroke-width="2" d="M23.763 12.809a4.72 4.72 0 1 1-9.44 0 4.72 4.72 0 0 1 9.44 0z"/></g></g></svg>